<?xml version="1.0" standalone="no"?> <!DOCTYPE svg PUBLIC "-//W3C//DTD SVG 1.0//EN" "http://www.w3.org/TR/2001/REC-SVG-20010904/DTD/svg10.dtd" > <svg xmlns="http://www.w3.org/2000/svg" width="100%" height="100%">
<defs >
<font id="kin668" horiz-adv-x="602" ><font-face
    font-family="King"
    units-per-em="1000"
    panose-1="0 0 0 0 0 0 0 0 0 0"
    ascent="714"
    descent="-223"
    alphabetic="0" />
<missing-glyph />
<glyph unicode=" " glyph-name="space" />
<glyph unicode="!" glyph-name="exclam" d="M220 54V54V54V54V55V55V55V55V55Q220 75 226 89T244 114Q256 124 269 129T298 134V134H299V134V134H300Q300 134 301 134Q316 134 329 129T356 114Q368 104 374 89T381 54Q380 35 374 21T356 -2Q344 -12 331 -17T303
-22Q302 -22 302 -22H301V-22V-22H300V-22Q285 -22 271 -17T245 -3Q232 5 226 20T220 54V54V54ZM257 431Q256 435 256 439T255 447Q254 450 254 454T252 462Q251 470 250 477T246 493Q245 495 245 496T244 499Q244 500 244 501T244 503Q243 504 243 505T243 507Q240
521 237 534T232 561Q229 575 228 589T227 617Q227 618 227 619T227 621V622Q227 623 227 624Q227 626 227 628T227 632Q228 648 233 662T249 689Q259 701 271 707T300 714Q301 714 302 714T304 714H305Q306 714 307 714Q308 714 308 714T310 714Q311 713 311 713T313
713Q328 711 339 704T357 685Q364 673 368 660T374 633Q374 632 374 631T375 629Q375 627 375 626T375 624Q375 622 375 620T375 615Q375 614 375 614V613Q375 612 375 612T375 610Q375 609 375 608T375 606Q374 593 373 581T369 556Q368 550 367 544T364 532Q362
525 361 519T359 507V507V507V506V506V506V506V505V505Q356 492 353 480T348 455Q346 442 345 430T343 404Q342 391 341 378T340 353Q340 341 340 329T341 305Q341 301 341 297T341 289Q341 285 341 281T341 273Q341 267 341 262T341 251Q341 245 341 240T341 229V229V229V228V228V228V228V228V228V227V227V227V227Q341
226 341 226T341 224Q341 223 341 223T341 221Q340 214 338 208T331 196Q327 190 322 187T309 182Q308 182 308 182T306 182Q305 182 304 182T302 182Q294 182 287 184T274 192Q268 197 265 204T261 221Q261 222 261 223T261 225Q261 226 261 226T261 228V228Q261
229 261 230Q260 231 260 232T260 234Q260 235 260 235T260 237V238Q260 238 260 239Q260 244 260 248T260 257Q260 262 260 266T262 276Q262 281 262 285T262 294Q262 296 262 298T263 303Q263 305 263 307T263 312Q263 314 263 316T263 322Q263 324 263 326T263
332Q262 337 262 342T262 352Q262 357 262 362T262 372Q262 376 262 379T261 387Q260 390 260 393T260 401Q259 409 259 416T257 431V431V431Z" />
<glyph unicode="&quot;" glyph-name="quotedbl" d="M236 668Q244 664 249 658T258 646Q261 639 263 633T265 618Q265 617 265 617T265 615Q265 614 265 614V613Q264 612 264 612T264 610Q264 609 264 608V608Q263 604 263 600T261 590Q260 586 260 582T258 574Q258
573 258 571T257 568Q256 566 256 565T255 561Q254 558 254 555T253 549Q252 542 251 535T248 521Q247 514 246 507T244 493Q243 486 242 479T240 465Q239 458 239 451T238 437Q238 436 238 436V435Q238 434 238 434T238 432Q238 431 238 430V430Q238 429 238 429T238
427Q238 426 238 426V425V425V425Q238 423 238 421T238 417Q238 414 238 412T238 408Q238 406 238 404T238 399Q237 397 237 395T237 390Q236 378 234 368T226 347Q222 337 214 333T194 329Q193 329 193 329T191 329Q190 329 190 329H189Q188 329 187 329H186V329Q185
329 185 330Q184 330 184 330H183Q172 332 165 337T153 351Q149 359 147 368T144 388Q143 391 143 394T143 402Q143 405 143 408T143 416V416V416V416Q143 417 143 418Q143 435 142 452T137 487Q136 496 135 504T132 522Q130 530 129 538T126 556Q125 559 125 562T124
568Q123 570 123 573T122 579Q121 582 121 585T120 591Q119 593 119 596T118 602Q118 603 118 604T117 606V607Q117 608 117 609Q117 610 117 611T117 613V614Q117 615 117 616Q117 632 122 644T139 663Q150 671 162 674T187 679V679H188V679V679V679Q189 679 190
679Q196 679 202 679T214 676Q220 675 225 673T236 668V668V668ZM456 668Q464 664 469 659T478 646Q482 639 484 632T486 617Q486 616 486 616V615Q486 614 486 614V613Q485 612 485 611V610Q485 609 485 608V608Q484 604 484 600T483 592Q482 588 482 584T480
576Q479 572 479 568T477 561Q476 557 476 553T474 545Q474 544 474 543V542Q473 541 473 540T473 538Q472 537 472 536T472 532Q471 526 470 520T467 509Q466 503 465 497T463 485Q462 473 461 461T459 437Q459 436 459 435T459 431Q459 430 459 428T459 423Q459
422 459 422V421Q459 420 459 420V419Q459 417 459 415T459 411Q458 409 458 407T458 403Q458 401 458 399T458 395Q457 393 457 391T457 387Q456 376 454 366T446 346Q442 337 434 333T414 329Q413 329 412 329V329Q411 329 411 329T409 329Q408 329 408 329H407Q406
329 406 329T404 330Q393 332 386 337T374 351Q370 359 368 368T365 388Q364 391 364 394T364 402Q364 405 364 408T364 416V416V416V416Q364 417 364 418Q364 435 363 452T359 487Q356 504 353 521T347 556V556V557Q346 557 346 558V558V559Q346 560 346 561Q345
566 344 571T342 581Q341 586 340 591T338 602V602Q338 603 338 604Q337 604 337 604V605Q337 606 337 607T337 609Q337 610 337 610T337 612Q337 613 337 614T337 616Q337 631 342 643T359 662Q370 670 383 674T409 679V679H410V679V679V679Q411 679 412 679Q415
679 418 679T424 678Q426 678 429 678T435 676Q440 675 445 673T456 668V668V668Z" />
<glyph unicode="#" glyph-name="numbersign" d="M416 685V685V686V686V686V686Q416 687 417 688Q419 695 421 701T428 714Q432 720 438 723T452 726Q453 726 454 726T456 726V726Q457 726 458 726Q458 725 458 725T460 725Q467 724 471 722T479 715Q481 711 482
706T484 696Q484 695 484 694T484 692Q484 691 484 690V690Q483 689 483 688V688Q483 687 483 687T483 685Q482 684 482 684V683Q482 682 482 681T482 679L431 448Q433 448 435 448T440 448Q441 448 442 448T445 449Q447 449 448 449T451 449Q453 449 456 449T462
449Q464 449 465 449T469 450Q470 450 472 450T476 450V450H477V450V450H478Q478 450 479 450Q488 450 497 449T513 445Q521 442 525 437T529 424Q529 423 529 422T529 420Q528 419 528 418T528 416Q527 415 527 413T525 408Q522 401 517 397T503 390Q495 388 486
387T468 385Q464 385 461 385T453 385Q449 385 446 385T440 387Q436 387 433 387T427 387Q426 387 425 387T422 388Q421 388 420 388T418 388L390 258Q392 258 394 258T399 258Q400 258 401 258T404 259Q406 259 407 259T410 259Q413 259 416 259T422 259Q424 259
425 259T429 260Q430 260 432 260T436 260Q446 260 455 259T472 255Q480 252 483 247T487 233Q487 232 487 231V230Q486 229 486 228T486 226Q486 225 486 223T484 218Q481 212 476 208T463 201Q456 199 448 198T430 196Q429 196 428 196T426 196Q425 196 425 196T423
196Q419 196 416 196T409 196Q407 196 406 196T402 197Q401 197 400 197T396 197Q393 197 390 197T385 197Q384 197 383 197T380 198Q379 198 379 198T377 198L324 -37Q322 -44 319 -50T311 -61Q307 -66 303 -69T293 -73Q292 -73 292 -73T291 -74Q290 -74 290 -74H289Q288
-74 288 -74T286 -74Q280 -74 276 -72T266 -65Q262 -61 260 -55T258 -40Q258 -39 258 -38T258 -34Q258 -33 258 -32T259 -28L416 685V685V685ZM189 -26Q187 -33 184 -39T178 -52Q174 -58 168 -61T153 -65Q152 -65 152 -65H151Q150 -65 150 -65H149Q141 -64 136
-62T127 -54Q124 -50 123 -45T121 -33Q121 -31 121 -29T121 -25Q121 -24 121 -23T122 -22Q122 -21 122 -20T123 -18L171 198Q170 198 169 198T167 198Q165 197 164 197T162 197Q159 197 156 197T150 197Q149 197 147 197T144 196Q142 195 141 195T137 195Q133 195
130 195T123 195Q113 195 105 196T88 200Q81 203 77 209T74 224Q74 225 74 226V226V226Q74 227 74 228Q76 238 80 244T94 254Q102 257 111 259T131 261Q133 261 135 261T139 261Q140 260 142 260T146 260Q149 260 152 260T160 260Q162 260 163 260T167 259Q168
258 170 258T173 258Q175 258 176 258T179 258Q180 258 181 258T184 258L212 388Q211 388 210 388T208 388Q206 387 205 387T203 387Q202 387 201 387T198 387Q196 387 195 387T192 387Q191 387 190 387T187 386Q185 385 184 385T181 385Q180 385 179 385T176 385Q174
385 173 385T170 385Q169 385 169 385T167 385Q166 385 166 385H165Q155 385 147 386T130 390Q123 393 119 399T116 414Q116 415 116 416V416V416Q116 417 116 418Q117 428 121 434T135 444Q144 447 154 448T174 450Q176 450 177 450T181 450Q182 449 184 449T188
449Q191 449 194 449T202 449Q204 449 205 449T208 449Q210 448 211 448T214 448Q216 448 217 448T220 448Q221 448 222 448T225 448L280 695Q282 703 285 710T292 721Q297 726 301 728T311 732H312Q312 732 313 733H314V733Q315 733 316 733T318 733Q323 733 328
731T337 725Q342 721 344 715T346 700Q346 699 346 699T346 696Q346 695 346 694T346 692V692V691L345 690V690Q345 689 345 688V688L189 -26V-26V-26Z" />
<glyph unicode="$" glyph-name="dollar" d="M278 9Q275 9 272 9T265 10Q261 10 258 10T252 10Q245 10 239 10T225 12Q213 14 201 15T177 20Q165 22 155 26T133 35Q126 38 121 45T112 62Q109 72 108 82T107 104V104Q107 105 107 106V106Q107 107 107 108Q107 110
107 112T107 118Q107 120 107 122T107 127Q107 132 107 136T109 145Q109 149 109 152T109 160Q109 162 109 163T110 166Q110 168 110 169T110 172V172V173V173V173V174Q110 174 110 175Q110 181 110 186T112 196Q113 201 117 204T128 211Q129 211 129 211T131 212Q132
212 132 212T134 212Q135 212 135 212T137 213Q138 213 138 213T140 213Q142 213 143 213T147 212Q148 212 150 212T153 210Q156 209 159 207T164 202Q166 199 167 196T170 188Q171 184 171 179T173 169Q173 165 173 162T175 153Q175 151 175 149T176 145Q177 142
177 140T179 136Q181 126 185 116T196 97Q203 88 214 82T241 70Q246 69 251 68T261 65Q266 64 271 64T283 63Q285 63 286 63T289 63Q291 63 293 63T297 63H298Q298 63 299 63H300Q300 63 301 63Q322 63 342 68T382 83Q401 92 413 108T432 146Q434 151 434 156T436
166Q436 168 436 170T437 175Q437 177 437 179T437 184Q437 204 431 218T410 243Q397 252 381 261T345 277Q343 278 341 278T337 280Q334 281 332 281T328 283Q326 284 324 285T320 287Q317 288 315 289T311 291Q310 291 310 291H309V291V292H308V292Q305 293 302
294T296 297Q292 298 289 299T283 302Q277 304 271 306T260 311Q232 322 207 336T162 366Q141 382 131 410T120 479Q120 517 131 546T165 595Q188 615 216 629T278 652Q278 653 278 654T278 657Q277 658 277 659T277 662Q277 664 277 667T277 673Q277 674 277 675T277
677Q276 678 276 679T276 681Q276 683 276 685T276 689Q276 690 276 691T276 693Q276 694 276 695T276 697Q276 707 277 716T282 732Q285 740 292 744T311 749V749V749V749H312Q322 749 328 746T338 735Q341 728 342 719T344 700Q344 699 344 698T344 694Q344 693
344 692T344 688Q344 687 344 687T344 685Q343 684 343 684T343 682Q343 681 343 680T343 676Q343 675 343 674T343 670Q342 669 342 668T342 664Q342 661 342 659T342 654Q345 654 348 654T355 654Q358 653 361 653T369 653Q377 652 384 652T400 649Q416 646 430
642T458 629Q472 622 479 611T488 583Q488 581 488 579T489 574Q489 572 489 570T489 565Q489 561 489 557T489 547Q489 546 489 545T489 541Q489 540 489 539T489 535Q489 534 489 533T489 529Q489 528 489 527V526Q489 525 489 524T490 522Q490 521 490 520V519Q490
518 490 517T490 515Q490 514 490 513T490 509Q490 504 490 499T487 489Q486 484 484 480T476 472Q475 471 474 471T471 469Q469 468 468 468T465 467Q462 466 459 466T453 466Q450 466 447 466T442 467Q439 468 437 469T432 472Q428 475 425 479T420 488Q419 493
419 499T418 511V512Q418 512 418 513Q418 514 418 514T418 516Q418 518 418 520T418 526Q418 529 418 531T418 536Q417 555 410 567T390 587Q377 594 363 597T332 601Q330 601 328 601T324 601Q323 601 322 601H321Q320 600 319 600T317 600Q296 598 277 591T239
570Q221 557 213 539T204 497Q204 474 213 456T240 425Q258 412 278 401T320 382Q328 379 336 376T353 370Q361 367 369 364T385 359Q417 348 442 333T486 297Q504 277 512 252T521 198Q521 191 521 185T519 170Q518 163 517 156T513 140Q505 111 489 89T448 49Q423
33 397 24T342 12V-93V-94Q342 -95 342 -96Q342 -98 342 -99T342 -102Q341 -109 339 -115T334 -128Q331 -134 325 -137T310 -140Q301 -140 295 -137T285 -127Q281 -120 280 -113T278 -98V-98V-98V-97V-97V-97V-97V-96V-96Q278 -95 278 -94V-94V-94V-94V9V9V9Z"
/>
<glyph unicode="%" glyph-name="percent" d="M158 0Q156 -2 154 -5T148 -11Q145 -14 143 -16T138 -21Q135 -23 133 -24T128 -26Q125 -27 123 -27T118 -28Q113 -28 109 -26T101 -21Q98 -17 97 -12T95 -1Q95 1 95 4T97 11Q99 15 100 19T104 27L443 650Q445 655 448
658T454 665Q456 667 457 668T461 671Q462 672 464 673T467 675Q469 677 471 677T475 679Q476 679 477 679T479 680Q480 680 481 680T483 680Q488 680 492 678T499 673Q502 669 504 664T506 653Q506 650 506 647T504 639Q503 635 501 632T497 623L158 0V0V0ZM283
90Q283 115 291 136T318 173Q336 190 356 198T401 207Q402 207 403 207T406 207Q407 206 408 206T411 206Q413 206 414 206T417 206Q418 205 419 205T422 205Q442 201 459 191T490 164Q504 148 510 129T516 90Q516 89 516 88T516 84Q516 83 516 82T516 79Q516 78
516 78T516 76Q515 75 515 75T515 73Q515 72 515 72T515 70Q514 69 514 69T514 67Q510 44 500 27T472 0Q456 -11 439 -16T404 -23Q403 -23 402 -23V-23Q401 -23 400 -23V-23Q378 -23 358 -16T319 5Q300 19 291 40T283 90V90V90ZM344 90Q344 76 348 66T361 48Q370
41 380 38T400 35Q411 35 420 38T438 49Q446 56 450 66T455 90Q455 104 451 114T437 131Q428 138 419 141T398 145Q388 144 379 141T361 130Q352 123 348 114T344 90V90V90ZM300 621Q301 619 302 617T304 614Q304 612 305 610T307 606Q308 604 308 602T310 599Q310
597 310 596T312 592Q313 588 313 584T315 576Q315 574 315 572T316 569Q316 567 316 566T316 562Q315 540 307 521T283 484Q267 468 246 460T198 451Q169 451 147 459T111 486Q96 504 89 523T81 565V565V566V566V566V566Q81 567 81 568V568V569V569V569V570Q81
570 81 571Q81 592 88 612T111 650Q125 668 147 677T197 686Q199 686 201 686T205 686Q206 685 208 685T212 685Q216 685 220 685T228 683H333Q341 683 348 681T359 676Q364 673 366 668T369 654Q369 653 369 652V652Q369 651 369 651T369 649Q369 648 369 648V647Q368
646 368 646V645Q367 637 363 632T353 624Q347 622 341 621T327 620Q325 620 323 620T319 620Q318 620 317 620H316Q315 620 314 620T312 621Q311 621 310 621T306 621Q305 621 304 621T300 621V621V621ZM142 569Q142 555 146 545T160 527Q168 520 178 517T198
513Q209 513 218 516T236 527Q245 534 249 544T254 569Q254 583 250 592T237 609Q228 616 219 619T200 624Q199 624 198 624V624V624V624H197V624Q187 623 177 620T159 609Q150 602 146 593T142 569V569V569Z" />
<glyph unicode="&amp;" glyph-name="ampersand" d="M373 58Q363 42 352 30T327 7Q314 -2 298 -7T261 -14Q260 -14 260 -14T258 -14Q257 -14 256 -14V-14Q255 -14 254 -14H253Q252 -14 252 -14T250 -14Q231 -14 214 -11T181 0Q165 6 151 16T126 42Q116 55 108 68T93
95Q90 102 88 109T83 123Q81 129 80 136T77 150Q76 153 76 156T75 164Q75 167 75 170T75 178Q75 204 82 229T105 279Q120 303 141 323T190 359L138 450Q137 453 136 456T132 462Q131 464 130 467T126 473Q125 476 124 479T121 485Q120 487 119 490T117 496Q115
501 114 506T111 518Q110 524 110 530T109 542Q109 549 110 556T112 571Q114 579 117 586T124 602Q134 622 148 635T180 658Q198 666 217 670T258 675Q281 675 300 671T336 657Q353 648 364 639T381 619Q383 616 383 613T385 608Q386 605 386 603T387 598Q387 593
385 589T380 580Q376 576 371 573T357 568Q356 567 356 567T353 567Q352 567 351 567T349 567Q345 567 340 568T329 573Q324 576 319 579T308 587Q305 589 302 591T296 594Q292 596 289 598T283 601Q276 604 269 605T254 607Q253 607 252 607T250 607Q248 606 247
606T245 606Q242 606 240 606T235 604Q224 600 216 594T201 579Q195 570 193 560T190 538Q190 528 192 518T199 497Q204 487 209 478T220 459Q221 458 222 457T224 453Q224 452 225 451T227 447Q228 446 229 445T231 442Q231 440 232 439T234 437L371 204Q372 208
373 212T375 220Q376 222 376 224T378 229Q378 231 378 233T380 237Q381 243 382 249T384 261Q386 267 386 273T388 287Q388 289 388 291T388 295Q388 297 388 299T390 303Q390 305 390 306T391 309Q391 310 391 311T393 314Q394 317 395 319T398 324Q401 327 404
328T410 331Q413 332 416 332T424 333Q425 333 426 333T428 333H429Q430 333 431 333Q433 333 435 333T439 333Q440 333 440 333T442 333V333Q443 333 444 333Q446 333 447 333T450 333Q451 333 451 333T453 333H454Q454 333 455 333Q457 333 458 333T461 333Q463
333 465 333T471 333Q473 332 475 332T480 332Q482 332 484 332T490 330Q492 330 494 330T499 328Q503 326 506 323T510 316Q511 314 511 312T512 308Q513 305 513 303T513 299Q513 294 512 290T509 281Q507 277 504 274T497 269Q495 268 493 268T488 267Q485 267
483 267T478 267Q477 267 476 267H475Q474 267 473 267T471 267Q470 267 469 267T465 268Q463 268 462 268T458 268Q457 268 456 268T452 268Q449 252 446 237T438 206Q436 199 434 192T429 177Q426 169 424 162T418 147Q417 146 417 145T416 142Q415 140 415 139T414
136Q413 135 413 134T412 130Q411 129 411 128T409 124Q411 122 412 119T416 112Q418 108 420 104T425 96Q429 90 433 85T442 74Q447 69 452 67T462 64Q464 64 466 65T471 67Q473 69 475 71T480 76Q480 77 480 77T482 79V80Q483 80 484 81Q486 82 487 83T490 85V85Q491
85 492 86V86Q493 86 494 86Q495 86 495 86T497 87H498Q498 87 499 87Q504 86 509 83T518 75Q523 70 525 64T528 52V52V52V52V52V51V51V51V51Q528 50 528 50T528 48Q528 47 528 46V46Q527 33 521 22T503 0Q492 -9 480 -14T455 -19V-19V-19H454V-19V-19V-19H453V-19Q452
-19 452 -19H451V-19V-19Q442 -18 434 -14T418 -3Q411 3 405 10T392 27Q389 31 387 35T382 43Q379 47 377 50T373 58V58V58ZM232 295Q216 288 204 280T183 261Q174 251 170 237T163 204Q163 203 163 202T163 200Q163 199 163 198V197Q162 196 162 195T162 193Q162
192 162 191T162 189Q162 186 162 184T162 179Q162 177 162 175T164 170Q166 158 169 147T176 125Q181 114 187 105T201 87Q206 82 212 78T226 69Q234 65 241 64T256 62V62H257V62V62H258Q258 62 259 62Q261 62 262 62T265 62Q267 62 268 62T272 63Q274 63 275
63T278 65Q280 65 281 65T284 67Q293 71 300 77T311 91Q316 99 320 107T327 125V125L328 126V126V127V128Q328 128 329 129V130V130L232 295V295V295Z" />
<glyph unicode="&apos;" glyph-name="quotesingle" d="M350 668Q358 664 363 659T373 647Q377 640 379 633T381 617Q381 616 381 616T381 614Q381 613 381 613T381 611Q380 606 380 601T378 591Q377 588 377 586T376 581Q375 578 375 576T373 571Q373 570 373
570T373 568Q372 567 372 567T372 565Q372 564 372 564V563Q371 562 371 562V561Q368 547 366 533T361 505Q358 492 357 478T354 449Q354 447 354 445T353 441Q353 438 353 436T353 432Q353 428 353 424T353 414Q353 413 353 412T353 408Q353 407 353 406T353 402Q353
399 353 397T353 392Q352 389 352 387T352 382Q352 377 352 373T349 363Q347 354 343 347T331 333Q324 327 316 325T300 322Q299 322 298 322T296 322Q295 322 294 322T292 323Q291 323 290 323T288 323Q287 323 286 323T284 325Q274 328 267 334T257 349Q254 358
252 367T249 386Q249 389 249 392T249 398Q249 400 249 401T249 404Q249 405 249 406T249 409V409V410V410V410V410Q249 411 249 412Q249 435 247 457T241 502Q239 513 237 524T232 547Q230 558 228 569T223 591Q222 593 222 594T221 597Q221 598 221 598T221 600Q220
601 220 601T220 603Q220 604 220 605T219 607Q218 607 218 608T218 610Q218 612 218 614T218 618Q218 632 224 643T243 661Q255 669 268 673T296 679Q297 679 298 679T300 679Q301 679 302 679T304 679Q310 678 316 678T328 675Q334 674 339 672T350 668V668V668Z"
/>
<glyph unicode="(" glyph-name="parenleft" d="M425 601Q395 562 373 522T334 441Q318 399 311 357T303 272Q303 243 306 214T317 156Q325 128 336 99T362 40Q370 25 377 12T394 -15Q403 -28 413 -40T434 -66Q436 -68 438 -71T442 -78Q444 -81 445 -84T446 -92V-92V-92V-92Q446
-93 446 -94V-94V-95V-95V-95V-95V-96V-96V-96Q445 -102 442 -107T433 -117Q428 -121 422 -123T410 -125Q409 -125 408 -125T406 -125Q405 -125 404 -125V-125Q403 -124 402 -124V-124Q401 -124 400 -124V-124Q399 -123 398 -123V-123Q397 -122 396 -122T394 -121Q383
-115 373 -107T353 -89Q344 -79 336 -70T320 -50Q318 -47 316 -44T312 -38Q310 -35 308 -33T304 -28Q287 -6 272 18T245 68Q232 94 223 121T209 178Q208 184 207 190T205 202Q204 207 204 213T202 225Q201 231 201 237T200 249Q200 254 200 260T200 272Q200 316
208 359T232 442Q248 483 270 521T322 597Q324 600 326 604T333 612Q336 617 340 621T349 630Q354 635 359 640T370 651Q376 656 382 659T394 666Q396 667 398 667T403 669Q404 669 405 669T408 670Q409 670 410 670T412 670V670Q413 670 414 670Q414 669 414 669T416
669Q418 669 419 669T422 669Q423 668 424 668T426 667Q427 667 427 667T429 666Q429 665 429 665T431 664Q435 661 438 658T442 652Q444 649 445 646T446 640Q446 639 446 638V637Q445 636 445 635T445 633Q444 632 444 631T443 627Q442 626 441 625T440 621Q439
620 438 619T436 615Q434 612 432 609T428 604Q427 603 426 602V602V602V602L425 601V601V601V601Z" />
<glyph unicode=")" glyph-name="parenright" d="M176 601Q175 601 175 601T174 603Q173 604 173 605T172 607Q171 609 170 611T166 615Q165 617 164 619T160 625Q159 627 158 629T157 633Q156 635 156 637T156 641Q156 644 157 647T160 653Q161 655 162 656T164
659Q166 660 167 661T171 664Q172 664 172 664T174 666V666Q175 667 176 667Q177 667 177 667T179 668Q179 669 179 669T181 669H182Q182 669 183 670H184Q184 670 185 670Q186 670 186 670T188 671Q189 671 189 671T191 671Q198 671 204 669T218 661Q225 657 231
652T243 640Q245 637 247 634T253 628Q255 625 257 623T262 619Q295 582 320 541T365 456Q383 413 392 367T401 270Q401 267 401 264T401 259Q400 256 400 253T400 247Q400 244 400 241T400 236Q399 233 399 230T399 224Q399 223 399 222V222Q398 221 398 220V220Q398
219 398 218V218Q398 217 398 217T398 215Q393 169 380 125T343 39Q321 -2 293 -38T229 -106Q225 -109 222 -111T214 -116Q210 -118 207 -120T199 -123Q198 -123 198 -123T196 -124Q195 -124 195 -124T193 -124Q192 -124 192 -124T191 -125Q190 -125 190 -125T188
-125Q184 -125 181 -124T173 -121Q169 -119 166 -116T160 -107Q159 -105 158 -103T157 -99Q157 -98 156 -97V-96Q156 -95 156 -94T156 -92Q156 -86 157 -81T163 -70Q167 -65 171 -61T179 -51Q181 -50 182 -49T185 -45Q186 -44 187 -43T190 -39Q192 -36 194 -34T198
-29Q220 0 237 31T266 96Q272 113 277 129T286 162Q290 178 293 194T297 227Q297 230 297 232T298 238Q298 240 298 243T298 249Q298 252 298 254T299 260Q299 262 299 265T299 271Q299 313 291 355T268 439Q252 481 229 521T176 601V601V601Z" />
<glyph unicode="*" glyph-name="asterisk" d="M219 228Q215 224 212 222T205 217Q201 215 198 214T190 213Q188 213 186 213T182 214Q179 214 177 215T173 217Q169 219 165 221T155 228Q149 232 144 236T136 246Q132 251 131 256T129 268Q129 270 129 272T130
278Q130 280 130 281T132 284Q133 285 133 286T135 289Q138 291 141 293T147 299Q150 301 152 303T158 308Q160 310 162 312T168 317Q170 319 172 321T177 326Q179 328 181 330T186 335Q188 337 190 339T195 345Q200 350 204 354T213 364Q218 369 222 375T232 388Q234
391 237 393T244 397Q248 399 251 399T259 400Q263 400 267 399T275 395Q279 393 282 390T287 383Q288 382 288 381T289 377Q289 376 289 376T290 374Q290 373 290 373T290 371Q290 370 290 369T290 367Q289 365 289 364T289 362Q288 360 288 358T286 353Q285 349
283 346T278 339Q277 338 276 336T274 333Q273 331 272 330T270 326Q267 322 264 319T259 312Q257 309 256 306T252 300Q249 294 246 288T240 276Q237 270 234 264T229 252Q228 251 228 250T227 246Q226 245 226 244T224 240Q223 239 223 238T222 234Q221 233 221
232T219 228V228V228ZM467 289Q469 286 469 283T471 277Q472 274 472 272T473 267Q473 261 471 256T466 246Q462 241 458 237T447 227Q443 224 439 222T429 217Q425 215 421 214T411 213Q407 213 404 214T396 217Q392 219 389 221T382 227Q376 242 370 257T357
286Q350 300 342 314T324 341Q323 343 322 345T318 351Q317 353 316 355T314 361V362Q314 362 314 363Q313 364 313 364T313 366Q313 367 313 367T313 369V370Q313 370 313 371Q313 375 314 378T317 386Q319 389 323 392T331 397Q332 397 333 397T335 399L336 400Q337
400 338 400Q339 400 340 400T342 401H343Q344 401 345 401Q350 401 355 399T365 392Q370 388 374 384T382 374Q384 371 386 368T390 363Q391 362 392 361T394 358Q394 357 395 356T397 354Q403 347 410 340T424 326Q431 319 438 313T453 301Q455 300 456 299T459
295Q461 294 463 293T467 289V289V289ZM85 444Q78 447 74 451T66 459Q63 464 62 469T61 481Q61 483 61 485T61 489Q61 491 61 493T63 497Q63 498 63 499T63 501Q63 502 63 503T65 505Q68 513 72 520T81 533Q86 539 93 542T108 545Q109 545 110 545T112 545Q113
545 113 545T115 545Q115 544 115 544T117 544Q120 542 123 540T130 536Q133 534 136 532T142 528Q148 524 154 521T166 515Q173 511 179 508T193 502Q200 499 207 496T223 490Q225 489 227 488T232 486Q234 485 236 484T242 482Q247 480 250 477T257 469Q260 465
261 461T263 451Q263 450 263 449T263 447Q262 446 262 445T262 443Q262 442 262 441L261 440Q260 439 260 438T259 436Q257 432 254 429T247 423Q243 422 240 421T232 420Q231 420 230 420H229Q228 420 227 420T225 420Q223 420 222 420T218 422Q216 422 215 422T211
424Q210 424 209 424T208 425Q207 425 206 425T204 426Q203 426 202 426T201 427Q200 427 199 427T197 428Q195 428 194 428T190 430Q186 431 182 432T173 434Q168 435 164 435T155 437Q151 438 147 438T138 439Q133 440 129 440T120 441Q116 441 112 441T102 443Q100
443 98 443T94 444Q91 444 89 444T85 444V444V444ZM485 543Q486 543 486 543T488 543V543L489 544H490Q490 544 491 544H492Q492 544 493 544Q494 544 494 544T496 544Q504 544 510 541T522 533Q527 527 530 520T537 505Q538 501 538 498T540 491Q541 488 541 485T542
480Q542 474 541 469T536 459Q533 455 529 451T517 443Q501 442 485 441T453 437Q437 435 422 432T391 423Q390 423 390 422H389Q388 421 388 421T386 421Q385 421 384 421T382 421Q381 420 380 420T376 420Q375 420 374 420T372 420Q367 420 363 421T354 425Q350
427 347 431T341 442Q340 444 340 445T339 448Q339 450 339 451T339 454Q339 461 342 466T351 475Q356 478 362 481T375 487Q377 487 379 487T383 489Q385 490 387 490T391 492Q403 497 415 503T439 516Q451 522 462 529T485 543V543V543ZM249 639Q250 650 254
657T266 668Q274 673 282 675T301 677Q311 677 320 675T336 668Q344 664 348 657T354 639Q350 625 347 611T340 581Q337 566 336 552T334 523Q334 522 334 521V520Q334 519 334 518T334 516Q334 514 334 513T334 509Q333 502 332 496T327 484Q324 478 320 475T307
471Q306 471 306 471H305Q304 471 304 471H303Q302 470 302 470H301Q300 470 300 470H299Q290 470 284 473T275 484Q272 490 271 497T269 513Q269 514 269 515T269 517Q268 517 268 518T268 520Q268 522 268 524T268 528V528Q268 529 268 530Q268 531 268 532T268
534Q268 539 268 543T267 552Q267 556 267 560T265 569Q264 574 263 578T262 587Q261 591 260 595T258 604Q257 606 257 608T256 613Q255 615 255 617T253 621Q252 626 251 630T249 639V639V639Z" />
<glyph unicode="+" glyph-name="plus" d="M258 374V527V528Q258 528 258 529Q258 530 258 531T258 533V534Q258 534 258 535Q258 536 258 537T258 539Q258 543 258 547T259 555Q260 560 262 563T268 570Q271 573 274 575T281 579Q285 581 289 581T297 582V582V582H298Q298
582 299 582V582H300V582V582V582H301V582V582Q303 582 304 582T307 582Q309 581 310 581T313 581Q315 581 316 581T319 579Q320 579 321 579T324 577Q330 573 334 569T340 559Q342 553 343 547T344 535Q344 534 344 534T344 532Q344 531 344 530V530V374H494Q505
374 515 372T533 366Q541 362 545 354T550 335Q550 334 550 333V332Q549 331 549 330T549 328Q549 327 549 326T549 324Q548 323 548 322T548 320Q545 310 541 304T528 295Q521 293 513 292T496 291H344V137Q344 126 342 116T336 98Q332 90 324 86T301 81Q288 81
280 85T266 97Q262 105 260 114T258 134V291H108Q107 291 107 291T105 291Q104 291 104 291H103Q93 291 84 293T67 299Q60 303 56 311T52 332Q52 345 56 353T68 366Q76 370 85 372T105 374H258V374V374Z" />
<glyph unicode="," glyph-name="comma" d="M196 104Q195 126 202 143T224 172Q239 184 255 190T291 196H292Q292 196 293 196Q294 196 295 196T297 196Q317 195 334 187T368 162Q385 146 393 122T401 65Q401 43 397 23T384 -16Q376 -36 366 -54T341 -88Q339 -90
337 -92T333 -98Q331 -100 329 -102T324 -108Q316 -116 307 -124T288 -139Q278 -146 268 -149T246 -154V-154V-154H245V-154V-154V-154V-154V-154H244V-154V-154V-154Q237 -154 232 -152T223 -147Q219 -143 217 -139T215 -128Q215 -127 215 -127T215 -125Q215 -124
215 -124T215 -122Q215 -118 217 -114T223 -104Q227 -99 231 -94T240 -84Q240 -83 240 -83T242 -82Q242 -81 242 -81T244 -79Q245 -78 246 -77T248 -75Q253 -71 256 -67T264 -58Q268 -54 271 -50T277 -43Q281 -37 284 -33T288 -23Q290 -19 290 -16T291 -9Q291 -4
289 -1T283 7Q281 9 279 10T274 14Q272 15 270 17T264 20Q263 21 262 21T259 23Q257 23 256 23T254 25Q253 26 252 26T249 28Q247 29 246 30T243 32Q234 37 227 43T211 58Q204 66 200 77T196 104V104V104Z" />
<glyph unicode="-" glyph-name="hyphen" d="M437 289Q452 289 463 286T483 274Q491 267 495 259T500 243Q500 242 500 242V241V241V241V240V240Q500 230 496 222T484 205Q476 197 464 193T437 189L165 190Q149 190 138 194T118 205Q111 213 107 221T103 240Q103
249 107 258T118 274Q126 282 137 286T165 290L437 289V289V289Z" />
<glyph unicode="." glyph-name="period" d="M204 85Q204 109 211 127T234 158Q249 170 266 176T302 182Q320 182 336 176T368 158Q383 146 390 128T398 85Q398 61 390 43T367 14Q352 3 335 -2T300 -8Q282 -8 266 -3T234 14Q219 26 212 43T204 85V85V85Z" />
<glyph unicode="/" glyph-name="slash" d="M248 -47Q247 -48 247 -50T245 -55Q245 -57 245 -58T244 -61Q243 -62 243 -63T243 -66Q240 -75 236 -83T227 -99Q223 -107 216 -111T199 -115V-115V-115H198V-115V-115V-115V-115V-115H197V-115V-115V-115Q196 -115 196
-115H195Q194 -115 194 -115T192 -115Q191 -115 190 -115V-115Q189 -114 188 -114V-114Q180 -112 174 -109T165 -100Q161 -95 160 -89T158 -77Q158 -76 158 -76V-75V-75V-75V-74V-74Q158 -73 158 -72V-71Q158 -70 158 -69T158 -67Q158 -66 158 -65T159 -61Q159
-57 159 -54T161 -47Q162 -44 162 -41T164 -35L354 707V708Q354 708 355 709Q355 710 355 710T355 712Q355 713 355 713T356 715V716Q356 716 356 717V718Q356 718 356 719V719L357 720V720V721Q359 728 360 734T364 747Q366 753 370 758T380 768Q382 770 385 771T391
774Q394 775 397 775T405 776Q406 776 407 776T409 776H410Q410 776 411 776Q411 775 411 775T413 775Q415 775 417 775T421 773Q423 772 425 772T429 770Q434 767 437 764T441 756Q442 754 442 752T444 748Q444 745 444 743T445 739Q445 738 445 737T445 733Q445
732 445 732V731Q444 730 444 730T444 728Q443 725 443 723T442 718Q441 716 441 714T440 709Q439 708 439 707T438 703Q438 702 438 702V701Q437 700 437 700T437 698L248 -47V-47V-47Z" />
<glyph unicode="0" glyph-name="zero" d="M510 150Q496 112 476 81T430 23Q404 -1 373 -13T304 -26Q296 -26 288 -26T272 -23Q265 -22 257 -20T240 -16Q197 -3 166 24T114 95Q95 137 84 182T69 277Q68 283 68 289T67 303Q67 309 67 315T67 329Q67 349 68 368T71
407Q73 426 75 443T82 476Q82 478 82 480T84 484Q84 486 84 488T86 492Q94 522 107 551T139 608Q158 635 183 654T240 683Q244 684 247 685T255 687Q259 688 263 688T271 690Q273 690 274 690T278 691Q280 691 282 691T286 691Q288 691 290 691T294 692Q295 692
297 692T301 692Q321 692 340 688T378 676Q397 669 413 658T444 631Q465 609 481 580T508 515Q519 480 525 444T535 369Q535 366 535 363T535 358Q535 355 535 352T535 346Q535 343 535 340T536 335Q536 332 536 330T536 324Q536 300 534 277T529 231Q526 209 521
189T510 150V150V150ZM424 170Q428 184 431 202T436 241Q438 262 439 284T440 331Q440 333 440 335T440 340Q439 342 439 344T439 348Q439 350 439 352T439 357Q439 359 439 361T439 365Q438 397 434 427T425 485Q419 514 411 537T392 576Q384 587 374 596T351
612Q339 618 327 621T300 625Q295 625 290 625T280 623Q278 622 276 622T271 620Q268 619 266 619T261 617Q242 608 227 595T203 564Q193 546 187 527T176 488Q175 487 175 485T174 482Q173 480 173 479T173 475Q173 474 173 472T172 469Q171 467 171 466T171 462Q170
454 169 446T167 430Q166 421 166 413T164 397Q163 381 163 365T162 331Q162 315 162 299T164 267Q166 251 167 235T171 203Q171 199 171 195T173 187Q174 183 175 179T177 171Q181 152 187 134T204 98Q213 81 227 68T261 47Q266 45 271 44T281 41Q286 40 291 40T301
39Q302 39 302 39T304 39V39Q305 39 306 39Q307 39 307 39T309 39L310 40Q310 40 311 40Q312 40 313 40T315 40Q316 40 316 40T318 41Q319 41 319 41T321 41Q343 46 359 56T387 84Q398 101 406 119T420 157Q420 159 420 160T422 163Q422 164 422 165T423 167L424
168Q424 169 424 170V170V170Z" />
<glyph unicode="1" glyph-name="one" d="M460 63Q468 63 474 61T485 53Q489 49 491 44T493 33Q493 32 493 32V31V31V31V30V30Q492 24 490 19T482 9Q478 5 471 3T455 0H193Q185 0 178 2T166 8Q160 12 158 17T155 29Q155 31 155 33T156 37Q156 39 157 41T159 46Q161
50 163 53T169 57Q172 59 176 60T184 62Q187 62 189 62T195 63Q197 63 199 63T205 63Q210 63 215 63T227 63Q229 63 231 63T237 63Q239 63 240 63T243 63Q244 63 245 63T248 63Q250 63 252 63T258 63Q260 63 261 63T264 63Q265 63 266 63T269 63V608Q268 608 268
608T265 608Q264 608 263 608T261 608Q260 608 259 608T257 608Q256 608 256 608T254 608Q250 608 247 608T240 608Q236 608 233 608T225 608Q218 608 211 609T196 612Q189 614 184 617T177 624Q176 625 176 625T175 627Q174 628 174 629T174 631Q173 632 173 632T173
634Q173 635 173 636T173 638Q173 643 175 648T181 657Q186 662 190 665T201 670L206 671Q210 672 220 673Q230 675 240 677T263 681Q268 682 273 683T283 685Q288 685 293 686T302 688Q311 690 317 691T324 692V692H325V692V692H326Q326 692 327 692V692V692H328Q328
692 329 692Q338 692 344 690T353 682Q356 678 358 671T360 654V63H460V63V63Z" />
<glyph unicode="2" glyph-name="two" d="M188 581Q188 580 188 579T188 577Q188 576 188 576V575Q188 574 188 572T188 569Q188 567 188 566T188 562Q188 561 188 559T188 556Q188 554 188 553T188 549Q187 542 186 535T183 522Q181 515 178 510T169 500Q166 497
163 495T157 491Q153 490 150 490T142 489Q140 489 138 489T133 490Q131 490 129 491T124 493Q118 495 114 499T108 508Q105 513 104 518T103 530Q103 535 103 539T105 548Q106 553 107 558T111 568Q113 574 116 580T123 594Q126 600 129 606T137 618Q139 620 140
622T144 627Q145 629 147 631T150 635Q152 637 153 638T156 642Q157 643 158 644T161 647Q174 658 188 667T219 682Q235 688 251 692T284 697Q286 697 287 697T290 697Q292 697 293 697T296 697Q331 697 363 685T425 650Q454 626 469 592T484 514Q484 491 480 469T466
427Q457 406 446 387T419 351Q413 344 407 337T396 323Q390 316 384 309T372 295Q366 288 360 282T348 268Q341 261 335 255T323 241Q323 240 322 240V239Q321 238 321 238T320 236Q319 235 318 234T316 232Q307 222 298 212T280 192Q271 182 263 173T246 153L175
72H450Q453 81 457 88T466 100Q471 105 476 108T487 113V113L488 114V114Q489 114 490 114Q491 114 491 114T493 114V114V114H494Q494 114 495 114Q500 114 503 112T510 106Q513 102 515 96T517 82Q517 81 517 80V80V79V79Q517 78 517 78V77Q517 76 517 76V75Q515
50 511 35T500 13Q493 7 479 4T442 1L118 0Q111 0 106 1T95 6Q91 9 88 15T84 28V28Q84 29 84 30V30Q84 31 84 32Q83 32 83 32T83 34V34Q83 35 83 36Q83 44 86 52T93 68Q95 72 97 75T103 83Q105 86 108 89T114 97Q116 99 118 101T122 107Q124 109 126 111T131 117L278
292Q281 295 284 298T290 306Q292 308 293 309T296 313Q297 314 298 316T301 320Q316 337 330 355T357 393Q370 413 379 434T392 477Q393 482 393 486T395 495Q395 497 395 499T396 505Q396 507 396 509T396 515Q396 529 394 541T387 567Q383 579 375 589T356 609Q349
615 341 619T324 626Q315 629 307 630T290 632Q276 632 263 629T235 618Q222 611 210 602T188 581V581V581Z" />
<glyph unicode="3" glyph-name="three" d="M392 380Q412 368 430 355T464 324Q479 308 489 288T505 243Q505 240 505 237T507 232Q507 229 507 226T508 220Q509 214 509 208T510 196Q509 177 506 158T497 120Q491 101 482 85T460 53Q442 32 420 17T370 -7Q343
-17 315 -22T258 -27Q239 -27 221 -25T184 -19Q166 -15 149 -10T116 3Q109 7 103 11T92 19Q88 24 84 28T78 37Q77 39 76 41T75 45Q74 47 74 49T74 54Q74 60 76 65T83 74Q88 79 94 81T108 83Q109 83 110 83T113 83Q115 82 116 82T119 82Q122 81 125 81T132 78Q140
75 146 72T158 66Q161 65 164 64T170 60Q172 59 175 58T181 55Q189 51 196 48T213 43Q221 41 232 40T256 38Q257 38 257 38T259 38Q260 38 260 38T262 38V38Q263 38 264 38Q265 38 266 38T268 38Q288 38 307 43T344 58Q362 68 376 82T401 114Q406 123 409 132T416
152Q418 163 419 173T421 195Q421 196 421 197T421 199Q421 200 421 201T421 203Q420 230 411 255T386 303Q370 326 347 337T295 348Q294 348 294 348H293H292V348Q291 348 290 348V348Q289 348 288 348V348Q287 348 286 348H285Q284 347 283 347T281 347Q280 347
279 347T275 347Q274 347 274 347T272 347Q271 347 270 347V347Q269 347 268 346V346Q267 346 267 346T265 346Q264 346 263 346T261 346Q257 346 253 347T245 349Q241 351 238 353T233 359Q232 360 232 361T231 363Q230 363 230 364T230 366Q229 368 229 370T229
374Q229 380 231 385T239 394Q244 399 250 401T263 404Q265 404 267 404T272 404Q274 404 276 404T281 406Q296 408 310 411T338 421Q352 426 362 436T380 463Q382 468 384 474T388 486Q389 489 389 492T390 499Q391 502 391 505T392 511Q392 512 392 513T392 515V516Q392
517 392 518Q392 520 392 521T392 524Q392 531 392 537T389 551Q388 558 386 564T382 577Q376 591 367 601T346 619Q334 627 321 631T293 635Q292 635 292 635H291V635V635H290V635Q277 634 266 631T245 623Q235 617 226 610T209 595Q210 592 210 589T211 583Q211
582 211 581T212 578Q212 576 212 575T212 573Q212 561 209 552T197 535Q190 528 179 524T154 520Q147 520 140 522T128 531Q123 536 120 542T115 556V556Q115 557 115 558Q114 558 114 558V559V560Q114 561 114 562V562Q114 563 114 564Q114 565 114 565T114 567Q114
576 116 585T125 603Q130 611 136 618T149 633L150 634Q150 634 151 635Q152 636 152 636T154 638Q167 649 182 658T215 674Q233 681 251 685T288 690Q289 690 290 690T292 691Q293 691 294 691T296 691Q298 691 300 691T304 691Q327 691 349 686T394 671Q415 661
431 646T460 609Q464 602 467 594T472 578Q474 570 475 562T478 545Q478 544 478 543T479 541Q479 540 479 539T479 537Q479 536 479 535T479 531Q479 521 478 511T474 491Q472 481 469 472T462 455Q456 443 449 433T432 413Q423 404 413 396T392 380V380V380Z"
/>
<glyph unicode="4" glyph-name="four" d="M449 18Q449 8 447 2T440 -9Q436 -14 428 -16T409 -18Q398 -18 390 -16T377 -9Q372 -5 370 1T367 18V148H112Q102 148 95 149T85 155Q82 159 81 165T79 179Q79 181 79 182T79 185Q79 187 79 188T79 191Q79 193 79 195T79
200Q79 202 79 204T79 209Q78 211 78 213T78 218Q78 220 78 222T78 227Q78 232 78 237T79 249Q79 254 80 259T84 270Q85 273 86 276T89 282Q91 284 92 287T95 293Q97 296 98 299T101 305Q103 307 104 310T108 316V316V317V317V317V317L109 318Q111 321 113 324T117
332Q119 336 121 339T125 347Q130 358 135 368T146 390Q151 401 156 412T167 434Q169 437 170 440T173 448Q174 450 175 452T177 456Q177 457 178 459T180 463Q182 467 183 471T187 479Q188 482 190 486T193 494Q195 498 196 502T200 510Q201 513 203 517T207 525Q214
541 220 556T234 588Q241 604 247 619T261 651Q261 653 261 654T263 657Q263 658 263 658T265 660H266Q266 661 266 662V662Q266 663 267 664V664Q267 665 267 666Q267 667 267 668T269 670Q270 672 271 674T273 680Q274 682 275 684T277 689Q278 691 279 693T282
699Q283 701 284 703T287 708Q289 712 292 715T300 719Q304 721 308 721T317 722H318Q318 722 319 722Q320 722 320 722T322 722Q330 721 336 718T349 710Q355 706 358 699T361 684V684V684V683V683V683V683V683V683V682V682V682V682V682V682V681V681V681V681V680V680Q361
679 361 678V678V678V678Q360 668 352 648T330 596Q316 565 300 532T266 463Q265 460 264 457T260 451Q259 448 258 446T254 441Q238 410 224 382T195 328Q182 303 172 284T155 254V219H367V398Q367 409 370 416T379 429Q385 434 392 436T409 439Q410 439 411 439T414
439Q416 438 417 438T420 438Q423 437 426 437T432 435Q437 434 440 431T444 424Q445 422 445 420T447 416Q448 413 448 411T449 407Q449 406 449 406T449 404Q449 403 449 403T449 401V219Q452 219 455 219T461 219Q464 219 467 219T473 219Q483 219 492 218T509
213Q517 210 521 203T527 183V183V183V182V182V182V182V182V182V181V181V181V181Q527 171 524 164T513 154Q506 151 498 149T482 147Q481 147 481 147T479 147Q478 147 478 147H477Q475 147 473 147T469 147Q468 147 467 147H466Q465 147 464 147T462 148Q461 148
460 148H459Q458 148 457 148T455 148Q454 148 453 148T449 148V18V18V18Z" />
<glyph unicode="5" glyph-name="five" d="M141 619Q142 630 146 640T157 661Q165 671 175 676T198 681H376Q378 681 381 681T387 682Q389 682 390 682T394 683Q395 683 397 683T400 684Q401 684 401 684T403 684H404Q404 684 405 684Q406 684 407 684T409 685Q411
685 413 685T418 685Q419 685 420 685T423 686Q424 686 425 686T427 686Q433 686 439 685T450 681Q455 678 459 674T465 662Q465 661 465 661T465 659V658Q465 658 466 658V657V657Q466 656 466 656T466 654Q466 653 466 652V652Q466 648 466 644T463 636Q462 632
460 629T455 623Q451 619 446 617T436 613Q431 612 426 612T414 612V612V612H413V612Q412 612 412 612H411L215 611L200 444Q213 447 225 450T251 455Q263 457 275 458T301 459Q322 459 342 456T381 444Q400 437 417 425T450 394Q464 378 474 360T492 321Q498 301
501 281T505 239Q505 238 505 237T505 235Q505 234 505 234T505 232Q504 202 497 174T476 118Q463 90 445 68T403 28Q384 15 364 5T321 -12Q299 -20 277 -24T231 -30Q230 -30 229 -30T225 -31Q224 -31 223 -31T219 -31Q216 -31 213 -31T207 -31Q206 -31 205 -31T203
-31Q202 -31 202 -31T200 -31Q198 -31 196 -31T191 -31Q188 -31 186 -31T181 -31Q179 -31 177 -31T172 -31Q170 -30 168 -30T163 -30Q154 -30 145 -30T127 -27Q118 -26 110 -23T94 -17Q87 -14 82 -11T72 -2Q68 1 65 6T59 16Q58 18 58 20T57 24Q56 26 56 28T56 32Q56
37 58 42T64 51Q68 56 74 58T89 60V60H90V60V60V60Q91 60 92 60V60Q93 60 94 60V60Q95 60 96 60V60H97H98Q98 60 99 60Q104 59 109 59T120 57Q123 56 125 56T131 55Q133 54 136 54T142 52V52Q143 52 144 52Q144 51 144 51H145H146Q146 51 147 51Q147 50 147 50T149
50Q156 49 163 48T177 44Q184 43 191 42T206 40Q207 40 207 40T209 40Q210 40 211 40T213 40H214Q215 40 216 40Q217 40 217 40T219 40Q236 40 253 42T288 51Q305 56 320 65T349 86Q363 98 374 113T394 147Q402 165 407 184T414 222Q414 223 414 224T414 226V227Q414
228 414 229Q414 231 414 233T414 237Q414 254 411 269T402 301Q396 316 387 330T365 356Q359 361 353 365T341 373Q338 375 335 376T330 379Q327 381 324 382T318 385Q312 387 306 388T294 390Q288 391 282 391T270 392Q262 392 255 392T239 389Q235 388 232 388T224
387Q220 386 217 386T210 384Q203 383 197 382T185 378Q179 377 174 377T163 376V376V376H162V376V376V376H161V376Q154 376 149 377T140 383Q136 387 134 394T132 413Q132 414 132 415T132 417Q132 418 132 419T132 421L141 619V619V619Z" />
<glyph unicode="6" glyph-name="six" d="M175 376Q180 379 184 382T193 388Q195 390 197 391T202 394Q204 395 206 396T210 399Q217 403 223 406T237 412Q243 415 249 417T263 421Q277 425 289 427T315 429V429V429H316Q316 429 317 429V429H318V429V429V429H319V429V429Q357
429 390 415T451 371Q479 343 492 304T506 216Q506 212 506 209T506 201Q506 199 506 197T506 194Q505 192 505 190T505 186Q501 141 485 104T438 35Q408 4 372 -10T294 -25Q287 -25 281 -25T266 -23Q259 -22 252 -21T238 -18Q198 -8 169 13T123 69Q107 104 97
141T84 219Q83 225 83 231T82 243Q82 249 82 255T82 267Q82 279 82 291T83 315Q84 326 85 337T88 359Q96 421 117 476T176 581Q213 630 261 664T371 717Q374 718 378 718T387 720Q392 721 396 721T406 722Q415 722 423 720T439 714Q447 710 450 704T454 690V690V690V689V689V689V689V689V689V688V688V688V688Q454
687 454 687T454 685Q454 684 454 684V683Q454 682 454 682V681L453 680V680Q453 679 453 679T453 677Q452 674 451 671T446 666Q443 664 440 662T431 658Q421 653 407 647T376 635Q359 628 341 619T305 595Q286 580 267 561T230 515Q212 490 199 455T175 376V376V376ZM179
199Q180 159 189 130T216 80Q234 61 253 51T295 41Q317 41 337 51T375 82Q393 103 402 134T411 206Q411 244 403 272T377 320Q360 338 341 347T300 357Q299 357 298 357T296 357Q295 357 294 357T292 357Q271 355 252 345T214 314Q196 295 188 267T179 204Q179
203 179 202V202Q179 201 179 201T179 199V199V199Z" />
<glyph unicode="7" glyph-name="seven" d="M269 4Q265 -3 261 -9T252 -21Q248 -26 242 -28T228 -31Q225 -31 222 -31T216 -29Q213 -28 210 -27T202 -24Q195 -20 191 -17T183 -9Q182 -8 181 -7T180 -3Q179 0 179 2T178 8Q178 11 178 14T179 22Q180 25 181 28T184
36L413 597H126Q118 597 112 600T102 609Q98 615 97 622T95 637Q95 645 97 651T103 664Q107 670 113 673T126 677H462Q476 676 485 673T499 664Q504 658 507 651T510 635Q510 631 510 628T508 620Q507 616 507 613T504 605Q503 603 503 601T502 597Q502 596 502
595L501 594Q500 593 500 592T499 590L269 4V4V4Z" />
<glyph unicode="8" glyph-name="eight" d="M223 350Q194 362 171 377T130 412Q113 432 105 456T96 512Q96 513 96 514T96 516V517Q96 518 96 519Q96 521 96 523T97 527Q97 529 97 530T97 533Q97 534 97 535T98 537Q98 538 98 539T98 541Q103 579 120 607T168 654Q198
673 231 683T299 694Q300 694 300 694T302 694Q303 694 304 694T306 694Q346 694 380 683T443 649Q472 627 486 595T501 520Q501 489 493 466T467 425Q450 409 429 395T383 368Q415 353 441 336T486 298Q506 278 516 249T526 180Q526 131 509 93T458 28Q424 2 385
-12T299 -27Q259 -27 222 -17T152 14Q119 35 99 66T72 141Q71 145 71 148T70 156Q70 159 70 162T70 170Q70 205 81 232T115 282Q138 303 165 320T223 350V350V350ZM291 322Q290 322 290 322L289 321Q288 320 288 320T286 320Q285 319 284 319T282 318Q256 308 235
295T196 268Q179 253 171 229T162 172Q162 141 172 117T201 73Q221 54 245 45T299 35Q300 35 301 35T303 35Q304 35 305 35T308 35Q309 35 310 35T312 35V35Q313 35 314 36V36Q315 36 316 36Q345 39 367 50T406 81Q422 100 430 123T438 175Q438 176 438 176T438
178Q438 179 438 180T438 182V183Q438 184 438 185Q438 186 438 186T438 188Q435 217 424 238T393 272Q374 285 353 296T308 316Q307 316 307 316T305 316H304Q304 316 304 317H303V317Q302 318 301 318T297 320Q296 320 295 320T291 322V322V322ZM312 392Q314
393 316 394T320 396Q321 396 322 396T324 398H325Q326 399 327 400Q344 408 358 418T385 438Q398 449 405 465T415 503Q415 504 415 504T415 506Q415 507 415 507T416 509Q416 510 416 510T416 512Q416 513 416 514T416 516Q416 536 411 554T394 588Q384 605 368
614T331 628Q327 629 324 629T316 630Q314 630 312 630T309 631Q307 631 305 631T301 631Q278 630 257 624T217 603Q198 590 189 570T179 524Q179 496 189 475T218 439Q238 425 259 414T304 395Q305 394 306 394T308 393V393Q309 393 310 393Q310 392 310 392T312
392V392V392Z" />
<glyph unicode="9" glyph-name="nine" d="M412 289Q411 288 409 287T406 284Q404 283 403 282T399 280Q396 278 393 276T387 272Q371 262 356 255T325 243Q309 239 294 237T265 234Q226 234 193 248T132 293Q104 322 91 361T78 448Q78 451 78 454T78 462Q78 466
78 469T79 477Q84 529 103 569T154 637Q186 666 221 680T293 694Q334 694 370 676T441 621Q474 585 490 528T507 390Q507 380 507 371T505 350Q504 340 504 329T502 307Q494 238 470 180T404 71Q364 22 308 -6T180 -42Q179 -42 178 -42T176 -43Q175 -43 175 -43T173
-43Q172 -43 171 -43T167 -43Q155 -43 146 -40T128 -31Q121 -25 117 -19T113 -5Q113 -4 113 -3T113 -1V0L114 1V2Q115 2 115 3Q116 4 116 5T118 7Q118 8 118 8T120 10Q121 10 121 10T123 12Q124 13 125 13T127 15Q129 15 130 15T133 17Q136 19 139 20T147 23Q155
25 165 28T188 34Q200 37 212 41T237 50Q242 52 247 54T258 60Q263 62 268 65T279 71Q308 89 330 112T367 166Q382 195 393 226T412 289V289V289ZM408 465Q407 506 398 536T371 585Q353 605 334 614T293 624Q292 624 292 624T290 624Q289 624 289 624T287 624Q266
623 247 612T210 580Q192 559 184 530T176 463Q176 457 176 451T177 439Q177 436 177 433T178 427Q178 423 178 420T180 414Q184 386 193 366T218 333Q233 320 249 314T284 307V307Q285 307 286 307Q287 307 288 307T290 307Q312 309 332 319T371 349Q389 369 398
396T408 458V458Q408 459 408 460V460Q408 461 408 462V462V463V464Q408 464 408 465V465V465Z" />
<glyph unicode=":" glyph-name="colon" d="M209 77Q209 100 216 116T237 144Q251 155 266 161T298 168V168H299V168V168H300Q300 168 301 168Q318 168 334 162T364 145Q378 133 385 117T392 77Q392 55 385 38T363 10Q349 0 333 -5T300 -11Q299 -11 298 -11V-11V-11V-11H297V-11Q281
-10 266 -5T236 11Q223 22 216 38T209 77V77V77ZM209 373Q209 396 216 412T237 440Q251 451 266 457T298 464V464H299V464V464H300Q300 464 301 464Q318 464 334 458T364 441Q378 429 385 413T392 373Q392 351 385 334T363 305Q349 294 333 289T300 283Q299 283
298 283V283V283V283H297V283Q281 283 266 289T236 306Q223 317 216 334T209 373V373V373Z" />
<glyph unicode=";" glyph-name="semicolon" d="M201 95V95V96V96V96V96Q201 97 201 98Q201 118 208 134T229 161Q243 172 258 177T291 183H292Q292 183 293 183Q294 183 295 183T297 183Q315 182 331 174T364 151Q379 136 387 113T395 59Q394 37 389 16T375 -26Q366
-46 354 -65T327 -100Q326 -102 325 -103T321 -106Q320 -107 320 -107T319 -109Q318 -110 318 -110T316 -112Q309 -119 301 -125T283 -138Q274 -144 265 -147T246 -150Q240 -150 236 -148T227 -143Q223 -140 221 -136T219 -126V-126V-126V-125V-125V-125V-125V-125V-125V-124V-124V-124V-124Q219
-123 219 -122V-122V-122V-122Q219 -121 219 -120V-120V-120V-120V-119V-119Q219 -117 219 -115T221 -111Q222 -108 223 -106T226 -102Q229 -98 233 -94T241 -84Q241 -83 241 -83T243 -82Q243 -81 243 -81T245 -79Q247 -78 248 -77T251 -74Q255 -70 258 -66T266
-57Q270 -53 273 -50T278 -43Q281 -38 284 -34T288 -25Q290 -21 290 -18T291 -12Q291 -7 289 -4T284 3Q280 6 276 9T266 15Q265 16 264 16T261 18Q259 18 258 18T256 20Q253 22 251 23T246 26Q237 31 230 37T215 51Q208 59 205 69T201 95V95V95ZM209 375Q209 398
216 415T238 443Q252 454 268 460T301 466Q318 466 333 460T363 443Q377 432 384 415T391 375Q391 353 384 336T363 307Q349 296 333 291T300 285Q283 285 267 290T237 307Q223 318 216 335T209 375V375V375Z" />
<glyph unicode="&lt;" glyph-name="less" d="M84 381L472 559Q474 560 476 561T482 563Q484 564 487 565T493 567Q495 567 497 567T503 569Q504 569 505 569T508 570Q509 570 510 570T513 570Q518 570 522 569T531 564Q535 561 538 556T542 542Q542 541 542 541T543
540Q543 539 543 539T543 537Q543 536 543 535T543 533Q543 532 543 532V531Q543 530 543 530V529Q543 520 540 513T531 501Q525 496 518 492T503 483L162 333L503 182Q511 178 518 174T531 164Q537 158 540 151T543 136Q543 135 543 135T543 133Q543 132 543 131V130Q543
129 543 128V128Q542 127 542 126V126Q542 125 542 125T542 123Q541 115 538 110T531 101Q527 98 523 97T514 95Q513 95 512 95V95V95V95H511V95Q510 95 508 95T505 95Q503 95 502 95T498 96Q497 96 495 96T492 98Q490 98 489 98T485 100Q484 100 483 100T482 102Q481
102 480 102T478 103Q477 104 476 104T472 106L84 287V287Q83 287 83 288Q82 288 82 288H81Q80 288 80 288T78 290Q77 290 77 290T76 291Q75 291 74 291V291Q73 291 72 291T70 293Q63 296 57 300T45 308Q39 313 37 319T34 334Q34 342 37 349T46 360Q52 365 58 368T72
375V375L73 376V376V376H74Q74 376 75 377Q76 377 77 377T79 379Q80 379 80 379T82 380V380Q83 381 84 381V381V381Z" />
<glyph unicode="=" glyph-name="equal" d="M108 208Q97 208 87 209T69 215Q60 218 56 227T52 250Q52 264 56 272T68 284Q76 287 85 289T105 291H494V291H495V291V291H496Q496 291 497 291V291H498V291H499V291V291Q502 291 505 291T512 290Q515 290 518 290T524
288Q530 287 534 283T543 272Q544 271 544 269T546 264Q547 262 547 260T548 256Q548 255 548 255T549 254Q549 253 549 252V252Q549 251 549 250T549 248Q549 247 549 247T549 245Q549 244 549 244V243V242V242Q548 241 548 240V240Q548 239 548 238V238Q546 228
542 221T529 212Q522 210 514 209T496 208H108V208V208ZM108 373Q97 373 87 374T69 380Q61 383 57 392T52 415Q52 429 56 437T68 449Q76 452 85 454T105 456H494Q505 456 515 454T533 448Q541 444 545 436T550 417Q550 416 550 415V414Q549 413 549 412T549 410Q549
409 549 408T549 406Q548 405 548 404T548 402Q546 392 542 386T529 377Q522 375 514 374T496 373H108V373V373Z" />
<glyph unicode="&gt;" glyph-name="greater" d="M492 381Q493 380 494 380T496 379Q497 379 497 379T499 378Q499 377 499 377T501 377V376Q501 376 502 376V376V376V376H503Q503 375 504 375V375Q511 372 517 369T530 360Q536 356 539 349T542 334Q542 325 539
319T530 307Q524 303 518 299T504 292Q503 292 502 292V292Q501 291 500 291V291Q499 290 498 290V290Q497 289 496 289T494 288V288H493L492 287V287L104 106Q102 105 100 104T96 102Q95 102 94 102L93 101Q92 100 91 100T89 100Q86 99 83 98T77 96Q74 95 72 95T67
95Q66 95 66 95H65V95V95H64V95Q59 95 55 96T45 101Q41 104 39 109T34 123Q33 125 33 126T33 129Q33 131 33 132T33 135Q33 144 35 151T44 164Q50 169 57 173T74 182L414 333L74 483Q66 487 59 491T45 501Q39 506 36 512T33 528V528V528V528V529V529V529V529V529V529V530V530V530Q33
532 33 533T33 536Q33 538 33 539T34 542Q36 550 38 555T45 564Q50 567 54 568T64 570Q65 570 66 570T69 570Q71 569 72 569T75 569Q77 569 78 569T82 567Q83 567 85 567T88 565Q90 564 92 564T96 562Q98 561 100 561T104 559L492 381V381V381Z" />
<glyph unicode="?" glyph-name="question" d="M203 59Q203 79 209 95T228 121Q241 132 255 137T285 143V143H286V143V143V143Q287 143 288 143Q304 143 318 138T345 122Q358 112 364 96T371 60Q371 39 365 24T344 0Q331 -11 317 -16T286 -21Q285 -21 284 -21V-21V-21V-21H283V-21Q268
-20 254 -15T228 0Q215 9 209 24T203 59V59V59ZM283 187V187V187H282V187V187V187V187V187H281V187V187V187Q272 187 265 189T253 197Q247 202 244 209T238 224Q237 226 237 228T236 234Q236 236 236 237T235 240Q235 241 235 242T235 245V245V246V246V246V246Q235
247 235 248V248V248V248Q235 249 235 250Q235 263 237 275T246 301Q251 314 257 325T271 347Q276 353 280 360T291 374Q297 381 303 388T315 404Q326 418 336 434T357 466Q367 483 372 499T377 532Q377 539 376 546T372 560Q371 564 370 567T366 575Q364 578 362
581T358 589Q354 595 349 599T336 608Q332 610 329 611T322 613Q318 614 315 615T307 616Q306 616 306 616T305 617Q304 617 304 617T302 617Q301 617 300 617T298 617Q297 617 296 617V617V617V617H295V617Q285 617 275 615T255 607Q246 602 240 594T231 575Q230
574 230 573T229 571Q229 570 229 569T229 567Q229 566 229 565T229 562Q229 561 229 560T229 558Q229 556 229 554T229 550Q229 549 229 548T230 546Q230 545 230 544T230 542Q230 541 230 541T231 540Q231 539 231 538V538Q231 537 231 536T232 534Q232 531 232
528T233 522Q233 521 233 520T234 516Q234 515 234 514T234 510Q234 504 233 499T228 488Q225 483 219 479T204 472Q200 471 197 470T190 468Q186 467 183 467T177 467Q165 467 157 471T144 485Q139 494 137 504T134 527Q134 529 134 531T134 537Q134 539 134 540T135
543Q135 544 135 545T135 548Q137 556 138 563T142 578Q144 586 147 592T154 604Q165 623 181 637T217 661Q237 670 258 675T302 680V680Q303 680 304 680V680H305V680V680Q334 679 360 671T412 646Q437 630 451 607T470 552Q470 550 470 549T471 545Q471 544 471
543T471 539Q471 538 471 537T472 533Q472 532 472 531T472 527Q472 502 466 482T447 445Q435 429 422 414T394 384Q392 382 390 381T386 377Q385 376 385 375T383 374Q382 373 382 372T380 370Q371 361 363 352T346 334Q339 325 333 316T323 295Q321 289 320 283T318
271Q317 264 317 258T317 244Q316 233 315 223T311 205Q308 196 301 192T283 187V187V187Z" />
<glyph unicode="@" glyph-name="at" d="M440 469Q440 471 440 473T440 479Q440 481 440 482T440 485Q440 486 440 487T440 490Q440 491 440 491T440 493V494Q440 494 440 495Q440 496 440 496T440 498V498Q440 499 440 500Q439 517 437 532T432 564Q428 580 420
594T400 620Q392 628 383 634T363 644Q358 646 353 647T343 650Q337 651 332 651T322 652Q312 652 302 650T283 645Q273 641 264 636T247 624Q222 602 203 570T169 493Q156 449 149 403T143 308Q143 254 151 204T177 105Q194 57 221 26T285 -23Q295 -28 304 -31T324
-37Q329 -38 333 -38T343 -40Q347 -40 352 -40T361 -41Q372 -41 381 -40T401 -37Q410 -35 419 -33T437 -29Q446 -27 454 -25T469 -21Q477 -19 483 -18T495 -17Q501 -17 506 -18T514 -24Q517 -27 519 -33T521 -48V-48V-48V-48V-49V-49V-49V-49V-49Q521 -60 517 -67T504
-79Q496 -84 487 -87T468 -94Q463 -95 458 -95T448 -97Q444 -98 440 -98T432 -100Q425 -101 418 -101T402 -103Q395 -104 388 -104T372 -105Q354 -105 337 -103T302 -97Q285 -93 269 -87T237 -72Q197 -49 166 -12T114 80Q93 133 83 190T71 307Q71 308 71 309T71
311Q71 312 71 312T71 314V314Q71 315 71 316Q71 377 81 434T113 545Q134 598 166 635T241 693Q252 698 262 702T284 708Q295 710 306 711T329 713Q352 713 374 708T418 691Q439 680 456 664T486 625Q494 612 498 599T506 570Q509 555 510 540T512 510Q512 508
512 506T512 502Q511 499 511 497T511 493Q511 491 511 489T511 485Q511 482 511 480T511 476Q510 468 509 460T507 443Q506 434 505 426T503 410Q502 404 501 398T499 386Q498 380 498 374T497 363Q497 362 497 361V360Q496 359 496 358T496 356Q496 355 496 354V353Q495
352 495 351T495 349Q494 345 494 342T493 335Q492 331 492 328T491 320Q491 316 491 313T490 306Q490 302 490 299T490 291Q490 287 490 283T491 273Q491 269 492 265T494 256Q495 249 497 244T504 234Q509 230 513 226T522 219Q523 218 524 217T527 215Q528 215
528 215T530 214Q530 213 530 213T532 212Q534 211 535 210T538 207Q540 205 541 204T544 201Q546 198 547 195T550 189Q550 188 550 188T551 187Q551 186 551 186T551 184Q551 183 551 182T551 180Q551 174 549 170T544 164Q540 161 536 160T526 159Q525 159 523
159T520 159Q518 159 517 159T513 161Q509 162 506 163T499 165Q493 167 487 169T476 175Q471 178 467 181T459 189Q450 177 441 168T422 152Q412 145 402 140T383 133Q379 132 376 131T369 130Q368 130 366 130T363 129Q361 129 360 129T356 129Q355 129 354 129V129V129V129H353V129Q329
129 308 139T267 171Q248 192 239 221T227 287V287V287V288Q227 288 227 289V289V290V290V290V290V291V291V291Q227 296 227 301T228 311Q228 316 229 321T231 333Q236 362 248 389T280 441Q300 466 323 478T374 490Q382 490 390 489T406 485Q414 482 422 478T440
469V469V469ZM436 401Q429 406 423 410T408 419Q404 421 400 422T393 424Q389 425 385 425T377 426Q376 426 376 426H375V426V426H374V426Q368 426 362 425T350 421Q344 419 338 416T327 407Q319 400 313 389T301 364Q297 350 294 336T290 306Q290 304 290 302T290
298Q290 297 290 296V295Q290 294 290 293T290 291Q290 278 291 266T295 242Q298 230 302 221T314 205Q319 200 323 196T334 190Q340 188 346 187T358 186V186Q359 186 360 186Q361 186 361 186T363 186Q367 186 371 187T379 190Q382 191 386 193T394 198Q402 203
407 209T417 224Q420 230 422 236T426 250Q427 256 427 262T428 276Q428 278 428 280T428 285Q428 287 428 289T428 294Q427 296 427 298T427 303Q427 305 427 307T427 313V314Q427 314 427 315V316Q427 316 427 317V318Q427 318 427 319V320Q427 320 427 321Q427
326 427 331T427 341Q427 346 428 351T430 361Q430 366 430 371T432 381Q433 386 434 391T436 401V401V401Z" />
<glyph unicode="A" glyph-name="A" d="M163 206L130 101Q129 100 129 99T128 95Q128 94 128 93T128 89Q128 82 131 77T141 68Q148 65 155 64T172 62Q173 62 174 62T177 62Q178 61 179 61T182 61Q184 61 186 61T192 61Q193 61 194 61T196 61H197Q198 61 199 61Q200
61 201 61T203 61H204Q205 61 206 61Q216 60 223 58T235 51Q240 47 242 42T245 31V31V31V30V30V30V30V30V30V29V29V29V29Q245 23 243 19T237 9Q233 5 228 3T215 0H23Q16 0 11 2T2 8Q-1 13 -3 17T-7 27V28Q-7 28 -7 29Q-7 30 -7 30T-7 32Q-7 36 -7 39T-4 45Q-3 48
-1 50T5 55Q7 56 8 56T10 58Q12 58 13 58T15 60Q17 62 19 63T25 66Q31 69 36 73T46 83Q50 88 53 95T61 113L237 639Q240 649 245 656T256 669Q262 674 268 676T282 679V679H283Q283 678 284 678V678Q285 678 286 678T288 678Q290 677 292 676T298 674Q300 673 302
671T307 667Q312 663 315 657T322 643L526 96Q529 87 533 81T543 72Q548 69 553 67T563 64Q564 64 564 64T566 63Q566 62 566 62T568 62Q569 62 570 62T572 62Q577 61 580 61T588 58Q592 57 595 55T602 48Q603 47 603 46T604 44Q604 43 604 42T606 40Q606 39 606
39T607 37Q607 36 607 36V35Q607 34 607 33T607 31Q607 25 605 20T599 9Q595 5 590 3T577 0H363Q356 0 351 2T341 9Q337 14 335 19T333 30V30V31V31V31V32Q333 32 333 33Q333 38 336 43T345 53Q351 58 360 60T381 63V63H382V63V63V63Q383 63 384 63V63V63V63Q385
63 386 63V63H387V63V63V63H388V63V63Q390 63 392 63T397 63Q399 63 402 63T408 65Q414 66 419 67T429 72Q434 74 436 78T439 87V87V87V87V88V88V88V88V88V88Q439 89 439 90V90Q439 91 439 92V92V93Q438 93 438 94V94V94Q438 95 438 96L398 206H163V206V206ZM185
271H373L273 536L185 271V271V271Z" />
<glyph unicode="B" glyph-name="B" d="M81 0Q73 0 66 2T53 10Q47 15 45 21T42 34Q42 35 42 35T42 37Q42 38 42 39T43 41Q43 42 43 42T43 44Q43 45 43 46T45 48Q47 55 52 59T64 66Q71 68 78 69T94 70Q95 70 96 70T99 70Q100 69 101 69T104 69Q106 69 107 69T110
69Q111 69 112 69T115 69Q116 69 117 69T119 69Q120 68 121 68T123 68Q125 68 127 68T132 68V596Q131 596 130 596V596V596V596Q129 596 128 596V596V596V596H127V596Q124 596 121 596T115 596Q114 596 112 596T109 596Q107 596 106 596T102 596Q101 596 100 596T98
596Q97 596 97 596T95 596Q87 596 80 597T64 600Q57 602 52 606T45 617Q45 618 45 619T44 621Q43 621 43 622T43 624Q43 625 43 626T42 628V629Q42 630 42 631Q42 638 45 643T54 653Q60 658 67 660T81 662H219Q223 662 227 662T236 662Q241 662 245 662T254 662Q260
662 266 662T279 662Q282 662 285 662T292 662Q295 662 298 662T304 662Q334 661 362 656T416 641Q442 631 459 610T487 555Q489 550 489 545T491 534Q491 531 491 529T492 524Q492 521 492 519T492 514Q492 504 491 495T487 477Q485 468 482 460T474 443Q466 428
456 416T433 396Q420 388 406 381T377 368Q400 364 421 357T461 338Q479 328 494 312T520 272Q525 262 528 252T533 231Q534 226 535 221T537 210Q537 204 537 199T538 188Q538 171 535 155T526 121Q520 105 512 90T492 62Q474 42 453 29T407 11Q383 5 359 3T308
0Q301 0 294 0T278 0Q271 0 264 0T248 0Q234 0 220 0T192 0Q178 0 164 0T136 0Q129 0 122 0T108 0Q101 0 95 0T81 0V0V0ZM262 325H219V68Q222 68 225 68T233 68Q237 68 241 68T249 68Q254 68 260 68T272 68Q278 68 284 68T296 69Q320 71 342 77T386 93Q407 103
420 121T439 165Q439 167 439 168T440 172Q441 173 441 175T441 178Q441 180 441 181T442 185Q442 186 442 188T442 192Q442 193 442 193T442 195V196Q442 196 442 197Q442 198 442 198T442 200V200Q442 201 442 202Q441 212 439 221T432 241Q428 251 423 260T410
276Q400 287 387 295T360 309Q345 314 330 318T300 323Q298 323 296 323T291 324Q288 324 286 324T281 324Q278 324 276 324T271 325Q269 325 267 325T262 325V325V325ZM219 596V395Q220 395 221 395T223 395Q224 395 224 395T226 395V395Q227 395 228 395Q229
395 229 395T231 395H232Q232 395 233 395Q234 395 234 395T236 395V395Q237 395 238 395Q252 395 266 396T294 398Q308 400 321 405T347 417Q358 424 367 433T382 454Q388 465 391 478T395 504Q395 505 395 506V506V506Q395 507 395 508Q395 537 386 555T359 582Q341
590 321 594T279 599Q275 599 271 599T263 599Q259 598 256 598T248 598Q241 598 234 598T219 596V596V596Z" />
<glyph unicode="C" glyph-name="C" d="M533 99Q533 87 529 77T515 58Q506 50 497 43T477 31Q473 29 469 27T461 23Q457 21 454 20T447 16Q431 8 415 3T382 -6Q366 -9 349 -11T314 -13Q311 -13 308 -13T301 -13Q298 -12 295 -12T289 -12Q283 -11 277 -11T265 -9Q213
-2 175 23T112 94Q87 139 73 187T55 288Q55 291 55 293T55 299Q54 301 54 304T54 310Q54 315 54 320T54 332Q54 355 55 377T61 421Q64 442 69 461T81 499Q94 533 113 562T159 617Q185 642 217 656T286 675Q288 675 290 675T294 676Q296 676 298 676T303 676Q305
676 307 676T312 677Q314 677 316 677T321 677Q323 677 325 677T331 677Q333 676 335 676T340 676Q345 676 350 676T360 674Q362 674 364 674T370 672Q372 672 374 672T379 670Q381 669 383 669T389 667Q391 666 393 666T398 664Q403 663 407 662T416 658Q421 657
426 656T436 654V654H437V654V654H438Q438 654 439 654Q440 654 441 654T443 654H444Q445 654 446 654Q447 654 448 654T450 655H451Q452 655 453 655Q454 655 455 655T457 656H458Q459 657 460 657Q462 657 464 657T468 659Q471 659 474 659T482 661Q484 661 485
661T489 662Q490 663 492 663T495 663Q502 663 508 660T518 651Q523 645 525 634T528 604L532 501Q532 500 532 500V499V499V499Q532 490 530 483T522 467Q518 460 511 457T493 453Q483 453 476 457T466 471Q462 480 460 490T456 510Q455 511 455 512T455 514Q455
515 455 516T455 518Q454 524 453 529T451 540Q450 545 449 549T445 557Q437 571 425 581T398 598Q383 604 368 607T335 611Q325 611 316 610T297 607Q288 605 280 602T263 595Q236 582 217 563T185 517Q173 491 166 464T154 408Q153 398 152 388T151 368Q150 358
150 348T150 329Q150 319 150 310T151 290Q151 285 151 280T152 270Q153 264 153 259T155 249Q158 222 165 196T183 145Q194 120 211 101T254 67Q261 63 268 60T284 54Q292 52 300 51T317 50Q318 50 318 50T320 50Q321 50 321 50T323 50Q336 50 348 52T374 60Q386
65 397 72T418 89Q423 94 427 100T435 114Q439 122 442 129T449 144Q450 146 451 148T453 153Q453 155 454 157T456 162Q458 167 459 171T462 180Q465 188 468 194T474 205Q477 210 480 214T488 219Q490 220 492 220T496 221Q497 221 498 221T500 222H501Q502 222
503 222Q513 222 519 217T529 201Q532 191 533 180T535 156Q535 155 535 154V154V154V154V153V153Q535 151 535 149T535 144Q534 142 534 140T534 136Q534 132 534 128T534 121Q534 119 534 118T534 114Q533 113 533 112T533 108Q533 105 533 103T533 99V99V99Z"
/>
<glyph unicode="D" glyph-name="D" d="M98 62V602Q97 602 96 602H95Q94 602 93 602T91 602Q89 602 87 602T83 602Q80 601 78 601T74 601Q72 601 70 601T65 601Q58 601 52 602T39 604Q33 606 29 610T22 620Q21 621 21 621T20 623Q20 624 20 625T20 627Q19 627 19
628T19 630Q19 631 19 631T19 633Q19 639 22 644T31 654Q36 659 42 661T56 663H185Q191 663 197 663T211 663Q214 663 217 663T224 663Q227 662 230 662T237 662Q267 661 296 658T355 647Q384 640 410 626T460 591Q480 572 495 550T520 502Q531 477 537 451T548
397Q549 389 549 381T551 365Q551 361 551 357T552 349Q552 345 552 341T552 333Q552 329 552 325T552 318Q551 314 551 310T551 302Q550 294 550 286T548 270Q545 242 539 216T521 163Q511 137 496 115T460 73Q435 49 406 34T345 13Q314 7 282 4T217 0Q213 0 209
0T201 0Q197 0 193 0T185 0H56Q49 0 42 2T30 9Q24 14 22 19T19 31Q19 33 19 34T20 37Q20 39 20 40T22 43Q25 49 29 53T39 59Q44 61 50 62T62 63Q63 63 63 63T65 63H66Q66 63 67 63Q69 63 71 63T76 63Q78 63 80 63T84 63Q85 63 86 63T88 62H89Q90 62 91 62Q92 62
93 62T95 62H96Q97 62 98 62V62V62ZM185 602V62Q187 62 189 62T193 62Q195 62 197 62T201 62Q202 62 202 62T204 62V62Q205 62 206 62Q208 62 209 62T212 62Q220 62 228 62T246 63Q254 63 262 63T279 65Q296 67 312 71T344 84Q370 98 388 117T419 161Q431 186 439
212T451 267Q452 275 452 283T454 299Q454 303 454 307T455 315Q455 319 455 323T455 331Q455 335 455 339T455 348Q454 352 454 356T454 365Q453 373 453 382T451 400Q448 425 442 449T424 496Q414 519 398 537T361 570Q342 582 322 589T281 598Q260 600 239 601T195
602Q194 602 193 602T189 602Q188 602 187 602T185 602V602V602Z" />
<glyph unicode="E" glyph-name="E" d="M122 600Q121 600 120 600H119Q118 600 117 600T115 600Q113 600 111 600T106 600Q105 599 104 599T100 599Q99 599 98 599V599Q97 599 97 599T95 599Q94 599 93 599T91 599Q90 599 90 599T88 599Q80 599 73 600T58 602Q51
604 47 608T40 619Q39 620 39 620T38 622Q38 623 38 624T38 626Q37 627 37 627T37 629Q37 630 37 631T37 633Q37 640 40 645T49 655Q55 659 62 661T77 663H339Q344 663 349 663T360 663Q365 663 370 663T382 665Q384 665 385 665T388 665Q389 665 390 665T392 665H393Q394
665 395 665Q404 665 413 665T431 667Q436 667 440 667T450 668Q454 668 459 668T468 668Q469 668 469 668T471 668Q472 668 473 668T475 668Q476 668 476 668T478 668Q479 668 480 668T482 668Q496 667 504 664T516 655Q519 649 521 642T523 624Q523 622 523 620T523
615Q523 612 523 610T523 605L518 503Q517 494 515 488T508 476Q504 472 499 470T489 467Q483 467 478 469T467 478Q462 484 460 492T457 512Q456 545 448 564T423 590Q407 595 386 597T339 600Q336 600 334 600T329 600Q327 600 325 600T320 600H208V384Q210 384
212 384T217 384Q220 384 223 384T229 384Q232 383 235 383T241 383Q244 383 247 383T255 383H256Q256 383 257 383Q258 383 258 383T260 383Q269 383 277 383T294 385Q302 387 308 389T318 396Q321 400 323 404T326 412Q327 417 327 421T329 430Q329 431 329 431T329
433Q329 434 329 435T329 437Q329 447 332 454T339 467Q344 472 349 474T360 478V478H361V478V478H362Q362 478 363 478Q368 478 373 476T383 469Q388 465 390 460T392 447V242Q392 235 390 230T382 220Q377 216 371 214T359 212Q357 212 355 212T350 213Q348 213
346 214T342 216Q338 219 335 224T330 237Q329 245 328 253T327 271V272Q327 272 327 273V274Q327 274 327 275Q327 279 327 282T327 290Q327 292 327 294T328 298Q328 299 328 301T328 305Q328 308 328 311T328 317Q328 319 328 320T329 322Q329 324 329 325T329
327H208V61H333Q365 61 390 65T434 77Q452 85 462 107T475 166Q475 177 478 184T485 197Q490 202 494 205T505 210V210H506V210V210V210Q507 210 508 210Q513 210 518 207T527 199Q532 194 534 187T536 169V27Q536 16 533 9T522 0Q515 -3 508 -4T492 -6Q491 -6
490 -6H489Q488 -6 487 -6T485 -6Q484 -6 483 -6H482Q481 -6 480 -6T478 -6Q475 -5 473 -5T468 -4Q465 -4 463 -4T458 -4Q424 -1 390 -1T320 0Q303 0 286 0T252 0Q234 0 217 0T183 0Q181 0 179 0T175 0Q172 0 170 0T166 0Q164 0 162 0T158 0Q155 0 153 0T149 0Q148
0 147 0T144 0Q142 0 141 0T138 0Q135 0 132 0T126 0Q125 0 123 0T120 0Q118 0 117 0T113 0Q112 0 110 0T107 0Q105 0 104 0T100 0Q89 0 79 0T59 3Q50 5 45 10T38 24V24Q38 25 38 26V26Q38 27 38 28Q37 28 37 28T37 30V30Q37 31 37 32Q37 41 41 47T53 56Q61 59
68 60T85 63Q86 63 87 63T89 63Q90 63 91 63T93 63Q95 63 97 63T101 63Q103 63 105 63T109 63Q111 62 112 62T115 62Q116 62 117 62T119 62H120Q121 62 122 62V600V600V600Z" />
<glyph unicode="F" glyph-name="F" d="M149 600Q148 600 147 600T145 600Q143 599 142 599T140 599Q137 599 135 599T130 599Q129 599 127 599T124 599Q122 598 121 598T117 598Q116 598 114 598T111 598Q109 598 108 598T104 598Q103 598 102 598V598Q101 598
100 598V598Q90 598 81 599T64 602Q55 604 50 608T42 619Q41 620 41 620T40 622Q40 623 40 624T40 626Q39 626 39 627T39 629Q39 630 39 630T39 632Q39 639 42 644T51 654Q56 659 62 661T76 663H367Q372 663 378 663T391 664Q399 664 406 664T423 666Q425 666 428
666T434 666Q437 666 440 666T446 667Q451 667 456 667T468 667Q471 667 474 667T479 668Q482 668 484 668T490 668Q493 668 496 668T502 668Q505 667 507 667T513 667Q518 667 522 667T530 665Q537 664 541 661T547 652Q549 647 550 642T551 630Q551 629 551 628V627Q551
626 551 625T551 623Q551 622 551 621T551 617Q550 616 550 615T550 611Q550 610 550 609T550 605L545 490Q544 482 542 476T536 465Q534 463 532 461T528 458Q525 456 523 455T519 454Q518 453 518 453T516 453Q515 453 514 453V453Q509 453 505 455T496 461Q492
464 490 469T486 482Q486 484 486 485T485 489Q484 490 484 492T484 495Q484 497 484 498T484 502Q483 503 483 505T483 509Q482 518 481 526T478 543Q476 551 471 558T458 573Q451 579 443 583T425 590Q415 593 406 595T386 598Q383 598 381 598T376 599Q373 599
371 599T366 599Q363 599 361 599T356 600Q354 600 352 600T347 600H236V381Q238 381 240 381T245 381Q247 381 250 381T256 381Q259 380 262 380T268 380Q271 380 274 380T281 380H282Q282 380 283 380Q284 380 284 380T286 380Q291 380 295 380T304 381Q308 381
312 381T321 383Q329 385 335 387T346 394Q349 398 351 402T354 410Q355 414 355 418T357 427Q357 428 357 428T357 430Q357 431 357 432T357 434Q358 445 361 452T368 465Q373 470 377 472T388 475V475V475V475H389V475V475V475V475V475H390V475V475Q395 475 400
473T410 466Q415 462 417 457T419 444V239Q419 232 417 227T409 217Q404 213 399 211T387 209Q385 209 383 209T378 210Q376 211 374 212T370 214Q365 217 362 223T357 239Q356 248 356 257T355 277Q355 280 355 283T355 291Q355 293 355 294T355 298Q355 299 355
301T356 304Q356 306 356 307T356 310Q356 311 356 312T356 315Q356 318 356 320T356 324H236V62H348Q356 62 361 60T370 52Q374 47 376 42T378 30Q377 24 375 19T370 9Q366 5 361 3T348 0H92Q85 0 79 2T67 8Q62 13 60 18T57 30Q57 32 57 33T58 36Q58 38 58 39T60
43Q62 49 67 53T79 59Q87 61 94 62T110 63V63Q111 63 112 63V63Q113 63 114 63Q116 63 118 63T124 63Q126 63 128 63T134 63Q136 62 138 62T142 62Q143 62 144 62T146 62H147Q148 62 149 62V600V600V600Z" />
<glyph unicode="G" glyph-name="G" d="M522 90Q522 89 522 89T522 87Q522 86 522 86T522 84Q522 69 521 60T516 46Q513 42 510 40T503 37Q502 37 501 37H500Q499 37 498 37T496 38Q495 38 494 38T490 40Q489 40 489 40T487 40Q486 40 486 40T485 41Q484 41 484
41H483Q482 41 482 41T480 41Q479 41 479 41T478 42Q477 42 476 42V42Q475 42 474 42V42Q473 41 473 41T471 41Q470 41 470 41H469Q468 40 468 40H467Q464 39 461 38T455 34Q452 33 449 32T443 28Q442 27 442 27T440 26Q439 25 438 25T436 24Q431 21 426 18T416
13Q411 10 406 8T395 4Q382 1 370 -1T344 -7Q331 -9 318 -10T292 -12Q252 -12 218 -1T154 34Q124 58 103 88T68 156Q61 175 56 195T47 236Q43 257 42 279T40 324Q40 326 40 328T40 334Q40 336 40 337T40 340Q40 341 40 342T40 345Q42 374 46 401T57 456Q64 483
74 507T97 553Q114 582 137 605T191 644Q220 661 251 669T316 677Q323 677 330 677T344 675Q351 674 358 673T372 670Q374 669 376 669T382 667Q384 666 385 666T388 665Q389 664 390 664T393 663Q396 662 399 661T405 659Q407 658 408 658T412 657Q413 656 415
656T418 656Q420 655 422 655T426 654Q428 654 430 654T434 654V654H435V654V654H436Q436 654 437 654Q439 654 440 654T443 654Q445 654 446 654T449 655H450Q450 655 451 656H452Q452 656 453 656Q455 656 456 656T459 658H460Q461 658 462 659V659Q463 659 464
660V660Q465 660 466 660Q468 660 470 660T474 662Q475 662 476 662T479 663Q480 663 481 663T483 663V663H484V663V663V663Q485 663 486 663Q487 663 487 663T489 663Q490 663 490 663T492 663Q500 662 505 659T514 649Q517 643 519 637T523 623Q523 620 523 618T523
613Q523 612 523 611T524 609Q524 608 524 607T524 605L528 479Q528 478 528 478V477V477V477V476V476Q528 466 526 458T518 444Q513 438 508 435T496 431Q495 431 494 431V431V431V431H493V431V431V431H492V431V431V431V431V431H491V431V431V431Q490 431 490 431H489Q488
431 488 431H487Q483 432 480 433T473 438Q469 441 467 445T463 456Q462 460 461 464T460 472Q460 477 460 480T460 488Q460 489 460 489T459 491V492Q459 492 459 493Q459 495 459 496T459 499Q459 505 458 511T456 523Q455 528 454 534T451 546Q448 558 439 569T415
592Q408 597 399 601T381 609Q377 611 372 612T363 614Q358 614 354 615T344 616Q343 616 342 616T338 616Q337 616 336 616T334 616Q324 616 314 615T293 611Q283 608 274 605T256 598Q226 583 204 559T168 500Q155 466 148 430T138 356Q138 355 138 353T138 350Q138
348 138 347T138 343Q138 340 138 337T138 331Q138 308 139 286T145 242Q148 221 152 202T163 166Q173 136 188 114T225 78Q246 64 268 57T316 50Q320 50 323 50T331 50Q335 50 338 51T346 53Q357 55 368 58T391 65Q402 70 413 76T434 90V215Q431 215 428 215T422
215Q419 215 416 215T410 215Q409 215 407 215T404 214Q402 214 401 214T397 214Q394 214 391 214T385 214Q380 214 375 214T365 214Q361 214 357 214T347 216Q343 216 340 217T333 221Q330 223 328 225T325 232V232Q325 233 325 234Q324 234 324 234V235Q324 236
324 237T324 239Q323 239 323 240T323 242Q323 243 323 243T323 245Q323 251 325 257T331 267Q335 272 340 274T353 277H550Q558 277 563 275T573 267Q577 263 579 257T581 245Q581 244 581 244V243Q581 242 581 242V241Q580 240 580 240V239V239V239V238V238Q579
231 576 226T568 219Q563 217 557 216T545 215Q544 215 544 215T542 215Q541 215 540 215V215Q539 215 539 215T537 215Q536 215 535 215H534Q533 215 532 215T528 215Q527 215 526 215T522 215V90V90V90Z" />
<glyph unicode="H" glyph-name="H" d="M98 61V602Q97 602 96 602H95Q94 602 93 602T91 602Q89 602 87 602T83 602Q80 601 78 601T74 601Q72 601 70 601T65 601Q58 601 52 602T39 604Q33 606 29 610T22 620Q21 621 21 621T20 623Q20 624 20 625T20 627Q19 627 19
628T19 630Q19 631 19 631T19 633Q19 640 22 645T31 655Q36 659 43 661T57 663H239Q246 663 252 661T264 654Q270 650 273 645T276 632Q276 631 276 631T276 629Q275 628 275 628T275 626Q275 625 275 624T273 620Q270 614 266 610T255 604Q248 602 242 601T227
600Q224 600 221 600T215 600Q214 600 213 600T209 601Q208 601 207 601T204 601Q201 601 199 601T194 601Q193 601 192 601T189 602Q188 602 187 602T185 602V382H417V602Q416 602 415 602T413 602Q411 601 410 601T408 601Q406 601 404 601T398 601Q397 601 396
601H395Q394 600 393 600T391 600Q389 600 387 600T382 600Q381 600 381 600T379 600Q378 600 378 600T376 600Q369 600 362 601T347 603Q340 605 336 609T329 620Q329 621 329 622T328 624Q327 624 327 625T327 627Q326 629 326 630T326 633Q326 640 329 645T338
655Q344 659 351 661T365 663H544V663H545V663V663H546Q546 663 547 663Q553 662 559 660T571 653Q577 649 580 644T583 633V633V633V632V632V632V632V632V632V631V631V631V631Q583 630 583 630T583 628Q582 627 582 627T582 625Q582 624 582 624V623Q581 622 581
622V621Q580 620 580 620L579 619Q578 618 578 618T577 616Q577 615 577 615T575 614Q575 613 575 613T573 611Q569 608 565 606T556 603Q551 602 546 602T535 601Q534 601 533 601T531 601Q530 601 529 601T527 601Q526 601 526 601H525Q524 601 524 601T522 601Q521
601 520 601T518 602Q516 602 514 602T510 602Q508 602 507 602T503 602V61Q505 61 506 61T509 61Q511 61 513 61T517 62Q519 62 521 62T525 62Q527 62 529 62T533 62V62H534V62V62V62Q535 62 536 62Q544 62 552 61T567 56Q575 53 578 47T582 31Q582 23 579 17T570
7Q564 3 558 2T544 0H365Q358 0 351 2T338 8Q332 13 329 18T326 30Q326 31 326 31T326 33Q326 34 326 35T327 37V38Q327 39 327 40Q327 41 327 41T329 43Q331 49 335 53T347 59Q353 61 360 62T375 63Q377 63 378 63T381 63Q383 62 384 62T387 62Q389 62 390 62T393
62Q394 62 395 62T398 62Q400 62 401 62T403 62Q405 61 406 61T408 61Q410 61 412 61T417 61V311H185V61Q187 61 189 61T193 61Q194 61 195 61T198 62Q200 62 201 62T204 62Q206 62 207 62T211 62Q212 62 213 62T215 63Q216 63 217 63T220 63V63Q221 63 222 63Q223
63 224 63T226 63Q234 63 240 62T254 59Q261 58 265 54T273 43V42Q273 42 274 42Q274 41 274 40V40Q274 39 274 39T275 38V37V37Q275 36 275 36T276 35Q276 34 276 34V33Q276 32 276 32T276 30Q275 23 272 18T264 8Q258 4 252 2T239 0H57Q50 0 43 2T30 9Q24 14
22 19T19 31Q19 33 19 34T20 37Q20 39 20 40T22 43Q24 49 28 53T39 58Q45 60 51 61T65 62Q67 62 69 62T74 62Q76 62 78 62T83 62Q85 61 87 61T91 61Q92 61 93 61T95 61H96Q97 61 98 61V61V61Z" />
<glyph unicode="I" glyph-name="I" d="M113 602V602V602H112V602V602V602V602V602H111V602V602V602Q101 602 95 604T83 611Q79 616 77 621T74 633Q74 638 76 643T84 653Q89 658 96 660T113 663H445Q453 663 460 661T471 653Q476 649 478 644T480 633V633V633V632V632V632V632V632V632V631V631V631V631Q480
625 478 621T471 611Q467 607 460 605T445 602H336V63H489V63V63V63H490V63V63V63V63V63H491V63V63Q500 63 507 61T519 53Q524 49 526 44T528 32Q528 26 526 21T518 10Q514 5 507 3T489 0H140Q131 0 124 2T112 9Q108 14 106 19T103 30V30V30V30Q103 31 103 32Q103
38 105 43T112 53Q117 58 123 60T140 63H245V602H113V602V602Z" />
<glyph unicode="J" glyph-name="J" d="M463 181Q463 178 463 176T463 171Q463 169 463 167T463 163Q462 142 459 122T450 82Q444 63 432 47T402 19Q389 10 375 5T346 -4Q339 -6 331 -7T316 -10Q308 -11 301 -12T285 -13Q283 -13 282 -13T278 -13Q277 -13 276 -13T272
-13Q263 -13 254 -13T237 -11Q228 -10 220 -10T203 -7Q200 -6 197 -6T190 -5Q187 -4 184 -4T177 -2Q174 -1 171 -1T164 0Q160 0 157 0T150 2Q137 5 125 9T101 20Q89 26 80 34T65 53Q63 56 62 62T58 75Q57 83 56 90T55 106Q55 107 55 108T55 110V111Q55 112 55 113Q55
114 55 115T55 117V118Q55 119 55 120Q55 126 55 132T56 143Q56 148 56 152T58 160Q60 165 63 170T71 179Q76 183 81 185T92 188V188Q93 188 94 188V188Q95 188 96 188Q100 188 103 188T110 185Q113 184 116 181T121 175Q124 168 126 162T130 151Q131 148 131 145T133
140Q133 137 133 135T135 129Q136 122 137 116T141 104Q142 101 143 98T147 93Q149 90 152 87T159 81Q162 79 165 77T172 72Q176 70 180 68T190 63Q198 59 207 56T225 51Q234 49 243 48T262 47Q273 47 284 48T306 54Q317 58 326 64T343 80Q353 92 359 106T369 137Q372
154 374 170T377 205Q377 206 377 207T377 209Q377 210 377 210T377 212V212Q377 213 377 214Q377 216 377 218T377 223Q377 225 377 227T377 231Q377 233 377 235T377 240Q377 242 377 244T377 248Q376 252 376 256T376 264Q376 269 376 272T376 280V602Q374 602
372 602T368 602Q365 602 363 602T359 602Q355 602 351 602T343 602Q339 601 335 601T325 601Q321 601 317 601T309 601Q307 601 305 601T300 601Q298 601 296 601T292 601Q290 601 288 601T283 601Q282 601 281 601T279 602Q278 602 277 602T275 602Q271 602 267
603T259 607Q255 609 253 612T248 619Q248 620 248 621T247 623Q246 623 246 624T246 626Q246 627 246 628T245 630V631Q245 632 245 633Q245 641 248 646T257 655Q263 659 270 661T285 663H529Q537 663 544 661T556 655Q561 651 564 646T567 632Q567 631 567 630V630V629V629Q566
628 566 628V627Q566 626 566 626V625Q565 618 561 613T548 605Q540 602 531 601T513 600Q512 600 512 600H511V600V600H510V600Q509 600 509 600T507 600Q506 600 506 600H505Q502 600 499 600T493 600Q492 600 491 600T488 601Q487 601 486 601T484 601Q480 601
477 601T472 601Q471 601 470 601T467 602Q466 602 465 602T463 602V181V181V181Z" />
<glyph unicode="K" glyph-name="K" d="M92 602Q91 602 90 602T88 602Q87 601 86 601T84 601Q82 601 80 601T75 601Q74 601 73 601T71 601Q69 600 68 600T66 600Q63 600 61 600T56 600Q49 600 42 601T29 604Q23 606 19 610T12 620Q12 621 12 622T11 624Q10 624
10 625T10 627Q9 629 9 630T9 633Q9 640 11 645T20 655Q26 659 32 661T46 663H214V663Q215 663 216 663Q217 663 217 663T219 663Q225 662 231 660T243 652Q248 648 251 643T254 633V633V633V632V632V632V632V632V632V631V631V631V631Q254 630 254 630T254 628Q253
627 253 627T253 625Q253 624 253 624V623Q252 622 252 622V621Q251 620 250 620V619Q249 618 249 618T248 616Q248 615 248 615T246 614Q246 613 246 613T244 611Q240 608 236 606T227 603Q223 602 218 602T207 601Q205 601 203 601T199 601Q198 601 197 601H196Q195
601 194 601T192 602Q191 602 190 602H189Q188 602 187 602T185 602Q184 602 183 602T179 602V345Q193 355 206 365T233 386Q245 397 257 409T279 436L381 572Q382 573 382 574T383 576Q384 576 384 577T385 579Q385 580 385 581T386 583Q387 583 387 584T387 586Q386
590 384 593T376 597Q371 599 366 599T354 601Q351 601 348 601T342 601Q339 601 337 601T333 601Q332 601 331 601T329 601Q328 601 327 601T326 602Q325 602 324 602H323Q322 602 322 602H321Q315 604 310 606T302 612Q299 616 298 620T296 629V629V629V630Q296
630 296 631Q296 637 298 642T305 653Q310 658 317 660T334 663H506Q514 663 521 661T535 653Q541 649 544 644T547 632V632V632V632V632V631V631V631V631Q547 628 547 625T544 619Q543 616 540 614T533 609Q527 605 522 603T512 599Q508 598 504 597T497 594Q496
593 495 593T493 592Q492 592 492 592H491Q490 591 490 591H489Q485 590 480 587T469 578Q463 574 456 565T439 544L345 420Q338 411 332 403T317 387Q310 379 303 371T287 355L483 113Q485 109 487 106T493 100Q495 97 497 95T503 90Q510 83 517 79T532 71Q540
68 549 66T571 63Q578 62 584 60T597 55Q603 51 606 45T609 31Q609 21 606 15T595 6Q588 3 580 2T564 0Q563 0 563 0T561 0Q560 0 560 0H559Q557 0 555 0T551 0Q550 0 549 0H548Q547 0 546 0T544 0Q543 0 542 0T538 0Q537 0 536 0T532 0Q529 0 527 0T523 0Q521
0 519 0T515 0Q506 0 499 0T486 0Q480 0 475 2T465 7Q462 9 459 11T453 17Q450 20 447 24T439 33L228 305Q222 301 216 297T204 289Q201 287 198 285T192 281Q188 279 185 278T179 274V62Q181 62 183 62T189 62Q191 62 194 62T200 63Q203 63 206 63T212 63Q215
63 218 63T226 63Q229 63 232 63T239 63Q243 62 246 62T252 62Q258 61 263 61T272 59Q276 58 279 56T285 51Q287 48 288 45T291 37Q291 36 291 36T292 35Q292 34 292 34T292 32Q292 31 292 30T292 28Q292 21 289 15T280 6Q274 3 268 2T254 0H65Q58 0 52 2T39 9Q33
14 31 19T28 31Q28 33 28 34T29 37Q29 39 29 40T31 43Q33 48 37 52T46 57Q51 59 56 60T67 62H68Q69 62 70 62Q71 62 72 62T74 62Q76 62 78 62T83 62Q85 62 87 62T92 62V602V602V602Z" />
<glyph unicode="L" glyph-name="L" d="M134 597Q130 597 127 597T120 597Q116 597 113 597T106 597Q102 596 98 596T91 596Q87 596 84 596T77 596Q73 596 70 596T62 596Q58 596 55 596T47 597Q43 598 39 599T30 603Q26 605 24 608T19 616Q19 617 19 618T18 620Q17
620 17 621T17 623Q16 625 16 627T16 631Q16 639 19 644T28 654Q34 659 41 661T57 663H293Q301 663 308 661T322 653Q328 648 331 642T335 629Q335 628 335 628T335 626Q334 625 334 625T334 623Q334 622 334 622V621Q333 620 333 620T333 618Q332 617 331 616T329
612Q328 611 328 610H327Q326 609 326 609T324 607Q321 604 316 602T304 598Q297 597 290 596T274 595Q273 595 272 595V595Q271 595 270 595V595Q266 595 263 595T255 595Q253 595 252 595T248 596Q247 596 246 596T242 596Q238 596 235 596T230 596Q229 596 228
596T225 597Q224 597 223 597T221 597V63H363Q365 63 367 63T371 63Q373 63 375 63T380 63Q382 62 384 62T389 62Q391 62 393 62T399 62Q400 62 401 62T403 62Q404 62 405 62T407 62Q417 62 426 63T445 67Q454 69 462 73T478 84Q483 89 486 94T490 106Q492 112
493 119T495 133Q495 134 495 134T495 136Q495 137 495 138T496 140V140Q496 141 496 142V142Q496 143 496 144Q496 146 496 148T496 152Q496 154 496 156T497 160Q497 162 497 164T497 168Q497 170 497 172T499 177Q500 185 502 191T507 204Q510 210 516 213T531
216H532Q532 216 533 216H534Q534 216 535 216V215H536V215Q537 215 538 215Q546 214 550 211T557 201Q559 195 560 189T562 176Q562 175 562 175T562 173Q562 172 562 172T562 170L551 27Q550 16 548 9T541 0Q537 -2 530 -3T515 -5Q514 -5 513 -5T511 -5Q510 -5
510 -5T508 -5Q507 -5 506 -5T504 -5Q503 -5 503 -5T501 -5Q497 -5 492 -5T483 -4Q478 -3 474 -3T464 -3Q460 -3 456 -3T446 -3Q442 -2 438 -2T428 -2Q427 -2 426 -2T424 -2Q422 -1 421 -1T419 -1Q417 -1 415 -1T410 -1Q398 0 387 0T364 0Q353 0 342 0T319 0Q297
0 276 0T233 0Q223 0 212 0T191 0Q180 0 170 0T148 0Q147 0 145 0T140 0Q137 0 135 0T130 0Q127 0 124 0T118 0Q117 0 116 0T112 0Q111 0 110 0T106 0Q105 0 104 0V0V0V0H103V0Q93 0 83 0T64 4Q55 7 51 13T47 28Q47 29 47 30T47 32Q47 33 47 33T47 35L48 36Q48
36 48 37Q50 45 53 49T64 57Q70 59 77 60T92 63H93Q94 63 95 63Q96 63 96 63T98 63Q100 63 102 63T108 63Q110 63 112 63T118 63Q120 62 122 62T126 62Q128 62 130 62T134 62V597V597V597Z" />
<glyph unicode="M" glyph-name="M" d="M453 532L335 268Q331 258 326 250T314 237Q308 231 302 229T290 226Q285 226 280 228T269 234Q264 239 260 245T250 261L126 519V154Q126 125 128 107T134 82Q139 75 151 71T183 64Q186 63 189 63T196 62Q200 61 204 61T213
60Q221 59 227 57T238 49Q242 45 244 41T247 31Q247 30 247 30V29V29V29V28V28Q247 23 245 19T239 9Q235 5 230 3T216 0H26Q21 0 17 2T9 8Q5 12 3 16T1 26V26V27V27V27V28Q1 28 1 29V29V29V29V30V30V30V30V30V30V31V31V31Q1 36 2 40T7 49Q10 54 15 57T28 62Q34
63 38 64T46 69Q49 71 51 75T54 87Q55 91 55 95T56 103Q56 105 56 107T57 112Q57 114 57 116T57 121Q57 123 57 125T57 131Q57 134 57 137T57 143Q57 144 57 144T57 146V146Q57 147 57 148Q57 150 57 151T57 154V602Q56 602 55 602T51 602Q50 602 49 602H48Q47
602 46 602T44 602Q43 602 42 602L41 601Q40 601 39 601T37 601Q36 601 35 601H34Q33 601 32 601T30 601Q25 601 21 601T11 603Q7 604 4 606T-3 611Q-5 613 -6 615T-9 621Q-10 624 -10 627T-11 633Q-11 635 -11 636T-10 639Q-10 640 -10 641T-9 644Q-8 647 -7 649T-3
654Q0 657 5 659T17 663Q25 664 33 664T50 665Q52 665 54 665T58 665Q60 664 62 664T66 664Q70 664 74 664T82 664Q84 664 85 664T89 664Q90 663 92 663T95 663Q98 663 101 663T106 663Q114 663 120 662T131 657Q136 654 139 649T147 636L292 330L420 623Q423 631
427 638T437 651Q442 657 449 660T467 663H571Q577 663 582 661T591 653Q596 649 598 644T600 633V633V633V632V632V632V632V632V632V631V631V631V631Q600 630 600 630V629V629V629Q600 628 600 628V627V627V627V626V626Q599 619 596 614T586 606Q580 603 574 602T561
601Q560 601 560 601H559V601V601H558V601Q556 601 554 601T550 601Q549 601 548 601H547Q546 601 545 601T543 602Q542 602 541 602T537 602Q536 602 535 602T531 602V62Q533 62 534 62T537 62Q539 62 541 62T546 63Q548 63 550 63T554 63Q556 63 558 63T563 63V63H564V63V63V63Q565
63 566 63Q575 63 584 62T600 57Q608 54 612 48T616 31Q616 23 613 17T604 7Q598 3 592 2T578 0H396Q389 0 383 2T370 8Q364 12 361 17T358 29V29V29V29V30V30V30V30V30V30V31V31V31Q358 33 358 34T358 37Q358 39 358 40T360 43Q362 48 366 52T378 58Q384 60 391
61T406 63Q407 63 407 63T409 63H410Q410 63 411 63Q412 63 412 63T414 63V63Q415 63 416 63Q418 63 419 63T422 63Q423 63 424 63T427 63Q429 63 431 63T437 63Q439 62 441 62T445 62Q447 62 449 62T453 62V532V532V532Z" />
<glyph unicode="N" glyph-name="N" d="M171 519L177 159Q177 157 177 155T177 150Q177 148 177 147T177 143Q177 120 179 105T186 83Q191 76 206 72T249 64Q257 63 263 61T274 53Q279 49 281 44T284 33Q284 32 284 32V31V31V31V30V30Q284 24 282 19T276 9Q272
5 267 3T253 0H78Q71 0 66 2T56 10Q52 15 50 21T48 34V34V34V34Q48 35 48 36Q48 40 49 43T51 51Q53 54 56 57T63 62Q68 64 71 65T78 68Q81 69 84 69T89 71Q94 73 97 75T101 82Q103 86 103 96T105 125V597Q104 597 103 597T101 597Q99 596 98 596T96 596Q94 596
92 596T88 596Q87 596 86 596T83 596Q81 595 80 595T77 595Q74 595 72 595T67 595Q59 595 52 596T37 599Q30 601 26 605T19 616Q18 618 18 619T17 622Q17 624 17 625T17 629Q17 635 19 641T25 652Q29 657 34 660T47 663H162Q169 663 174 662T183 658Q185 657 186
656T190 653Q191 651 193 650T196 646Q197 645 197 644T199 640Q200 639 201 638T203 634L450 174L443 504V504Q443 505 443 506V506Q443 507 443 508V508V509V510Q443 510 443 511Q443 513 443 514T443 517Q443 518 443 519T443 521V522Q443 523 443 524Q443 539
442 551T437 574Q433 584 421 590T389 597Q374 598 364 601T347 609Q341 614 339 619T336 630Q336 636 338 642T346 653Q351 658 356 660T368 663H543Q551 663 556 660T565 652Q569 647 571 641T573 629Q573 624 572 620T568 610Q565 606 561 604T552 599Q550 598
549 598T545 597Q544 596 543 596T539 596Q537 595 535 594T531 593Q529 592 528 591T525 589Q523 587 522 583T519 572Q518 568 518 564T517 557Q516 553 516 549T516 541Q516 537 516 533T516 526Q516 522 516 518T516 510Q516 509 516 508T516 504Q516 503 516
502T516 498V36Q516 25 514 17T506 4Q502 0 496 -2T484 -4Q483 -4 482 -4H481Q480 -3 479 -3T477 -3Q476 -3 475 -2H474Q473 -1 472 -1T470 -1Q466 0 462 2T452 8Q448 12 445 16T438 27L171 519V519V519Z" />
<glyph unicode="O" glyph-name="O" d="M35 332Q34 418 54 483T116 591Q157 635 203 656T298 679V679H299V679V679H300Q300 679 301 679Q351 679 396 658T484 592Q525 549 546 484T567 332Q567 245 546 180T484 71Q442 28 397 7T301 -14Q251 -14 205 7T118 71Q76
115 56 180T35 332V332V332ZM301 604Q260 604 231 589T183 543Q165 513 154 480T138 411Q137 401 136 391T133 370Q132 360 132 350T132 331Q132 329 132 327T132 323Q132 321 132 319T133 315Q133 313 133 311T133 307Q133 305 133 303T133 299Q133 292 133 286T134
273Q134 266 135 260T137 248Q139 229 143 211T154 174Q160 156 169 140T191 110Q202 97 214 88T241 72Q255 65 270 62T302 59Q304 59 306 59T310 59Q312 59 314 59T319 60Q321 60 323 60T327 61Q329 61 331 61T336 63Q366 71 388 87T425 130Q439 156 449 184T464
242Q466 253 466 264T468 288Q469 299 469 310T470 332Q470 343 470 353T468 375Q467 386 466 398T463 422Q457 456 445 487T415 547Q397 576 369 590T301 604V604V604Z" />
<glyph unicode="P" glyph-name="P" d="M155 597Q154 597 153 597T151 597Q149 596 148 596T146 596Q143 596 141 596T136 596Q135 596 134 596T132 596Q130 595 129 595T127 595Q125 595 123 595T118 595Q117 595 117 595T115 595Q114 595 114 595T112 595Q111
595 110 595V595Q109 595 108 595V595Q99 595 91 596T74 599Q67 601 62 605T54 617Q53 619 53 621T52 625Q51 627 51 629T51 633Q51 640 54 645T63 654Q69 657 75 659T89 662Q90 662 90 662T92 663V663Q93 663 94 663Q96 663 97 663T100 663H331Q333 663 335 663T340
663Q342 663 344 663T348 663Q350 663 352 663T357 663Q359 663 361 663T365 663Q388 662 409 659T452 649Q473 643 490 631T522 599Q531 587 538 574T549 546Q551 539 553 532T557 517Q558 509 559 502T561 487Q561 486 561 485V484Q561 483 561 482T561 480Q561
479 561 478T561 474Q561 468 561 462T559 450Q558 444 558 438T556 426Q546 383 525 354T470 308Q437 292 401 284T327 275Q316 275 305 275T283 277Q273 279 263 280T242 284V62Q244 62 247 62T253 62Q256 62 260 62T268 64Q271 64 274 64T282 64Q284 64 285
64T289 65Q290 65 292 65T296 65Q297 65 297 65T299 65Q300 65 300 65T302 65Q316 65 328 63T350 58Q361 55 366 49T373 31Q373 24 370 18T362 8Q356 4 350 2T338 0Q337 0 337 0T335 0Q334 0 334 0H333H100Q99 0 99 0T97 0Q96 0 96 0H95Q88 0 82 2T69 8Q63 12 61
17T58 30Q58 32 58 33T59 36Q59 38 59 39T61 43Q63 49 68 53T80 59Q88 61 95 62T111 63H112Q112 63 113 63H114Q114 63 115 63Q117 63 118 63T121 63Q122 63 123 63T126 63Q128 63 129 63T132 63Q133 63 134 63T137 63Q139 62 141 62T146 62Q148 62 150 62T155
62V597V597V597ZM242 352Q251 349 261 347T281 343Q291 342 301 341T321 340Q341 340 360 344T397 356Q414 364 427 378T451 412Q453 417 455 423T459 436Q461 442 462 449T464 463Q464 465 464 466T464 469Q464 470 464 471T464 473V474Q464 475 464 476Q464 478
464 479T464 482Q464 484 464 485T464 488Q463 494 463 500T460 512Q459 518 458 523T454 534Q447 551 436 563T409 582Q393 589 377 592T343 597H242V352V352V352Z" />
<glyph unicode="Q" glyph-name="Q" d="M446 -186Q436 -168 426 -152T405 -120Q394 -104 382 -90T358 -61Q357 -60 356 -59T355 -57Q354 -56 353 -55T351 -53Q350 -52 350 -51T348 -50Q347 -49 347 -48T345 -46Q337 -38 329 -32T311 -22Q302 -18 292 -16T269 -13Q241
-11 216 -2T167 23Q143 40 125 60T92 104Q79 127 69 152T50 206Q43 234 39 262T34 319Q34 320 34 321T34 323V324Q34 325 34 326Q34 328 34 330T34 334Q34 351 35 368T38 403Q40 420 44 436T52 469Q67 520 92 559T151 624Q186 650 222 664T298 679V679Q299 679
300 679Q301 679 301 679T303 679Q335 678 366 669T428 642Q458 624 481 597T523 532Q533 511 540 490T553 445Q558 422 561 399T566 353Q566 352 566 351T566 348Q566 346 566 345T566 342Q566 339 566 337T566 332Q566 310 564 288T558 245Q554 223 549 203T536
162Q526 134 513 111T482 68Q466 49 445 33T399 2Q415 -9 430 -22T458 -51Q472 -66 484 -82T510 -115Q512 -119 515 -122T521 -126Q524 -128 527 -129T534 -130Q536 -130 538 -130T542 -128Q544 -127 546 -127T552 -124Q554 -123 556 -122T562 -120Q564 -119 566
-119T571 -119Q578 -119 583 -122T592 -129Q596 -134 598 -139T600 -150Q599 -154 598 -157T595 -164Q593 -167 590 -170T583 -175L489 -222Q488 -221 488 -221T487 -222Q486 -222 486 -222T484 -222Q483 -222 482 -222T480 -222Q476 -222 472 -220T465 -215Q462
-212 460 -209T455 -201Q454 -198 453 -196T450 -191Q449 -189 448 -188T446 -184V-186V-186ZM301 604Q261 604 232 589T184 543Q166 513 155 480T138 411Q137 401 136 391T133 369Q132 359 132 349T132 330Q132 328 132 326T132 322Q132 320 132 318T133 314Q133
312 133 310T133 306Q133 305 133 304V303Q133 302 133 301T133 299Q133 295 133 291T134 284Q134 280 134 276T135 268Q135 264 135 260T137 253Q138 249 138 245T140 237Q145 203 157 173T188 113Q206 85 233 71T296 58Q301 58 306 58T316 59Q321 60 326 61T336
63Q366 71 388 87T425 130Q439 156 449 184T464 242Q466 253 466 264T468 288Q469 299 469 310T470 332Q470 343 470 353T468 375Q467 386 466 398T463 422Q457 456 445 487T415 547Q397 576 369 590T301 604V604V604Z" />
<glyph unicode="R" glyph-name="R" d="M200 62Q202 62 204 62T210 62Q212 62 214 62T220 62Q228 62 235 62T250 62Q254 62 258 62T266 62Q269 61 273 61T281 61H282Q282 61 283 61H284Q284 61 285 61Q287 60 288 60T292 58Q293 57 295 57T298 55Q301 54 304 51T308
44Q309 42 309 40T310 36Q310 35 310 34T311 32Q311 31 311 31T311 29Q311 22 308 16T298 7Q292 3 285 2T269 0H78Q71 0 64 2T51 8Q45 13 42 18T39 31Q39 33 39 34T40 37Q40 39 40 40T42 43Q44 49 48 53T58 59Q63 61 69 62T82 63V63Q83 63 84 63V63Q85 63 86 63Q87
63 88 63T90 63H91Q92 63 93 63Q95 63 97 63T101 63Q103 62 104 62T107 62Q109 62 110 62T113 62V599Q112 599 110 599T105 599Q103 599 101 599T97 599Q94 598 92 598T87 598Q86 598 85 598T82 598Q80 598 79 598T76 598Q75 598 74 598V598Q73 598 73 598T71 598Q70
598 70 598H69Q68 598 68 598T66 598Q59 598 52 599T38 603Q31 605 27 609T20 619Q19 620 19 620T18 622Q18 623 18 624T18 626Q17 627 17 627T17 629Q17 630 17 631T17 633Q17 640 20 645T30 655Q36 659 43 661T57 663H289Q312 663 333 661T377 656Q398 653 417
643T454 616Q465 605 473 592T487 564Q493 549 497 534T502 504Q502 503 502 502V502Q502 501 502 501T502 499Q502 498 502 497T502 495Q502 494 502 494T502 492Q502 491 502 491T502 489Q502 451 490 422T453 373Q428 353 400 338T338 313Q355 303 368 292T393
270Q404 259 414 248T433 225Q442 212 449 199T463 173Q469 160 475 149T487 126Q492 117 496 110T505 95Q510 88 515 83T528 73Q530 72 531 71T534 70Q536 69 538 69T542 69Q543 69 544 69T546 68H547Q548 68 549 68Q550 68 551 68T553 68H554Q555 68 556 68Q561
68 565 68T574 66Q579 65 582 63T590 56Q591 55 591 54T593 52Q593 50 593 49T595 47Q596 45 596 43T597 39Q597 38 597 38V37V37V37V36V36Q597 32 596 28T592 21Q590 18 587 16T578 11Q576 10 574 10T569 9Q567 8 564 8T558 6Q552 5 546 4T532 2Q526 1 520 1T509
0Q504 0 500 0T491 0V0V0H490V0V0V0H489V0Q488 0 488 0H487V0V0V0V0V0V0H486V0V0V0Q477 0 470 3T456 13Q449 19 444 26T434 43Q432 47 430 50T426 58Q424 62 423 65T419 72Q415 80 411 89T401 107Q399 112 397 116T392 126Q389 130 387 135T382 145Q374 161 366
176T348 207Q339 222 329 235T308 259Q297 270 285 278T258 290Q245 295 230 297T200 300V62V62V62ZM200 363Q205 362 209 362T218 362Q223 362 228 362T238 362Q242 362 246 362T254 362Q258 362 262 362T270 363Q293 365 315 370T357 386Q377 396 389 413T406
456Q407 460 407 464T408 472Q408 474 408 476T409 480Q409 482 409 484T409 488Q409 500 407 512T401 536Q397 547 391 557T375 575Q366 583 355 588T329 596Q316 598 302 599T273 601Q270 601 268 601T263 601Q260 600 258 600T253 600Q249 600 245 600T235 600Q232
600 230 600T225 600Q223 599 221 599T216 599Q212 599 208 599T200 599V363V363V363Z" />
<glyph unicode="S" glyph-name="S" d="M86 48L85 160Q85 162 85 164T85 168Q85 169 85 170T86 172V173Q86 174 86 175Q88 183 90 191T97 206Q102 213 108 216T122 220Q124 220 126 220T131 218Q133 217 135 217T141 215Q144 214 147 211T151 203Q153 199 154 194T157
183Q158 180 158 177T160 171Q161 167 161 164T163 158Q165 151 167 145T172 131Q174 124 178 117T186 104Q191 97 197 91T210 80Q219 73 229 68T250 58Q261 54 272 53T294 51V51V51V51Q295 51 296 51V51H297V51V51V51H298V51V51Q321 51 342 57T382 77Q402 91 413
110T429 154Q429 155 429 155T429 157V158Q429 158 430 159V160V160Q430 162 430 163T430 166Q430 168 430 169T430 172Q430 196 421 215T392 250Q373 265 353 275T310 293Q309 293 308 293V293V293V294H307V294Q303 295 300 296T293 298Q289 299 286 300T278 302Q271
304 264 306T250 312Q217 323 187 337T129 370Q101 389 88 419T74 490Q74 531 89 564T136 622Q167 648 201 661T275 677Q276 677 276 677T278 677V677Q279 677 280 677Q282 677 283 677T286 678Q287 678 288 678T290 678Q292 678 293 678T296 678Q305 678 313 678T328
676Q332 675 335 675T343 674Q346 673 349 673T357 671Q360 670 363 669T370 668Q373 667 376 666T383 664Q389 663 396 662T411 658Q412 658 412 658T414 657Q414 656 414 656T416 656Q417 656 417 656T419 656Q420 655 420 655T422 655V655H423V655V655H424Q424
655 425 655V655V655H426Q426 655 427 655Q428 655 429 655T431 655Q432 655 432 655T434 656Q435 656 435 656T437 656Q438 656 439 656T441 658Q442 658 442 658T444 659V660Q445 660 446 660Q448 661 450 661T456 663Q458 664 460 664T466 665Q470 665 473 665T481
662Q484 661 487 658T492 652Q492 651 492 650T494 649Q494 648 494 647T495 645Q495 644 495 643T496 641Q496 640 496 639T496 637Q496 636 496 636V635Q496 634 496 634T496 632Q496 631 496 630T496 628Q495 627 495 626T495 624Q495 623 495 622T495 620L489
492Q488 485 486 480T478 471Q474 467 469 465T458 463V463V463H457V463V463V463H456V463Q452 463 449 464T441 466Q437 468 434 470T429 476Q426 480 424 484T421 495Q420 501 419 507T418 519Q417 521 417 523T416 528Q416 530 416 532T416 537Q415 548 411 558T400
578Q393 588 380 595T347 608Q344 608 342 608T337 610Q335 610 333 610T328 612Q325 612 323 612T318 612Q317 612 316 612T314 613Q312 613 311 613T309 613Q308 613 308 613T305 613Q304 613 303 613T301 613Q270 613 246 605T201 579Q182 562 172 543T163 503Q163
489 168 476T184 448Q195 435 212 424T255 404Q260 402 265 400T276 396Q281 395 286 394T298 390Q302 389 306 388T314 384Q316 383 318 383T323 382Q325 381 327 381T332 379Q364 369 393 356T450 326Q477 310 494 284T518 221Q519 217 519 213T520 203Q520 201
520 199T521 194Q521 192 521 190T521 186Q521 150 509 119T474 61Q450 34 421 17T356 -6Q350 -7 344 -7T332 -9Q326 -10 321 -10T310 -11Q300 -11 290 -11T271 -8Q261 -7 252 -6T235 -2Q226 -1 218 0T201 3Q194 5 187 5T173 6Q171 6 170 6T166 6Q165 6 165 6T163
6Q162 5 162 5T160 5V5H159Q158 4 158 4H157Q156 3 156 3T154 3Q153 2 152 2T150 1Q149 1 148 1V1Q147 0 146 0V0Q143 0 141 0T136 -1Q135 -1 134 -1T131 -2Q129 -2 128 -2T125 -2Q124 -2 124 -2H123V-2V-2H122V-2Q121 -2 120 -2V-2V-2V-2Q119 -2 118 -2V-2V-2V-2H117V-2Q108
-1 102 2T93 13Q90 19 88 26T86 42V43Q86 44 86 45Q86 46 86 46T86 48V48V48Z" />
<glyph unicode="T" glyph-name="T" d="M342 62Q344 62 346 62T352 62Q355 62 358 62T365 63Q369 63 373 63T381 63Q385 63 389 63T397 63Q402 63 406 63T414 63Q418 62 422 62T430 62Q438 61 443 61T452 59Q455 58 458 56T464 51Q466 48 467 45T470 37Q470 36
470 36T471 35Q471 34 471 34V33Q471 32 471 32T471 30Q470 23 468 18T461 8Q457 4 452 2T439 0H162Q155 0 150 2T140 9Q136 14 134 19T131 31Q131 32 131 32T131 34Q131 35 131 36T132 38V39Q132 40 132 41Q132 42 132 42T134 44Q135 47 137 50T142 55Q145 57
148 58T156 61Q157 61 157 61T159 62Q160 62 160 62T162 62Q163 62 164 62T166 62H167Q168 62 169 62Q171 62 172 62T175 63Q177 63 178 63T181 63Q184 63 187 63T195 63Q199 63 202 63T210 63Q214 63 218 63T226 63Q229 62 233 62T241 62Q245 62 248 62T256 62V596Q252
596 248 596T240 596Q236 596 232 596T224 597Q220 597 216 597T208 597Q204 597 200 597T192 597Q186 597 181 597T170 597Q164 597 159 597T148 595Q144 594 140 593T133 589Q129 587 126 584T121 578Q118 574 117 571T114 562Q113 558 113 554T113 544Q113 540
113 537T113 530Q113 529 113 527T114 524Q114 522 114 521T115 517Q115 515 115 513T116 510Q116 508 116 507T116 503Q116 502 116 500T117 497Q117 495 117 494T117 490Q117 486 117 483T115 477Q114 474 114 471T112 465Q110 461 107 457T99 451Q95 449 91
448T81 446Q80 446 80 446H79Q78 446 78 446H77Q70 446 64 447T52 453Q46 457 44 463T41 476V617Q41 626 43 635T51 651Q56 659 64 662T83 666V666V666V666H84V666V666V666V666V666H85V666V666Q87 666 89 666T95 666Q97 665 99 665T105 665Q110 664 115 664T125
663Q130 662 135 661T145 660Q150 659 155 659T165 659Q179 658 193 658T223 656Q237 655 251 655T281 655Q282 655 282 655T284 655V655Q285 655 286 655Q287 655 287 655T289 655H290Q290 655 291 655Q292 655 293 655T295 655Q297 655 298 655T301 655Q302 655
303 655T305 655Q306 655 307 655T310 655Q311 655 312 655T314 655Q315 655 316 655T318 655Q326 655 333 655T348 655Q352 655 355 655T363 656Q367 656 370 656T378 656Q382 656 385 656T393 657Q396 657 399 657T407 657Q415 657 422 657T437 659Q442 659 447
659T457 660Q462 660 467 661T477 663Q482 663 487 663T497 665Q499 665 501 665T507 666Q509 666 511 666T517 666V666V666V666H518V666V666V666V666Q529 666 536 663T550 651Q555 644 558 636T561 617V476Q561 469 558 463T549 453Q543 449 537 447T523 445Q519
445 515 446T506 448Q502 450 499 452T493 459Q491 462 490 466T487 475Q486 480 486 484T485 494Q485 497 485 500T485 506Q485 508 485 509T486 512Q486 514 486 515T486 519Q486 522 486 525T486 531Q486 533 486 534T487 537Q487 539 487 540T487 543Q487 554
485 563T479 580Q475 588 467 592T445 596H342V62V62V62Z" />
<glyph unicode="U" glyph-name="U" d="M98 598Q97 598 96 598H95Q94 598 93 598T91 598Q90 598 89 598H88Q87 598 86 598T84 598Q82 597 80 597T76 597Q74 597 72 597T68 597Q67 597 66 597V597Q65 597 64 597V597Q57 597 51 598T39 601Q33 603 29 607T22 618Q22
619 22 620T21 622Q20 622 20 623T20 625Q20 626 20 627T19 629V630Q19 631 19 632Q19 639 22 644T31 654Q37 659 44 661T58 663H218Q226 663 233 661T246 654Q252 650 255 645T259 631Q259 630 259 630T259 628Q258 627 258 627T258 625Q258 624 258 623T257 622Q257
621 257 620T256 618Q253 612 249 608T240 601Q234 599 228 598T216 597Q215 597 214 597V597Q213 597 212 597V597Q210 597 208 597T204 597Q203 597 202 597T198 598Q196 598 195 598T191 598Q190 598 189 598T185 598V210Q185 209 185 208T185 204Q185 203 185
202T185 200Q185 185 186 172T188 145Q190 132 196 120T213 96Q221 87 231 81T252 71Q263 67 275 66T299 64Q301 64 303 64T309 64Q311 64 313 64T318 65Q323 65 327 66T336 68Q371 76 391 91T417 129Q423 152 426 178T429 234V234Q429 235 429 236Q429 237 429
237T429 239V598Q428 598 427 598H426Q425 598 424 598T422 598Q421 598 420 598H419Q418 598 417 598T415 598Q413 597 411 597T407 597Q405 597 403 597T398 597Q397 597 396 597T394 597Q393 597 393 597T391 597Q385 597 379 598T367 602Q361 604 358 607T352
617Q351 618 351 618T350 620Q350 621 350 622T350 624Q350 625 350 625T350 627Q350 628 350 629T350 631Q350 638 352 644T360 654Q365 659 371 661T386 663H544Q552 663 559 661T572 654Q577 650 580 645T583 631Q583 630 583 630V629Q583 628 583 628V627Q582
626 582 626V625V625V625V624V624Q581 616 577 611T566 602Q559 599 552 598T537 597Q536 597 536 597H535V597V597H534V597Q533 597 532 597H531Q530 597 529 597T527 597Q526 597 525 597T521 598Q520 598 519 598T515 598Q514 598 513 598T509 598V253Q509 251
509 249T509 244Q509 242 509 240T509 235Q509 232 509 229T509 223Q509 219 509 216T509 210Q509 203 509 197T509 184Q508 166 506 148T498 113Q494 95 486 80T466 50Q453 35 437 24T401 6Q382 0 363 -4T324 -10Q323 -10 322 -10T318 -11Q317 -11 316 -11T312
-11Q309 -11 307 -11T302 -11Q300 -11 298 -11T294 -11Q291 -10 289 -10T285 -10Q283 -10 281 -10T277 -10Q274 -9 272 -9T268 -9Q248 -6 229 -1T190 13Q171 22 156 35T129 65Q119 79 113 95T103 128Q100 145 99 162T98 196Q98 198 98 199T98 203Q98 204 98 206T98
209Q98 212 98 215T98 221Q98 223 98 224T98 227Q98 228 98 229T98 231V232Q98 233 98 234V598V598V598Z" />
<glyph unicode="V" glyph-name="V" d="M73 602Q72 602 71 602T67 602Q66 602 65 602T61 602Q55 602 49 602T38 604Q33 606 29 609T23 619Q22 620 22 620T21 622Q21 623 21 624T21 626V627Q21 628 21 629Q21 630 21 630T21 632Q21 638 23 644T29 654Q34 659 39
661T52 663H238Q245 663 250 661T260 654Q265 650 267 645T269 634V634V634V633V633V633V633V632V632Q269 631 269 631T269 629Q269 628 269 628T269 626Q268 621 266 617T261 610Q257 607 254 605T245 602Q241 601 238 601T231 601Q230 601 228 601T225 601Q223
601 222 601T218 601Q214 601 211 601T204 601Q200 601 197 601T191 602Q187 602 184 602T177 602Q173 602 170 602T163 602L316 129L448 602Q447 602 446 602T444 602Q443 601 442 601T440 601Q437 601 435 601T430 601Q429 601 428 601T425 601Q423 600 422 600T419
600Q416 600 413 600T407 600Q399 600 392 601T377 603Q370 605 366 608T359 618Q359 619 359 620T358 622Q357 622 357 623T357 625Q357 626 357 627T356 629V630Q356 631 356 632Q356 638 358 644T364 654Q368 659 374 661T387 663H550Q557 663 562 661T572 654Q577
650 579 645T581 633Q581 632 581 632V631Q581 630 581 630V629V628V628L580 627V627Q580 626 580 626V625Q579 618 576 613T567 606Q562 604 557 603T545 602Q544 602 544 602H543V602V602H542V602Q540 602 538 602T534 602Q533 602 532 602H531Q530 602 529 602T527
602L362 30Q359 20 355 12T344 -1Q338 -8 330 -11T310 -15Q298 -15 290 -12T276 0Q270 6 266 14T259 32L73 602V602V602Z" />
<glyph unicode="W" glyph-name="W" d="M192 119L272 378V378V379V379V379V379L273 380V380V381Q275 389 278 395T285 408Q289 414 295 417T312 422Q321 422 327 419T338 410Q342 404 345 398T350 383V383H351V382V382V381V381Q351 380 351 380V379V379H352V378V378L436
119L487 598Q484 598 481 598T475 598Q474 598 473 598T470 598Q468 598 467 598T464 598Q461 597 458 597T452 597Q449 597 446 597T440 597Q436 597 432 597T422 597Q418 597 414 597T405 599Q401 600 398 601T391 604Q388 606 386 608T383 615Q382 617 382 619T381
623Q380 625 380 627T380 631Q380 638 383 644T391 654Q396 659 402 661T418 663H588Q596 663 603 661T615 654Q620 650 623 644T626 630Q626 629 626 628V628V628V628V627V627Q625 626 625 626V625Q625 624 625 624V623Q624 616 621 611T611 603Q605 601 599 600T587
598Q586 598 585 598H584Q583 598 582 598T580 598Q579 598 578 598T574 598Q573 598 572 598V598Q571 598 570 598V598L493 13Q492 5 489 -1T479 -11Q473 -16 466 -18T450 -21Q449 -21 448 -21V-21V-21V-21H447V-21Q434 -20 424 -16T409 -4Q404 3 400 12T391 33L308
292L230 32Q227 22 223 13T213 -4Q208 -12 199 -16T178 -21Q177 -21 176 -21V-21V-21V-21H175V-21Q162 -21 153 -17T139 -4Q134 3 131 13T126 33L41 598Q40 598 40 598H39Q38 598 38 598T36 598Q35 598 34 598V598Q33 598 33 598T31 598Q30 597 29 597T25 597Q24
597 23 597T19 597Q18 597 18 597H17Q16 597 16 597H15Q9 597 5 598T-4 601Q-9 603 -12 606T-18 615Q-19 617 -19 619T-20 623Q-20 624 -20 625T-21 627Q-21 628 -21 629T-21 631Q-21 639 -18 645T-9 655Q-3 659 3 661T19 663H189Q197 663 204 661T216 655Q221
651 224 646T227 632Q227 631 227 631T227 629Q227 628 227 628T227 626V626V625L226 624V624V624V624V623V623Q225 619 223 615T218 607Q215 604 211 602T202 599Q198 598 195 598T187 597Q183 597 179 597T171 597Q170 597 169 597T166 597Q164 597 163 597T160
597Q157 597 155 597T150 598Q147 598 144 598T138 598Q135 598 133 598T128 598L192 119V119V119Z" />
<glyph unicode="X" glyph-name="X" d="M102 563Q98 570 94 575T87 584Q84 587 81 590T76 594Q74 596 72 596T68 598Q67 598 65 598T60 600Q57 601 54 601T47 603Q43 604 38 605T28 609Q24 611 21 612T16 617Q14 620 13 623T12 630V630V631V631V631V632Q12 632
12 633Q13 638 16 643T23 653Q28 658 34 660T49 663H234Q243 663 249 661T258 656Q261 653 263 650T266 642V641V641V641V641Q266 640 266 640T267 639Q267 638 267 638V637Q267 636 267 635T269 633Q269 623 265 617T252 607Q243 604 234 603T215 601Q211 601
208 601T201 601Q200 601 199 601T195 602Q194 602 193 602T190 602Q187 602 184 602T179 602Q178 602 177 602T174 603Q173 603 172 603T170 603L303 403L411 603Q410 603 408 603T403 603Q401 603 399 603T394 603Q392 602 390 602T384 602Q381 602 379 602T374
602Q373 602 372 602V602Q371 602 370 602V602Q363 602 356 603T341 606Q334 608 329 611T322 621Q321 622 321 622T320 624Q320 625 320 626T320 628Q319 628 319 629T319 631Q319 632 319 632T319 634Q319 640 321 645T330 655Q336 659 342 661T356 663H528Q535
663 541 661T551 654Q556 650 558 645T561 633Q561 632 561 632V631Q560 630 560 630V629Q560 628 560 627T560 625Q559 624 559 623T558 621Q557 620 557 619T555 617Q552 613 549 611T542 606Q540 605 538 605T534 603Q531 602 529 602T525 601Q522 600 520 600T516
599Q514 598 512 598T507 596Q503 595 499 593T489 587Q485 584 481 579T473 568L341 347L508 96Q510 92 513 89T519 82Q522 79 525 77T531 73Q534 71 537 70T545 67Q547 66 548 66T552 65Q553 64 555 64T558 63Q560 62 562 62T565 61Q567 60 569 60T572 58Q575
57 578 54T584 48Q585 47 585 46T586 44Q586 43 586 42T588 40Q588 39 588 39T589 37Q589 36 589 36V35Q589 34 589 33T589 31Q589 24 586 19T578 9Q573 5 567 3T554 0H389Q382 0 376 2T364 9Q358 14 356 19T353 31Q353 33 353 34T354 37Q354 39 354 40T356 43Q359
49 363 53T374 59Q380 61 387 62T401 63Q403 63 405 63T409 63Q411 63 413 63T417 63Q419 62 421 62T425 62Q426 62 427 62T429 62H430Q431 62 432 62L291 273L177 62Q179 62 181 62T185 62Q187 62 189 62T195 63Q197 63 199 63T204 63Q206 63 207 63T210 63Q211
63 212 63T215 63Q224 63 232 62T248 59Q256 57 260 52T265 38Q265 37 265 37T265 35Q265 34 265 34T265 32Q265 25 263 20T257 9Q253 5 248 3T234 0H46Q39 0 34 2T24 8Q20 13 18 17T14 27V28Q14 28 14 29Q14 30 14 30T14 32Q14 36 15 39T18 46Q20 49 23 52T30
57Q36 59 42 61T52 64Q57 66 60 66T68 68Q70 68 72 68T76 70Q77 70 78 70T80 71L81 72Q82 72 83 73Q86 75 90 79T98 87Q102 92 107 100T120 119L252 332L102 563V563V563Z" />
<glyph unicode="Y" glyph-name="Y" d="M456 64Q466 64 473 62T487 55Q490 53 492 51T495 46Q497 43 498 41T499 36Q499 35 499 34V34V34V34V33V33Q499 27 496 22T488 11Q483 7 475 5T456 2H197Q189 2 182 3T168 9Q161 13 158 19T155 33Q155 34 155 34T155 36Q155
37 155 38T156 40Q156 41 156 41T156 43Q156 44 156 45T158 47Q160 52 166 56T181 61Q190 63 200 64T220 66Q222 66 224 66T228 66Q229 65 231 65T235 65Q237 65 238 65T242 65Q243 65 245 65T248 65Q250 65 251 65T254 65Q256 64 257 64T260 64Q262 64 264 64T269
64V285L80 575Q74 584 70 589T61 597Q57 599 54 600T47 601Q46 601 46 601H45Q44 601 44 601H43Q42 601 42 601H41Q40 601 40 601H39Q37 601 35 601T30 602Q28 603 26 604T21 608Q19 610 18 611T14 615Q13 617 12 619T11 625Q10 625 10 626T10 628Q10 629 10 629T10
631Q10 637 12 642T21 653Q26 658 34 660T53 663H231Q239 663 246 661T259 655Q265 651 268 645T272 631Q272 630 272 630T272 627Q272 626 272 626V625Q271 624 271 624V623Q270 617 268 613T260 605Q256 602 251 601T241 598Q240 598 239 598T237 598Q235 597
234 597T232 597Q230 597 228 597T224 597Q222 596 220 596T215 596Q213 596 211 596T207 596Q204 596 201 596T195 596Q192 596 189 596T183 597Q180 597 177 597T171 597Q168 597 165 597T159 597L310 346L374 477Q379 488 384 497T394 517Q399 527 404 537T416
557Q417 559 418 561T420 565Q421 566 421 567T423 569Q423 570 423 571T425 573Q427 576 428 579T431 585Q432 587 433 588T435 591Q435 593 436 594T438 597Q437 597 435 597T430 597Q428 597 426 597T421 597Q418 596 416 596T411 596Q410 596 409 596T406 596Q404
596 403 596T400 596Q399 596 398 596T396 596Q395 596 395 596T393 596Q384 596 376 597T359 600Q352 602 347 605T340 615Q340 616 340 617T339 619Q338 619 338 620T338 622Q337 624 337 626T337 630Q337 638 339 644T348 654Q354 659 361 661T377 663H520V663Q521
663 522 663Q523 663 523 663T525 663Q533 662 540 660T554 652Q561 648 564 642T568 630Q568 628 568 626T566 621Q565 618 564 616T560 611Q558 608 556 607T552 604Q550 603 548 602T544 601Q543 601 542 601V601Q541 601 540 601V601Q536 600 531 598T521 593Q515
589 508 579T491 551L355 292V64H456V64V64Z" />
<glyph unicode="Z" glyph-name="Z" d="M368 68Q395 68 413 73T438 90Q446 101 452 113T462 140V140L463 141V142V142V142Q463 143 463 144Q465 149 466 153T469 162Q470 164 470 166T472 171Q473 173 474 175T477 179Q479 182 481 185T487 189Q490 191 493 192T499
193V193H500V193V193V193Q501 193 502 193Q508 193 513 191T523 183Q528 178 530 172T533 158Q533 157 533 156V156V156V156V155V155L521 24Q520 14 517 8T507 0Q500 -1 494 -2T479 -4Q477 -4 475 -4T471 -4Q469 -3 467 -3T463 -3Q461 -3 459 -3T455 -3Q453 -2
452 -2T448 -2Q438 -1 429 -1T409 0Q399 0 390 0T371 0Q361 0 351 0T332 0Q322 0 313 0T293 0H152Q151 0 150 0V0Q149 0 148 0V0Q147 0 146 0T143 0Q142 0 141 0T139 0Q126 0 114 1T91 7Q80 11 74 21T66 47V48Q66 48 66 49Q66 50 66 50T66 52Q65 52 65 52T65 54Q65
55 65 55T65 57Q65 68 68 77T75 97Q80 107 85 116T97 134Q98 136 99 137T101 140Q102 141 102 142T104 144V145Q105 146 106 147L404 597H246Q221 597 204 592T178 577Q169 567 163 557T154 535Q153 532 152 530T151 526Q150 524 150 522T149 518Q148 512 147 507T143
496Q142 492 139 488T133 481Q132 480 131 479T127 476Q126 476 126 476L125 475Q124 474 124 474T122 473Q121 472 120 472T116 471Q115 471 114 471V471Q113 471 113 471T111 471Q105 471 100 473T90 481Q86 486 84 492T81 506Q81 507 81 508V508V508Q81 509
81 510L93 640Q93 649 96 655T106 665Q112 668 119 669T133 671V671H134V671V671V671Q135 671 136 671Q137 671 138 671T140 671Q141 671 141 671T143 671H144Q144 671 145 671Q146 670 147 670T149 670Q150 670 150 670T152 670V670Q153 670 154 670Q157 670 160
670T168 670Q171 669 174 669T182 669Q189 668 196 668T210 668Q213 667 216 667T224 667Q226 667 227 667T231 667Q232 666 234 666T238 666Q248 665 258 665T279 664Q290 664 300 664T321 664H448Q464 664 475 662T494 655Q501 651 504 644T508 629Q508 624 507
618T503 606Q500 600 497 594T489 580L148 68H368V68V68Z" />
<glyph unicode="[" glyph-name="bracketleft" d="M229 589V590Q229 590 229 591Q229 592 229 592T229 594Q229 607 231 619T238 641Q243 652 253 657T280 663H400Q408 663 414 661T425 653Q430 648 432 642T434 629Q434 626 434 623T432 617Q431 614 430 611T426
606Q423 602 418 600T404 596Q397 595 389 594T372 593Q371 593 370 593V593Q369 593 368 593V593Q364 593 360 593T352 593Q350 593 348 593T344 594Q342 594 341 594T337 594Q333 594 330 594T324 594Q323 594 322 594T319 595Q318 595 318 595T316 595V-70Q318
-68 320 -68T326 -68Q329 -68 332 -68T338 -68Q341 -68 344 -68T350 -68Q353 -68 356 -68T362 -68Q370 -67 376 -67T390 -67Q397 -67 402 -68T412 -70Q416 -71 419 -73T425 -79Q428 -82 429 -86T432 -94Q432 -95 432 -95T432 -97V-97L433 -98V-98Q433 -99 433 -100V-100Q433
-101 433 -102Q433 -103 433 -103T433 -105Q433 -112 431 -117T424 -127Q420 -132 414 -134T400 -136L280 -138Q264 -136 254 -131T238 -114Q234 -104 232 -92T229 -67Q229 -66 229 -66T229 -64Q229 -63 229 -62V-62V589V589V589Z" />
<glyph unicode="\" glyph-name="backslash" d="M353 -47L165 698Q164 699 164 700T163 702Q163 703 163 703T163 705Q162 706 162 706T162 708Q161 710 161 712T160 717Q159 719 159 721T158 726Q158 727 158 727T157 729V730Q157 730 157 731Q157 732 157 732T157
734V734Q157 735 157 736V736V737V737V737V738Q157 738 157 739Q157 741 157 743T158 748Q158 750 158 752T160 756Q162 761 165 764T173 770Q175 772 178 772T184 774Q187 775 190 775T196 776Q200 776 204 776T212 773Q216 772 219 770T226 764Q231 759 234 754T239
742Q241 736 242 730T245 718V718V718V717V717V717H246V717V717Q246 716 246 716V715Q246 714 246 714T246 712Q246 711 246 711T247 710Q247 709 247 709T248 707L437 -37Q437 -36 437 -37T437 -39Q437 -40 437 -41T439 -43Q439 -44 439 -44T440 -46Q440 -47 440
-47T440 -49Q440 -51 440 -52T442 -56Q442 -57 442 -58T443 -61Q443 -62 443 -63T443 -66Q443 -67 443 -68T444 -71Q444 -72 444 -73T444 -76Q444 -83 442 -89T437 -100Q434 -105 428 -108T414 -114Q413 -114 413 -114T411 -115Q410 -115 410 -115T408 -115Q407
-115 406 -115T404 -115Q394 -114 387 -111T374 -99Q369 -92 365 -84T359 -67Q358 -64 357 -61T355 -55Q354 -52 354 -50T353 -45V-47V-47Z" />
<glyph unicode="]" glyph-name="bracketright" d="M372 589V-64V-63V-64Q372 -65 372 -65T372 -67Q372 -80 370 -92T363 -114Q359 -125 349 -130T322 -136L202 -138Q194 -136 188 -134T177 -126Q173 -122 171 -116T168 -103Q168 -102 168 -101T168 -97Q168 -96
168 -95T170 -91Q170 -90 170 -90T170 -88Q170 -87 170 -87T172 -85Q174 -81 176 -78T183 -73Q186 -71 190 -70T198 -69Q203 -68 208 -68T220 -68Q225 -68 230 -68T242 -68Q244 -68 245 -68T248 -68Q249 -68 250 -68T253 -68Q255 -68 256 -68T259 -68Q260 -68 261
-68T264 -68Q266 -68 267 -68T270 -68Q271 -68 272 -68T275 -68Q277 -68 278 -68T281 -68Q282 -68 283 -68T286 -68V595Q285 595 284 595T281 595Q279 595 278 595T275 595Q274 595 273 595T270 595Q268 595 267 595T264 595Q263 595 262 595T259 595Q257 595 256
595T253 595Q252 595 251 595T248 595Q246 595 245 595T242 595Q236 595 231 595T220 595Q214 595 209 595T198 596Q194 596 190 597T183 600Q179 602 177 605T172 612Q172 613 172 614T171 616Q170 616 170 617T170 619Q169 621 169 623T169 627V627V628V628V628V628Q169
629 169 630Q169 637 171 643T177 653Q182 658 188 660T202 663H322Q339 663 349 657T364 640Q368 628 370 616T372 589V589V589Z" />
<glyph unicode="^" glyph-name="asciicircum" />
<glyph unicode="_" glyph-name="underscore" d="M602 -235Q610 -233 616 -235T626 -244Q630 -250 632 -256T634 -270V-270V-271V-271V-271V-272Q634 -272 634 -273Q634 -281 632 -287T626 -300Q622 -306 616 -309T602 -312L0 -314Q-6 -312 -11 -309T-21 -300Q-25
-294 -27 -288T-30 -276Q-30 -275 -30 -274V-274V-274V-274V-273V-273Q-30 -266 -28 -259T-22 -245Q-18 -239 -13 -236T0 -233L602 -235V-235V-235Z" />
<glyph unicode="`" glyph-name="grave" d="M385 570Q387 569 388 568T391 564Q393 563 393 562T395 558V558Q395 557 396 557Q396 556 396 556V555V554Q396 554 397 554Q397 553 397 552V552V552V552V551V551V551V551V551V551V550V550V550V550Q397 548 397 547T394
543Q393 542 390 541T383 540Q382 540 382 540H381V540V540Q380 540 380 540H379V540V540H378V540Q376 540 374 540T370 541Q368 541 366 541T362 543Q361 543 360 543T359 544Q358 544 357 544T355 545Q354 545 353 545T349 547Q348 547 347 547T343 549Q342 549
342 549T341 550Q340 550 340 550T338 551L170 615Q168 615 166 616T161 618Q159 619 157 620T153 622Q145 625 138 629T124 640Q118 646 115 653T112 667V667V667V667V668V668V668V668V668Q112 671 113 674T115 680Q117 683 119 686T124 693Q128 698 132 701T141
705Q146 707 151 708T161 709Q163 709 164 709T167 709Q169 708 170 708T173 708Q176 707 179 707T186 705Q191 703 196 701T208 695Q211 694 214 692T220 689Q222 687 225 686T231 682Q233 681 234 680T237 678Q238 677 239 676T242 674Q244 672 246 671T252 667L385
570V570V570Z" />
<glyph unicode="a" glyph-name="a" d="M403 56Q384 41 364 29T321 9Q299 1 276 -3T229 -9Q228 -9 228 -9T226 -9Q225 -9 225 -9T223 -9Q222 -9 221 -9T217 -9Q216 -8 215 -8T211 -8Q208 -8 205 -8T199 -8Q177 -5 157 1T118 18Q99 29 87 46T70 86Q69 90 69 94T67
102Q66 107 66 110T66 118Q66 152 80 177T125 219Q155 236 188 247T257 265Q276 268 294 271T332 275Q350 277 366 278T396 280Q396 282 396 283T396 286Q396 287 396 288T396 291Q396 294 396 297T397 303Q397 306 397 309T397 315Q397 317 397 318T397 322Q397
323 397 325T397 328Q397 341 395 353T390 377Q386 389 378 397T355 412Q352 414 349 414T341 416Q337 417 334 417T327 418Q326 418 325 418T324 419Q323 419 322 419T320 419Q319 419 318 419H317Q316 419 315 419T313 419Q305 419 298 419T282 416Q275 415 268
413T253 408Q239 404 230 399T216 388Q212 382 210 376T207 364Q207 363 207 362T207 358Q207 357 207 356V356Q207 355 207 355T207 353Q207 348 207 343T205 333Q204 328 200 324T190 315Q186 313 182 312T174 308Q170 307 167 307T160 306Q150 306 142 310T128
322Q122 330 120 340T117 361V361V362V362V362V362Q117 363 117 364Q117 365 117 365T117 367V368Q117 368 117 369Q117 370 117 370T117 372H118Q118 373 118 374Q118 378 119 382T121 390Q122 393 124 397T128 405Q132 413 138 419T151 430Q162 437 175 443T205
455Q221 460 237 464T270 473Q278 475 286 475T302 477Q310 478 318 478T334 479Q337 479 339 479T345 479Q347 478 349 478T355 478Q357 478 359 478T365 477Q367 476 369 476T374 475Q387 472 399 468T423 456Q434 449 443 440T460 419Q467 408 471 396T476 372Q478
360 478 348T479 322Q479 321 479 321T479 319Q479 318 479 318V317V67Q481 67 483 68T489 70Q492 72 495 73T503 76Q505 77 507 77T512 79Q514 80 516 80T522 82Q524 83 527 83T533 85Q535 85 536 85T539 86Q540 86 541 86T544 86Q549 86 553 85T561 81Q564 79
567 75T571 66Q571 65 571 64V64V64Q571 63 572 63V63V63Q572 62 572 62V61Q572 60 572 60V59Q572 58 572 58V57V57V57V56V56Q572 49 570 44T562 35Q557 31 551 29T538 25Q536 24 534 24T530 22Q528 21 526 21T521 19Q520 19 519 18H518Q517 17 516 17T514 17Q513
17 512 16H511Q510 15 509 15T507 14Q498 11 490 8T474 3Q466 1 459 0T445 -1Q436 -1 429 1T416 10Q410 16 407 27T403 56V56V56ZM396 215Q386 214 377 214T357 213Q347 212 338 212T319 210Q314 209 309 209T300 208Q295 207 290 207T280 205Q270 204 261 202T242
197Q241 197 240 197T237 196Q235 195 234 195T231 194Q230 193 229 193T226 192Q224 191 223 191T220 190Q208 185 197 178T175 162Q165 153 160 142T155 119Q155 115 156 112T158 103Q159 101 159 99T161 95Q162 92 163 90T166 86Q171 77 178 71T196 60Q205 56
215 55T237 53Q242 53 247 53T259 54Q265 55 271 56T283 59Q298 63 312 68T341 81Q355 89 367 96T388 112Q389 113 390 114T392 116Q393 117 394 118T396 120V215V215V215Z" />
<glyph unicode="b" glyph-name="b" d="M108 629Q106 628 104 628T99 627Q96 626 93 626T87 625Q86 625 84 625T81 624Q79 623 78 623T74 622Q71 621 68 621T62 621Q60 620 59 620T55 620Q54 620 53 620T49 620Q43 620 39 621T29 623Q25 625 22 628T16 636Q16 637
16 638T15 640Q14 640 14 641T14 643Q14 644 14 645T13 647V648Q13 649 13 650Q13 656 15 662T22 672Q27 677 32 680T44 685Q46 685 51 686T63 690Q71 692 79 694T97 699H98Q98 699 99 700H100V700Q101 700 101 700T103 701Q114 703 123 705T142 710Q151 712 156
713T163 714Q172 713 178 710T186 701Q188 695 189 689T191 674V416Q210 430 228 439T265 455Q283 461 300 464T335 467Q376 467 411 451T474 403Q503 371 517 331T531 243Q531 239 531 234T530 225Q530 220 530 216T528 206Q527 196 525 187T521 167Q510 124 489
92T436 38Q405 16 371 6T298 -4Q296 -4 294 -4T290 -4Q288 -3 286 -3T282 -3Q280 -3 278 -3T275 -3Q273 -2 271 -2T267 -2Q255 -1 244 0T221 5Q209 8 198 12T176 23Q172 16 168 11T158 1Q155 0 152 -1T147 -4Q144 -5 141 -5T135 -6V-6V-6H134V-6V-6V-6H133V-6Q129
-6 125 -5T117 -2Q113 -1 109 1T101 8Q100 9 100 10T98 12V13Q97 14 97 15Q97 16 97 17T96 19V20Q96 21 96 22Q96 24 96 26T97 30Q97 32 98 34T100 38Q100 39 100 40T101 42V42Q101 43 102 44V44Q102 45 102 46Q104 51 104 56T106 66Q107 71 107 76T108 88Q108
90 108 91T108 94Q108 96 108 98T108 102V629V629V629ZM191 100Q197 94 203 89T217 79Q224 75 230 72T244 65Q250 62 256 60T270 56Q277 55 283 55T297 54Q326 54 351 66T398 103Q419 128 430 159T441 229Q441 230 441 230T441 232V233Q441 234 441 235V236Q441
236 441 237Q441 238 441 238T441 240Q440 268 431 293T405 342Q389 365 366 379T314 398Q313 398 312 398T310 399Q308 399 307 399T305 399Q303 399 301 399T297 399Q284 399 271 396T244 387Q231 381 219 375T196 363Q195 362 195 362T193 361H192V361L191 360V360V100V100V100Z"
/>
<glyph unicode="c" glyph-name="c" d="M397 367Q396 380 390 389T374 405Q364 411 353 414T329 417Q327 417 325 417T320 417Q318 416 316 416T311 416Q307 415 303 415T293 412Q282 409 271 405T249 394Q239 388 230 381T213 365Q202 352 194 338T179 306Q173
290 171 273T168 239Q168 206 177 176T206 119Q226 91 253 76T317 59Q318 59 318 59T320 59H321Q322 59 323 59H324Q324 59 325 59Q326 59 326 59T328 59Q342 59 356 61T384 67Q398 71 411 75T437 84Q449 89 460 93T482 102Q493 106 502 108T518 110Q522 110 525
110T532 107Q535 106 537 104T542 98Q542 97 542 96T544 94Q544 93 544 92T546 90Q546 89 546 88T546 86Q546 85 546 85T547 84Q547 83 547 82V82Q547 73 541 65T523 48Q511 41 499 34T472 22Q460 17 450 13T428 6Q418 3 411 2T401 0Q390 -2 379 -4T355 -8Q343
-10 332 -10T309 -11Q293 -11 278 -9T247 -4Q232 -1 217 4T188 16Q160 32 139 54T103 104Q88 133 81 163T74 224Q74 229 74 233T75 242Q75 247 75 252T77 262Q82 302 99 336T145 399Q174 428 207 446T280 473Q285 474 289 475T299 477Q304 477 309 478T319 480Q330
482 340 482T362 483Q367 483 372 483T384 481Q389 480 394 480T405 478Q416 477 425 474T445 465Q454 460 462 454T478 439Q485 431 488 422T492 401Q492 400 492 400V399V399V399Q492 398 492 398V397V397V397V396V396Q492 395 492 394V393Q492 392 492 391T492
389Q492 388 492 387V386Q492 385 492 384T492 382Q492 378 492 375T492 367Q492 363 492 360T492 353Q491 346 491 339T488 325Q487 318 485 313T481 305Q478 301 475 298T466 292Q462 290 457 289T446 288Q442 288 438 288T430 290Q426 292 423 293T416 297Q412
301 409 305T403 316Q402 322 401 328T399 341Q399 342 399 343T398 345V346Q398 347 398 348Q398 349 398 350T398 352V353Q398 354 398 355Q398 356 398 356T398 358Q397 359 397 359T397 361Q397 363 397 364T397 367V367V367Z" />
<glyph unicode="d" glyph-name="d" d="M398 24Q392 20 387 17T376 11Q370 8 365 6T354 1Q345 0 337 -2T320 -6Q312 -8 304 -9T286 -10Q283 -10 281 -10T276 -10Q273 -9 271 -9T266 -9Q262 -8 257 -8T246 -6Q203 1 170 22T113 78Q89 113 78 151T66 231Q66 286 82
330T129 407Q161 440 199 456T283 473Q293 473 303 472T324 469Q329 468 334 467T346 464Q351 462 356 461T367 458Q371 457 374 456T382 452Q385 451 388 450T396 446V629Q394 628 392 628T387 627Q384 626 381 626T375 625Q374 625 372 625T369 624Q367 623 366
623T362 622Q359 621 356 621T350 621Q348 620 347 620T343 620Q342 620 341 620T337 620Q331 620 327 621T317 623Q313 625 310 628T304 636Q304 637 304 638T303 640Q302 640 302 641T302 643Q302 644 302 645T301 647V648Q301 649 301 650Q301 656 303 662T310
672Q315 677 320 680T332 685Q334 685 338 686T351 690Q359 692 368 694T387 699V699L388 700V700H389H390Q390 700 391 700Q402 703 412 705T431 710Q440 712 445 713T451 714Q460 713 465 710T474 701Q476 695 477 689T479 674V78Q481 78 483 78T487 80Q489 81
491 81T497 83Q499 83 501 83T505 85Q506 85 507 85T509 86H510Q511 87 512 87Q513 87 514 87T517 88Q518 88 519 88T521 88Q522 88 523 88T526 89Q527 89 528 89T530 89V89Q531 89 532 89Q532 88 532 88H533Q534 88 535 88T537 88Q538 88 539 88T541 87Q541 86
542 86T544 86Q545 86 546 86T548 84H549Q550 83 551 82Q553 80 555 78T558 73Q560 70 560 68T561 63Q561 59 560 56T557 49Q556 46 554 43T548 38Q545 37 541 35T528 30Q521 27 514 25T498 20Q491 17 485 15T472 11Q466 9 461 8T453 4Q451 3 449 3T444 2Q442 1
440 1T436 1Q430 1 425 2T415 7Q411 10 407 14T398 24V24V24ZM396 372Q390 377 385 380T374 387Q368 390 363 393T352 398Q346 400 340 401T329 404Q323 405 318 405T307 406Q276 406 250 393T201 354Q179 328 168 297T155 227Q155 226 155 226T155 224Q155 223
155 222T155 220Q155 183 165 153T197 100Q218 78 243 67T299 56Q310 56 322 58T346 64Q358 68 370 74T396 88V372V372V372Z" />
<glyph unicode="e" glyph-name="e" d="M153 221Q155 183 166 153T199 102Q220 80 250 70T321 59Q325 59 329 59T337 59Q341 59 345 59T353 61Q364 63 374 65T395 70Q406 73 416 77T436 85Q442 87 448 89T459 94Q465 96 470 98T480 102Q490 106 497 108T511 110V110V110V110H512V110V110V110V110Q513
110 514 110V110V110Q515 110 516 110Q522 109 526 106T533 100Q535 96 536 93T538 84Q538 83 538 83T538 81Q537 80 537 80T537 78Q537 77 537 77T537 75Q536 74 536 74V73Q535 70 534 67T530 61Q528 58 526 56T521 51Q510 42 496 34T465 20Q449 13 431 8T395
0Q382 -2 370 -4T345 -8Q332 -10 321 -10T299 -11Q298 -11 298 -11H297Q296 -11 296 -11T294 -11Q293 -11 292 -11T290 -11Q235 -10 193 7T120 59Q90 93 75 134T61 223Q61 233 61 242T63 262Q65 272 66 282T71 302Q82 343 104 375T160 432Q195 457 232 469T309
482Q311 482 313 482T318 482Q320 481 322 481T327 481Q332 481 336 481T346 479Q351 478 355 478T364 475Q366 474 368 474T373 473Q375 472 377 472T382 470Q409 461 432 444T474 400Q493 375 504 348T520 291Q520 289 520 287T521 284Q521 282 521 281T521 277Q521
275 521 273T522 270Q522 268 522 267T522 263Q522 262 522 262V261Q522 260 522 260T522 258Q522 257 522 256T522 254Q521 244 518 237T506 227Q499 224 491 222T474 220Q473 220 472 220T470 220Q469 220 468 220T466 220Q464 220 462 220T458 220Q456 220 455
220T451 221Q449 221 448 221T444 221Q443 221 442 221T438 221H153V221V221ZM153 276L432 286Q426 310 416 332T389 375Q373 395 351 404T301 414Q269 413 244 404T200 374Q181 355 170 331T153 276V276V276Z" />
<glyph unicode="f" glyph-name="f" d="M453 62Q463 61 470 59T483 51Q488 47 490 42T493 30Q492 24 490 19T482 9Q478 5 471 3T453 0H137Q128 0 121 2T108 10Q103 15 101 21T98 34Q98 38 99 41T103 48Q106 51 110 54T119 59Q120 59 120 59T122 60Q123 60 123 60T125
60Q126 60 127 60T129 61H130Q131 61 132 61Q133 61 133 61T135 61H136Q136 61 137 62H138Q138 62 139 62Q140 62 141 62T144 62Q145 61 146 61T149 61Q151 61 153 61T158 61Q159 61 160 61T163 61Q164 60 165 60T168 60Q170 60 172 60T177 60Q185 60 191 61T203
66Q208 69 211 75T214 91V403Q213 403 212 403T209 403Q208 402 207 402T204 402Q201 402 198 402T192 402Q190 402 188 402T185 402Q183 401 182 401T178 401Q174 401 171 401T163 401Q162 401 162 401H161V401V401H160V401Q148 401 138 402T117 407Q107 410 102
417T97 435Q97 446 102 452T117 463Q127 466 137 468T160 470V470H161V470V470H162Q162 470 163 470Q165 470 167 470T171 470Q172 469 174 469T178 469Q181 469 184 469T192 469Q194 469 195 469T198 469Q200 468 201 468T204 468Q207 468 209 468T214 468Q214
470 214 472T214 477Q214 479 214 481T214 486Q214 487 214 488T214 490V491Q214 492 214 493Q214 495 214 497T214 501Q214 517 215 533T217 565Q219 581 224 596T238 626Q249 646 265 660T301 684Q321 693 343 697T387 703Q390 703 393 703T401 703Q404 702 408
702T417 702Q426 701 435 701T453 698Q464 697 473 695T493 690Q502 688 510 685T526 679Q531 676 535 673T540 665Q541 663 541 661T542 656Q543 653 543 651T543 646Q543 645 543 645T543 643Q543 642 543 641V640Q543 639 543 638V638Q542 637 542 636V636Q542
635 542 635T542 633Q541 626 538 621T532 612Q529 609 524 608T513 606Q512 606 512 606H511Q510 606 510 606H509Q502 607 495 608T479 611Q472 613 465 615T449 619V619V619H448V619V619V619H447V619Q443 620 439 621T432 623Q428 624 424 625T416 627Q412 628
408 628T401 630Q397 631 393 631T385 632Q384 632 383 632T381 633Q380 633 379 633T377 633Q375 633 373 633T369 633Q344 632 329 624T307 599Q300 583 297 564T294 525Q294 522 294 520T294 515Q294 513 294 511T294 506Q294 505 294 504T294 501Q294 500 294
500V499Q294 498 294 498T295 496Q295 492 295 489T295 482Q295 478 295 475T295 468H453Q454 468 454 468T456 468Q457 468 458 468T460 468Q468 467 474 465T487 460Q493 456 496 450T500 436Q500 427 497 421T487 411Q481 408 475 406T460 403Q459 403 458 403T456
403Q455 403 455 403T453 403H297V95Q297 86 298 80T302 70Q304 66 310 64T325 62H453V62V62Z" />
<glyph unicode="g" glyph-name="g" d="M253 145Q249 143 245 141T237 136Q233 133 230 131T225 126Q221 122 218 118T212 110Q210 106 209 103T208 96Q208 91 210 87T217 79Q222 76 228 75T244 73L395 76Q397 76 399 76T404 76Q406 76 408 76T414 76Q436 75 457
70T497 55Q517 46 531 30T553 -8Q555 -13 556 -18T558 -29Q559 -34 559 -39T560 -49Q559 -78 547 -102T512 -146Q488 -166 463 -179T409 -200Q408 -200 408 -200H407V-200V-201H406V-201Q391 -205 375 -208T340 -214Q321 -216 303 -217T265 -219Q236 -219 209 -215T155
-201Q129 -192 110 -176T76 -135Q72 -128 69 -122T64 -108Q63 -101 62 -95T61 -82Q61 -64 66 -47T84 -15Q96 0 109 13T137 40Q130 44 125 48T117 57Q114 62 113 67T111 77Q111 79 111 81T112 87Q113 90 114 93T117 99Q119 102 120 105T124 111Q126 113 128 116T132
122Q137 128 142 133T152 144Q156 148 159 151T167 159Q169 161 171 162T174 166Q176 167 178 169T181 172Q156 186 137 201T107 236Q96 255 91 274T85 314Q85 347 98 376T137 433Q163 460 195 473T268 487Q283 487 299 484T333 476Q350 471 367 463T401 442H504Q512
442 519 440T533 432Q539 427 542 420T545 405Q545 404 545 404V403Q545 402 545 402V401Q544 400 544 400V399V399V399V398V398Q543 390 539 385T527 376Q519 373 510 372T492 371Q491 371 490 371V371V371V371H489V371Q485 371 482 371T475 371Q474 371 473 371T469
372Q468 372 467 372T463 372Q460 372 457 372T451 372Q450 372 449 372T446 373Q445 373 444 373T442 373Q445 363 448 354T452 336Q454 327 455 318T456 300Q456 288 454 276T449 253Q445 242 439 232T425 210Q412 194 397 183T365 167Q349 162 332 158T296 152Q290
151 285 150T274 148Q269 147 264 147T253 145V145V145ZM190 13Q180 5 172 -4T156 -23Q149 -34 145 -45T141 -68Q141 -72 141 -75T143 -83Q144 -87 145 -91T149 -99Q157 -114 169 -124T198 -141Q215 -146 233 -149T270 -152Q271 -152 272 -152T274 -152Q275 -152
276 -152T278 -152Q292 -151 305 -150T332 -147Q346 -145 357 -143T378 -138Q380 -137 382 -137T386 -136Q388 -135 390 -135T395 -133Q400 -132 404 -131T414 -127Q428 -121 440 -113T465 -95Q476 -85 482 -73T488 -46Q488 -45 488 -43T487 -40Q487 -38 487 -37T486
-33Q485 -30 485 -27T482 -19Q477 -9 470 -3T451 7Q441 11 430 13T406 16Q402 16 398 16T390 16Q386 16 382 16T375 16Q374 16 373 16T369 16Q368 16 367 16T363 16L190 13V13V13ZM368 263Q370 268 372 272T375 282Q377 287 377 292T379 302Q379 303 379 304T380
306V307Q380 308 380 309Q380 310 380 311T380 313V314Q380 315 380 316Q380 327 378 338T373 359Q369 370 364 379T352 395Q345 403 337 409T317 419Q307 423 296 425T273 427Q272 427 272 427T270 427Q269 427 269 427T267 427Q254 426 242 423T219 415Q207 410
198 403T183 384Q178 377 174 369T168 352Q167 348 166 344T165 335Q164 330 164 326T164 317Q164 316 164 315T164 313Q164 312 164 312T164 310Q164 298 167 287T175 265Q180 255 186 246T202 230Q209 225 216 221T232 214Q240 211 248 210T265 208V208H266V208V208V208Q267
208 268 208V208V208V208Q269 208 270 208V208Q271 208 272 208Q273 208 273 208T275 208Q289 208 303 212T330 223Q343 230 352 240T368 263V263V263Z" />
<glyph unicode="h" glyph-name="h" d="M399 0Q392 0 386 2T374 9Q369 14 367 19T364 32V32Q364 33 364 34V34L365 35V36V36Q365 37 365 38T365 40Q365 41 365 41T366 43V44Q367 44 367 45Q369 50 372 54T380 59Q385 61 390 61T401 63Q403 63 404 63T407 63Q409
63 410 63T413 63Q414 63 414 63T416 63V63Q417 63 418 63Q418 68 418 73T419 85Q419 90 419 95T419 107Q419 118 419 129T421 153Q421 158 421 163T422 175Q422 180 422 185T422 197Q422 203 422 208T423 220Q423 225 423 230T423 242Q423 245 423 248T423 254Q423
257 423 260T423 266Q422 268 422 271T422 277Q422 280 422 283T422 289Q422 291 422 293T422 297Q421 299 421 301T421 305Q421 307 421 309T421 313Q420 315 420 317T420 321Q419 331 416 340T409 359Q405 368 399 376T384 390Q377 395 370 398T355 403Q351 404
347 404T340 406Q336 406 332 406T324 407Q323 407 321 407T318 407Q316 406 315 406T311 406Q310 406 309 406T305 406Q304 405 303 405T299 405Q287 403 275 400T252 392Q241 388 231 384T209 374Q206 373 204 372T199 369Q197 368 195 367T191 365V63Q193 63
195 63T199 63Q200 63 201 63T204 64Q206 64 207 64T210 64Q212 64 215 64T221 64Q223 64 224 64T227 65Q229 65 230 65T233 65Q242 65 251 64T268 61Q276 59 281 55T289 44Q289 43 289 43T290 42Q290 41 290 40V40V40Q290 39 291 39Q291 38 291 38V37Q291 36 291
36T292 35Q292 34 292 34V33Q292 32 292 32T292 30Q291 23 288 18T279 8Q273 4 267 2T252 0H86Q79 0 73 2T61 9Q56 14 54 19T51 31V31V31V31V32V32V32V32V32V32V33V33V33Q51 35 51 36T51 39Q51 41 51 42T53 45Q55 50 59 54T68 59Q73 61 79 62T91 63Q92 63 92 63T94
63V63Q95 63 96 63Q98 63 99 63T102 63Q103 63 103 63T105 63Q106 63 107 63T109 63V629Q107 628 105 628T99 627Q98 627 97 627T94 626Q92 625 91 625T88 625Q87 625 86 625T83 624Q81 623 80 623T77 623Q76 623 75 623T72 622Q70 621 69 621T66 621Q65 621 64
621T62 621Q61 620 60 620T58 620Q56 620 54 620T50 620Q44 620 40 621T30 623Q26 625 23 628T17 636Q17 637 17 638T16 640Q15 640 15 641T15 643Q15 644 15 645T14 647V648Q14 649 14 650Q14 656 16 662T23 672Q28 677 33 680T44 685Q46 685 51 686T63 690Q71
692 79 694T97 699H98Q98 699 99 700H100V700Q101 700 102 700T104 701Q115 703 124 705T143 710Q152 712 157 713T164 714Q173 713 178 710T186 701Q188 695 189 689T191 674V421Q210 432 229 442T270 462Q291 471 313 475T357 480Q359 480 361 480T367 479Q369
478 371 478T376 478Q381 477 386 477T396 475Q429 468 451 452T483 410Q494 385 499 358T504 300V63Q506 63 508 63T512 63Q513 63 514 63T517 64Q518 64 519 64T522 64Q524 64 526 64T532 64Q534 64 535 64T538 65Q540 65 541 65T544 65V65Q545 65 546 65V65Q547
65 548 65Q555 65 561 64T574 60Q580 58 584 54T592 44Q593 42 593 41T594 37Q594 36 594 36T595 34Q595 33 595 33T595 31Q594 24 591 19T583 9Q577 5 571 3T557 0H399V0V0Z" />
<glyph unicode="i" glyph-name="i" d="M271 398L127 388Q126 388 126 388H125V388V388H124V388Q123 388 122 388T120 388Q119 388 119 388T117 388Q111 389 106 391T96 396Q92 399 90 403T87 415V415V416V416V416V416Q87 417 87 418Q88 428 92 434T106 445Q114
448 123 450T143 454Q145 454 146 454T150 454Q151 454 153 454T156 454Q158 454 159 454T163 455Q164 455 166 455T169 455Q171 455 172 455T175 455Q176 455 177 455T180 455Q182 455 184 455T189 455Q191 455 193 455T197 456Q199 456 201 456T205 456Q207 456
209 456T214 457Q216 457 218 457T222 458Q230 460 238 461T255 464Q263 466 271 468T288 473V473Q289 473 290 474V474Q291 474 292 474Q293 474 293 474T295 475L296 476Q296 476 297 476H298Q299 476 300 477V477Q301 477 302 478V478Q303 478 304 478Q306 478
307 478T311 480Q312 480 313 480T315 481Q316 481 317 481T319 481V481H320V481V481V481Q321 481 322 481V481H323V481V481H324Q324 481 325 481V481V481H326Q326 481 327 481Q335 480 340 477T349 469Q351 463 352 457T354 442V98Q354 91 355 85T359 73Q362 67
367 65T381 62V62V62V62H382V62V62V62V62V62H383V62V62H521Q531 62 538 60T551 52Q556 48 558 43T561 32V32V32V31V31V31V31V31V31V30V30V30V30Q561 24 559 19T551 9Q546 5 539 3T521 0H139Q129 0 121 2T108 9Q103 14 100 18T97 28V28V29V29V29V30Q97 30 97 31Q97
36 100 41T108 51Q113 56 121 58T139 61H241Q252 61 259 64T267 74Q269 80 270 87T271 104V104V104V104Q271 105 271 106V398V398V398ZM285 528Q273 533 264 539T250 553Q245 561 243 569T240 587Q240 588 240 589T240 591Q240 592 240 593T241 595Q243 609 249
622T267 648Q279 660 293 666T323 672Q327 672 331 672T339 670Q341 669 343 669T348 667Q350 666 352 665T356 663Q365 658 372 652T383 638Q387 631 389 624T391 608Q391 607 391 607T391 605Q391 604 391 604V603Q390 588 383 574T365 548Q353 536 340 530T311
524V524V524H310V524V524V524V524V524H309V524V524V524Q306 524 303 524T297 525Q294 525 291 526T285 528V528V528Z" />
<glyph unicode="j" glyph-name="j" d="M323 398L183 388Q182 388 182 388H181Q180 388 180 388T178 388Q177 388 176 388T174 388Q173 388 172 388T170 388Q164 389 159 390T148 395Q143 398 141 402T138 414Q138 415 138 416V416V416Q138 417 138 418Q139 428
143 434T157 445Q165 448 174 450T194 454Q196 454 197 454T201 454Q202 454 204 454T207 454Q209 454 210 454T214 455Q215 455 217 455T220 455Q222 455 223 455T226 455Q227 455 228 455T231 455Q233 455 235 455T240 455Q242 455 244 455T248 456Q250 456 252
456T256 456Q258 456 260 456T265 457Q267 457 269 457T273 458Q281 460 289 461T306 464Q314 466 322 468T339 473H340Q340 473 341 474H342Q342 474 343 474Q344 474 344 474T346 475V476Q347 476 348 476H349Q350 476 351 477H352Q352 477 353 478H354Q354 478
355 478Q357 478 358 478T362 480Q363 480 364 480T366 481Q367 481 368 481T370 481V481H371V481V481H372Q372 481 373 481V481H374V481V481V481Q375 481 376 481V481V481V481Q377 481 378 481Q386 480 391 477T400 469Q402 463 403 457T405 442V-2V-4Q405 -5
405 -6Q405 -8 405 -9T405 -12Q405 -14 405 -16T405 -21Q405 -23 405 -25T405 -29Q405 -34 405 -38T405 -47Q404 -58 404 -69T401 -93Q400 -105 397 -116T388 -138Q381 -156 369 -169T339 -192Q322 -201 304 -206T268 -215Q262 -216 257 -216T246 -217Q243 -217
241 -217T236 -218Q233 -218 231 -218T226 -218Q220 -218 211 -218T190 -215Q178 -214 166 -212T140 -207Q122 -203 106 -198T75 -184Q60 -177 53 -167T46 -144Q46 -143 46 -143T46 -141Q46 -140 46 -140T47 -139Q47 -138 47 -137V-136V-136Q47 -135 48 -135Q48
-134 48 -134V-133Q50 -126 53 -121T61 -112Q66 -109 71 -108T83 -106Q85 -106 87 -106T92 -107Q94 -107 96 -107T101 -109Q103 -110 105 -110T111 -112Q113 -113 115 -114T120 -116Q122 -117 124 -118T129 -120Q131 -121 133 -122T137 -124Q138 -124 139 -124T141
-126H142Q143 -127 144 -127Q146 -128 147 -129T151 -131Q154 -133 158 -134T165 -138Q169 -139 173 -141T181 -144Q189 -147 198 -149T219 -152Q220 -152 220 -152T222 -152H223Q224 -152 225 -152H226Q226 -152 227 -152Q228 -152 228 -152T230 -152Q260 -152
279 -142T307 -109Q315 -87 319 -63T324 -13Q324 -12 324 -11T324 -9Q324 -8 324 -8V-7Q324 -5 324 -3T324 1Q324 3 324 5T324 9Q324 11 324 13T324 19Q324 21 324 23T324 28Q324 30 324 32T323 37Q323 39 323 41T323 45Q323 47 323 49T323 54Q323 56 323 58T323
62V398V398V398ZM297 528Q285 533 277 539T263 553Q258 561 256 569T253 587Q253 589 253 590T253 593Q253 594 253 594T254 596Q254 597 254 597T254 599Q256 613 263 625T282 649Q293 660 306 666T335 672Q336 672 337 672T339 672Q340 671 341 671T343 671Q344
671 345 671T348 671Q349 670 350 670T352 670Q354 669 356 669T360 667Q362 666 364 665T369 663Q378 658 385 652T396 638Q400 631 402 624T404 608Q404 607 404 607T404 605Q404 604 404 604V603Q403 588 396 574T378 548Q366 536 353 530T323 524V524V524H322V524V524V524V524V524H321V524V524V524Q318
524 315 524T309 525Q306 525 303 526T297 528V528V528Z" />
<glyph unicode="k" glyph-name="k" d="M109 629Q107 628 105 628T99 627Q98 627 97 627T94 626Q92 625 91 625T88 625Q87 625 86 625T83 624Q81 623 80 623T77 623Q76 623 75 623T72 622Q70 621 69 621T66 621Q65 621 64 621T62 621Q61 620 60 620T58 620Q56 620
54 620T50 620Q44 620 40 621T30 623Q26 625 23 628T17 636Q17 637 17 638T16 640Q15 640 15 641T15 643Q15 644 15 645T14 647V648Q14 649 14 650Q14 656 16 662T23 672Q28 677 33 680T45 685Q47 685 51 686T64 690Q72 692 81 694T100 699V699L101 700H102V700V700Q103
700 104 700Q115 703 125 705T144 710Q153 712 158 713T164 714Q173 713 178 710T186 701Q188 695 189 689T191 674V244Q213 264 235 284T279 326Q290 337 301 347T324 368Q335 378 346 388T369 409Q368 409 367 409T365 409H364Q364 409 364 410Q363 410 362 410V410Q361
410 360 410V410Q359 410 359 410T357 410Q356 410 355 410T351 412Q345 412 340 413T329 418Q324 420 321 424T317 436V436V437V437V437V438Q317 438 317 439H316Q316 439 316 440V440V440V440Q316 441 316 442Q316 448 319 452T326 460Q331 462 336 464T347 467Q348
467 349 467T351 468Q352 468 353 468T355 468Q357 468 359 468T363 468H513Q521 467 526 465T536 459Q540 455 542 451T544 441Q544 436 542 432T536 422Q532 418 526 416T511 412Q486 409 464 401T422 378Q403 364 384 349T346 316Q345 315 344 314V314Q343 313
343 313T341 312Q340 311 340 310H339Q338 309 338 309T337 307Q334 305 332 303T327 298Q325 296 323 294T318 290Q323 283 330 273T348 247Q359 232 370 217T394 185Q397 181 400 177T408 167Q411 163 414 159T422 150Q436 134 448 120T473 95Q485 83 495 78T514
72V72V72V72H515V72V72V72V72V72H516V72V72Q518 72 521 73T527 75Q529 76 530 76T534 78Q536 78 538 78T542 80Q543 80 544 80T546 82Q548 82 549 82T552 84Q555 85 558 85T564 87Q567 88 570 88T576 89Q581 89 584 88T591 83Q594 80 595 76T598 63Q598 56 596
51T588 40Q583 36 578 32T566 25Q564 24 562 23T558 21Q556 20 555 20T551 18Q550 18 550 18L549 17Q548 16 548 16T546 15Q545 15 544 14V14Q543 13 543 13T541 13Q540 12 539 12T537 11Q536 10 536 10T534 9Q528 6 523 4T512 0Q506 -1 500 -2T488 -4V-4V-4H487V-4V-4V-4H486V-4Q476
-3 466 0T445 12Q435 20 427 28T411 47Q407 52 403 56T396 65Q393 70 390 73T384 81Q368 100 353 119T322 158Q307 178 292 198T263 238L192 172Q192 166 192 161T192 151Q192 146 192 142T192 133Q191 108 192 93T194 73Q196 69 202 66T221 63H222Q222 63 223
63Q224 63 224 63T226 63Q228 63 229 63T232 63Q234 62 235 62T239 62Q241 62 243 62T247 62Q250 61 252 61T257 61Q263 60 268 58T276 50Q279 46 280 41T282 31Q282 30 282 30V29V29V29V28V28Q281 23 279 19T273 9Q269 5 264 3T252 0H91Q84 0 77 2T63 8Q57 12
54 18T51 31Q51 32 51 33T51 35V36Q51 36 52 37V38Q52 38 52 39V39L53 40V40V41V41L54 42V42V43Q56 48 60 52T69 57Q74 59 79 60T90 62Q91 62 92 62T94 62H95Q96 62 97 62Q98 62 99 62T101 62H102Q103 62 104 62Q105 62 105 62T107 62H108Q108 62 109 62V629V629V629Z"
/>
<glyph unicode="l" glyph-name="l" d="M271 632L143 622Q142 622 142 622T140 622Q139 622 139 622T137 622Q129 622 123 624T113 630Q109 634 107 638T105 648V648Q105 649 105 650Q105 651 105 651T106 653Q107 659 111 664T122 674Q130 679 140 681T165 685Q171
685 177 685T190 687Q196 687 202 687T214 689Q226 691 238 692T262 697Q265 697 268 698T276 700Q278 701 279 701T283 703Q284 703 286 703T290 705Q292 705 293 705T296 707Q298 707 299 707T302 709Q304 710 306 710T312 712Q314 712 316 712T322 714Q323 714
323 714T325 714H326Q326 714 327 714Q335 714 340 711T349 702Q351 696 352 690T354 675V98Q354 91 355 85T359 73Q362 67 367 65T381 62V62V62V62H382V62V62V62V62V62H383V62V62H521Q531 62 538 60T551 52Q556 48 558 43T561 32V32V32V31V31V31V31V31V31V30V30V30V30Q561
24 559 19T551 9Q546 5 539 3T521 0H122Q113 0 107 2T96 9Q92 14 89 18T86 28V28V29V29V29V30Q86 30 86 31Q86 36 88 41T95 51Q100 56 106 58T122 61H244Q253 61 259 64T267 73Q269 79 270 86T271 101V632V632V632Z" />
<glyph unicode="m" glyph-name="m" d="M315 424Q317 425 318 425T321 427Q323 428 324 429T327 431Q339 439 352 445T379 458Q393 464 407 467T436 471V471H437V471V471H438Q438 471 439 471Q441 471 443 471T447 471Q449 470 451 470T455 470Q459 469 463 469T471
467Q495 460 511 448T536 415Q544 396 549 376T556 334Q556 332 556 330T557 325Q557 322 557 320T557 315Q557 311 557 307T557 297V62Q559 62 561 62T565 62Q567 62 569 62T574 62Q575 62 576 62T578 62Q579 62 579 62T581 62Q586 61 591 61T601 58Q606 57 609
54T615 45Q616 43 616 41T617 37Q617 36 617 36T618 34Q618 33 618 33T618 31Q618 24 616 19T609 9Q605 5 599 3T586 0H471Q464 0 458 2T447 9Q443 14 441 19T439 31V31V32V32V32V32Q439 33 439 34Q439 36 440 38T442 44Q444 46 446 48T451 53Q456 58 464 60T484
62V296V296V297V297V297V297V298V298V298Q484 301 484 305T484 313Q484 315 484 317T484 321Q483 323 483 325T483 329Q482 341 480 352T472 374Q467 385 458 391T434 398Q433 398 432 398V398H431V398Q430 398 430 398H429Q428 398 428 398H427Q415 398 404 396T382
389Q371 384 361 379T342 367Q343 357 343 348T344 329Q344 324 344 319T345 310Q345 305 345 301T345 291V62Q346 62 346 62T348 62Q349 62 350 62T352 62Q354 62 355 62T358 62Q360 62 361 62T364 62Q372 62 379 61T393 56Q399 53 402 47T406 31Q406 23 404 17T396
7Q392 3 386 2T372 0Q366 0 360 0T346 0Q342 0 339 0T332 0Q328 0 325 0T317 0Q316 0 315 0T312 0Q311 0 310 0T308 0Q305 0 302 0T295 0Q291 0 288 0T282 0Q275 0 269 1T258 3Q254 4 251 6T246 12Q244 15 243 19T240 28V28V29V29V29V30Q240 30 240 31Q240 39 242
45T249 54Q254 57 259 59T272 61V290Q272 291 272 291T272 293Q272 294 272 294T272 296Q272 299 272 302T272 308Q272 311 272 314T272 320Q271 334 269 347T261 373Q256 385 245 392T216 402Q215 402 215 402T213 402Q212 402 212 402T211 403Q210 403 210 403T208
403Q207 403 206 403V403Q197 402 188 401T171 397Q162 394 154 391T138 384V62Q140 62 142 62T148 62Q150 62 153 62T159 62V62H160V62V62V62Q161 62 162 62Q169 62 175 61T188 58Q194 56 197 51T202 38Q202 37 202 36V36Q202 35 202 35T203 34Q203 33 203 32V32Q203
31 203 30V30Q203 22 200 16T192 7Q187 3 180 2T165 0H57Q49 0 43 2T31 9Q26 14 24 19T21 32Q21 33 21 34T21 36L22 37Q22 38 22 39Q22 41 22 43T24 47Q26 52 28 55T35 59Q39 61 43 61T51 62Q52 62 53 62T55 62Q56 62 56 62T58 62V62Q59 62 60 62V62V62V62Q61 62
62 62V395Q60 395 58 395T53 393Q52 393 51 393T48 392Q46 391 45 391T42 391Q41 391 40 390H39Q38 389 37 389T35 389Q34 389 33 389T31 389Q30 388 29 388T27 388Q26 388 25 388H24Q23 387 22 387T20 387Q19 387 18 387T14 387Q10 387 7 388T0 390Q-2 391 -4
392T-9 397Q-9 398 -9 398T-11 400Q-11 401 -11 402T-13 404V405Q-13 406 -13 407V408Q-13 408 -14 409V410V410V410V411V411V411V412Q-14 412 -14 413Q-14 415 -14 417T-13 422Q-12 424 -11 426T-8 430Q-5 434 -2 437T6 442Q8 442 11 443T22 446Q29 448 36 450T53
455V455H54V455V455V455L55 456H56V456Q64 458 72 460T88 464Q96 466 100 467T106 468Q114 468 119 466T125 458Q127 453 127 448T128 436V436V436V435V435V435V435V435V435V434V434V434V434V433V433Q136 442 146 449T166 461Q177 466 188 469T210 473Q211 473
211 473T213 474H214Q214 474 215 474Q217 474 218 474T221 474Q234 474 246 471T272 462Q284 456 295 447T315 424V424V424Z" />
<glyph unicode="n" glyph-name="n" d="M396 0Q389 0 384 2T374 9Q370 14 368 19T365 30V30V30V30Q365 31 365 32Q365 33 365 33T365 35Q365 36 365 37T365 39V40Q365 41 365 42Q365 43 365 43T367 45Q369 50 372 54T380 59Q385 61 390 62T401 63Q402 63 402 63T404
63V63Q405 63 406 63Q408 63 409 63T412 63H413Q414 63 415 63Q416 63 416 63T418 63Q418 68 418 73T419 85Q419 90 419 95T419 107Q419 118 419 129T421 153Q421 158 421 163T422 175Q422 180 422 185T422 197Q422 203 422 208T423 220Q423 225 423 230T423 242Q423
245 423 248T423 254Q423 257 423 260T423 266Q422 268 422 271T422 277Q422 280 422 283T422 289Q422 291 422 293T422 297Q421 299 421 301T421 305Q421 307 421 309T421 313Q420 315 420 317T420 321Q419 331 416 340T409 359Q405 368 399 376T384 390Q377 395
370 398T355 403Q351 404 347 404T340 406Q336 406 332 406T324 407Q323 407 321 407T318 407Q316 406 315 406T311 406Q310 406 309 406T305 406Q304 405 303 405T299 405Q287 403 275 400T252 392Q241 388 231 384T209 374Q206 373 204 372T199 369Q197 368 195
367T191 365V63Q193 63 195 63T200 63Q201 63 202 63T205 64Q206 64 207 64T210 64Q212 64 214 64T218 64Q219 64 220 64T223 65Q224 65 225 65T228 65H229Q230 65 231 65Q232 65 232 65T234 65V65H235V65V65H236Q236 65 237 65Q246 65 255 64T272 60Q280 57 285
52T291 38Q291 37 291 36V36V36Q291 35 292 35V34V34Q292 33 292 32V32Q292 31 292 30V30Q292 23 289 18T280 8Q274 4 268 2T254 0H84Q77 0 72 2T61 9Q56 14 54 19T51 30V30V31V31V31V32Q51 32 51 33Q51 35 51 36T51 39Q51 41 51 42T53 45Q55 51 59 55T69 60Q74
62 80 62T92 63Q94 63 96 63T101 63Q103 63 105 63T109 63V394Q107 394 105 394T99 392Q98 392 96 392T93 391Q91 390 90 390T86 390Q83 389 81 389T76 388Q75 388 74 388T71 388Q69 387 68 387T65 387Q64 387 63 387T61 387Q60 386 59 386T57 386Q55 386 53 386T49
386Q44 386 40 386T31 388Q27 389 24 391T19 396Q17 398 16 400T13 406Q13 408 13 409T12 412Q12 413 12 414T12 417Q12 422 13 426T18 434Q21 438 25 441T34 446Q35 446 39 447T52 450Q60 452 68 454T87 458H88Q88 458 89 459H90Q90 459 91 459H92Q92 459 93 460H94V460Q99
461 104 462T115 464Q120 464 125 465T134 467Q143 469 148 470T155 471Q165 470 171 467T179 456Q181 449 182 442T183 427V427V427V426V426Q183 425 183 424V424Q183 423 183 422T183 420Q183 419 183 418V418Q203 430 223 441T266 461Q288 470 310 475T357 480Q359
480 361 480T367 480Q368 480 369 480T372 480Q373 479 374 479T377 479Q378 479 379 479T382 479Q383 478 384 478T387 478Q389 477 391 477T397 476Q430 469 452 453T484 411Q494 386 499 359T504 302V63Q506 63 508 63T512 63Q513 63 514 63T517 64Q518 64 519
64T522 64Q524 64 526 64T532 64Q534 64 535 64T538 65Q540 65 541 65T544 65V65Q545 65 546 65V65Q547 65 548 65Q555 65 561 64T574 60Q580 58 584 54T592 44Q593 42 593 41T594 37Q594 36 594 36T595 34Q595 33 595 33T595 31Q594 24 591 19T583 9Q577 5 571
3T557 0H396V0V0Z" />
<glyph unicode="o" glyph-name="o" d="M56 234Q57 294 76 339T134 416Q172 448 213 464T301 481Q302 481 302 481T304 481Q305 481 305 481T307 481Q352 480 393 465T472 419Q509 389 527 344T546 236Q546 176 527 131T470 53Q432 22 391 6T304 -11Q303 -11 302
-11T299 -11Q298 -11 297 -11T295 -11Q249 -10 208 4T129 49Q92 79 74 125T56 234V234V234ZM147 214Q152 175 166 147T202 98Q225 79 249 69T300 58Q301 58 301 58T303 58Q304 58 305 58T307 58Q335 58 360 68T409 99Q432 120 443 150T455 220Q455 222 455 224T455
228Q454 230 454 232T454 237Q454 242 454 246T452 256Q446 296 432 325T394 373Q371 392 346 401T295 411Q267 411 241 400T192 368Q168 346 157 316T145 244Q145 240 145 237T145 229Q145 225 145 222T147 214V214V214Z" />
<glyph unicode="p" glyph-name="p" d="M206 -157Q209 -155 213 -155T221 -155Q226 -155 230 -155T240 -155Q245 -154 250 -154T260 -155Q265 -155 268 -155T276 -157Q280 -158 283 -160T289 -165Q291 -168 292 -171T295 -179V-179V-180V-180V-180V-180L296 -181V-182V-182Q296
-183 296 -183T296 -185Q296 -186 296 -186T296 -188Q296 -196 293 -202T284 -212Q278 -215 271 -217T256 -219L107 -221Q106 -219 105 -219T103 -219Q102 -219 102 -219T100 -219Q96 -219 92 -219T85 -217Q81 -216 78 -214T73 -209Q72 -208 71 -207T69 -203Q68
-202 68 -201T67 -197Q66 -196 66 -196T66 -194Q66 -193 66 -193T66 -191V-191V-191V-190V-190V-190V-190V-189V-189Q66 -188 66 -188V-187V-187V-187Q66 -185 66 -183T67 -179Q67 -178 67 -177T68 -176Q68 -175 68 -174T69 -172Q71 -166 75 -163T84 -158Q89 -157
94 -156T106 -155Q107 -155 108 -155T111 -155Q112 -155 112 -155T114 -155V-155Q115 -155 116 -155Q117 -155 117 -155T119 -155Q120 -155 121 -155T123 -155V399Q122 399 121 399T118 399Q117 398 116 398T113 398Q112 398 111 398T108 397Q106 396 105 396T102
396Q99 395 97 395T92 394Q91 394 90 394T87 393Q85 393 84 393T81 393Q80 392 79 392T75 392Q74 392 73 392T69 392Q68 392 68 392H67V392V392Q66 392 66 392H65V392V392H64V392Q59 392 55 392T45 394Q41 395 38 397T32 403Q31 405 30 407T27 412Q26 414 26 416T26
421Q26 423 26 425T28 431Q28 433 29 435T32 440Q35 445 39 448T49 453L54 454Q58 455 68 457Q77 459 87 461T110 466Q122 468 132 470T153 475Q162 477 167 478Q171 479 172 479V479V479V479H173V479V479V479V479V479H174V479V479Q185 479 192 476T201 465Q203
458 204 450T206 432Q215 438 224 442T242 452Q250 456 259 459T277 466Q295 471 312 474T347 477Q388 477 422 462T484 416Q512 386 526 345T540 252Q540 251 540 250V249Q540 248 540 247T540 245Q540 244 540 243V242Q540 241 540 240T540 238Q538 197 525 160T489
88Q466 54 434 33T360 4Q353 3 347 2T333 1Q326 0 320 0T306 0Q299 0 293 0T280 0Q274 0 268 1T256 3Q253 3 250 3T244 5Q240 6 237 6T231 8Q228 9 225 9T219 11Q215 12 212 13T206 15V-157V-157V-157ZM206 102Q213 96 220 92T234 83Q240 79 247 76T261 70Q275
65 288 63T314 60Q343 60 367 71T412 106Q432 129 442 160T452 229Q452 231 452 232T452 235Q452 237 452 239T452 243Q452 244 452 245T452 247Q451 248 451 249T451 251Q451 253 451 255T451 259Q447 285 438 308T414 354Q399 376 378 389T330 407Q329 407 328
407T326 408Q324 408 323 408T321 408Q320 408 319 408T317 409Q315 409 314 409T312 409Q297 408 283 405T255 394Q242 387 230 379T206 360V102V102V102Z" />
<glyph unicode="q" glyph-name="q" d="M430 435Q432 437 433 439T436 443Q438 445 439 447T442 451Q444 453 445 455T449 460Q451 462 453 464T457 468Q461 472 465 475T476 479V479Q477 479 478 480V480Q479 480 480 480Q481 480 481 480T483 480H484Q484 480
485 480Q491 480 496 478T506 472Q511 468 514 464T518 453Q518 452 518 452V451V450V450Q518 449 518 448V448Q518 447 518 446V446Q518 441 518 436T515 426Q514 423 513 421T512 416Q511 413 510 411T508 406Q507 405 507 404T506 401Q505 399 505 398T504 395Q503
392 502 390T501 385Q500 378 499 370T496 353Q495 349 495 344T494 335Q493 330 493 326T493 316Q493 313 493 310T493 304Q492 301 492 298T492 292Q492 286 492 280T492 269Q492 265 492 262T492 255Q492 251 492 248T492 242V-160Q494 -158 495 -158T498 -158Q499
-158 500 -158T502 -158H503Q504 -158 505 -158Q506 -158 507 -158T509 -157H510Q511 -157 512 -157Q514 -157 516 -157T520 -157V-157H521V-157V-157H522Q522 -157 523 -157Q531 -157 539 -158T554 -163Q562 -166 565 -172T569 -189Q569 -197 566 -203T557 -212Q551
-215 545 -217T530 -219L370 -221Q369 -220 368 -220V-219Q367 -219 367 -219T365 -219Q364 -219 364 -219H363Q362 -219 362 -219T360 -219Q359 -219 358 -219T355 -218Q353 -217 352 -217T349 -216Q346 -215 345 -214T341 -210Q340 -209 340 -208L339 -207Q338
-206 338 -205T337 -203Q337 -202 336 -201V-200Q335 -199 335 -198T335 -196Q334 -195 334 -194T334 -192Q334 -191 334 -191T334 -189Q334 -188 334 -188T334 -186Q334 -185 334 -184T335 -183Q335 -182 335 -181T335 -179Q335 -178 335 -178T337 -176Q339 -170
343 -166T354 -160Q360 -159 366 -158T379 -157Q381 -157 383 -157T387 -157Q389 -157 391 -157T395 -158Q396 -158 397 -158T399 -158H400Q401 -158 402 -158Q403 -158 404 -158T406 -158H407Q408 -158 409 -158V16Q396 11 383 7T355 0Q342 -2 328 -3T299 -5Q255
-5 218 9T149 52Q118 81 101 117T78 196Q77 201 77 206T76 216Q76 221 76 226T76 236Q76 290 92 333T139 410Q171 443 209 459T293 476Q305 476 317 475T343 470Q356 467 369 463T395 453Q397 452 399 451T404 449Q406 447 408 446T412 444Q417 442 421 440T430
435V435V435ZM409 92V373Q397 381 385 387T361 398Q349 402 338 404T316 406Q285 406 259 394T212 355Q191 330 180 299T168 230Q168 229 168 228V228Q168 227 168 227T168 225Q168 224 168 223T168 221Q168 182 178 153T208 102Q228 81 253 71T307 61Q315 61 323
62T341 64Q349 66 357 68T375 75Q379 77 383 78T392 82Q394 83 396 84T401 87Q403 88 405 89T409 92V92V92Z" />
<glyph unicode="r" glyph-name="r" d="M275 371Q295 396 316 415T360 450Q383 465 410 473T472 482V482V482V482H473V482V482V482V482V482H474V482V482Q476 482 477 482T480 482Q481 482 481 482T483 482Q484 481 484 481T486 481Q500 480 512 476T537 464Q549
457 555 446T561 421Q561 420 561 419T561 416Q560 415 560 414T560 411Q560 410 560 409T559 406Q558 404 558 403T557 400Q554 392 550 387T539 379Q532 376 525 375T510 374Q507 374 505 374T500 374Q499 374 498 374T495 375Q493 375 492 375T490 375Q487 375
484 375T478 377Q477 377 476 377T473 378Q471 378 470 378T467 379Q463 379 459 379T450 381Q446 382 443 382T436 383Q435 383 435 383T433 383Q432 383 432 383T430 383Q405 383 383 376T342 354Q323 340 307 324T275 288V61H416Q427 61 435 59T449 52Q452 50
454 48T457 43Q459 40 460 38T461 33Q461 32 461 32V31V31V31V30V30Q461 24 459 19T451 9Q447 5 440 3T424 0H154Q147 0 140 2T127 8Q121 13 118 18T115 31Q115 33 115 34T115 37Q115 39 115 40T117 43Q119 49 123 53T134 58Q140 60 147 61T161 62Q163 62 165 62T170
62Q172 62 174 62T178 62Q180 61 182 61T186 61Q187 61 188 61T190 61H191Q192 61 193 61V404Q189 403 186 403T178 402Q174 401 171 401T164 400Q163 400 162 400T159 400Q157 399 156 399T153 399Q152 399 151 399T148 398Q146 398 145 398T142 398Q140 397 138
397T133 396Q130 395 128 395T123 395Q118 395 114 395T104 395Q103 395 102 395V395Q101 395 101 395T99 395Q98 395 97 395T93 395Q89 395 85 396T78 401Q75 404 74 408T71 416Q70 417 70 418T70 420Q70 421 70 421T70 423V424Q70 424 70 425Q70 433 73 439T83
450Q90 454 97 457T113 461Q116 461 119 461T125 463Q127 463 128 463T131 464Q133 464 134 464T137 464Q146 464 155 465T171 467Q175 468 178 468T186 470Q189 470 192 470T199 472Q208 474 215 475T230 478Q236 480 241 480T251 481Q260 481 265 476T272 459Q274
448 274 426T275 371V371V371Z" />
<glyph unicode="s" glyph-name="s" d="M99 42Q98 45 98 48T97 55Q97 57 97 59T97 63Q96 65 96 67T96 72Q95 75 95 78T94 84Q94 86 94 87T94 91Q93 92 93 94T93 98Q93 100 93 102T93 106Q92 108 92 110T92 114Q92 118 92 122T92 130Q92 132 92 133T92 136Q92 137
92 138T92 141Q92 144 92 146T94 151Q96 156 98 160T105 168Q109 171 113 172T123 175H124Q124 175 125 176H126Q126 176 127 176Q129 176 129 176T131 176Q140 176 146 172T156 160Q160 153 163 144T169 126Q169 125 169 124V124V123H170Q171 117 172 111T175
100Q177 95 179 91T185 84Q193 74 205 66T232 53Q247 48 262 46T294 43V43H295V43V43H296Q296 43 297 43V43V43H298Q298 43 299 43Q313 43 327 44T355 50Q369 54 380 59T400 72Q405 77 409 82T417 95Q420 101 422 108T424 123Q424 124 424 125T424 127Q423 127
423 128T423 130Q423 131 423 132T423 134Q422 135 422 136T422 138Q418 149 412 157T396 170Q387 175 378 178T358 184Q357 184 357 184T356 185Q355 185 354 185V185Q353 185 353 185T352 186Q351 186 350 186V186Q347 186 344 186T338 188Q335 188 332 188T326
190Q322 191 318 191T311 193Q307 193 303 193T295 195Q287 197 279 198T263 201Q239 206 217 213T174 231Q153 242 140 258T118 297Q117 302 116 307T113 317Q113 319 113 321T112 327Q112 329 112 331T112 336Q112 365 124 389T161 433Q185 452 212 464T268 480V480H269V480V480H270Q270
480 271 480Q273 480 275 480T280 481Q282 481 284 481T288 481Q290 481 292 481T296 482Q298 482 300 482T304 482Q315 482 324 482T343 479Q347 478 351 477T359 476Q363 475 366 474T374 472Q376 471 378 471T384 469Q386 468 388 468T393 467Q398 466 402 465T411
463Q412 463 413 463T415 463Q416 462 417 462T419 462Q421 462 423 462T427 462H428Q428 462 429 462H430Q430 462 431 462V462H432V462Q433 462 434 462Q435 462 436 462T438 462Q439 462 440 462T442 463Q443 463 444 463T446 463Q447 463 448 463T450 463Q459
463 466 461T478 455Q483 451 486 443T490 421Q490 419 490 417T490 413Q490 412 490 411T491 410Q491 409 491 408T492 406Q492 402 492 398T494 391Q494 387 494 383T495 375Q495 371 495 367T496 360Q497 356 497 352T497 344Q497 343 497 342T497 338Q497 337
497 336T497 332Q497 328 495 324T490 317Q486 314 483 312T475 308Q474 308 474 308H473Q472 307 472 307H471Q470 307 469 307T467 307Q466 307 466 307T464 307Q463 307 463 307T461 307Q451 307 445 310T434 321Q430 329 427 337T422 354V354Q421 354 421 355V355V355V356Q421
356 421 357Q420 360 419 363T417 370Q415 373 414 376T412 382Q409 388 406 392T397 401Q389 406 379 410T358 417Q347 420 335 421T311 423Q310 423 309 423T307 423Q306 423 306 423T304 423Q291 422 279 420T254 415Q242 411 232 406T214 395Q209 391 205 385T198
373Q195 367 194 361T193 347Q193 346 193 345T193 343Q193 342 193 341T194 339Q194 338 194 337T194 335Q194 334 194 334T195 333Q195 332 195 332V331Q198 320 204 312T219 298Q228 293 237 289T257 282Q263 281 270 280T284 276Q288 275 291 275T299 274Q303
273 307 273T315 271Q320 270 324 270T334 268Q339 267 344 267T355 265Q376 261 397 256T437 243Q457 236 471 224T495 194Q497 190 498 187T502 180Q503 176 504 173T507 165Q509 158 510 151T511 135Q511 113 504 94T482 56Q467 38 449 25T410 3Q398 0 386 -3T359
-8Q352 -9 346 -9T333 -11Q326 -11 320 -11T306 -12Q302 -12 299 -12T292 -12Q288 -11 285 -11T278 -11Q271 -10 265 -10T251 -8Q247 -7 243 -7T233 -4Q231 -3 229 -3T224 -2Q221 -1 219 -1T214 0Q207 2 200 3T187 6Q180 8 175 9T165 10Q164 10 163 10T161 10Q159
9 158 9T156 9Q154 9 152 9T147 9Q146 9 145 9T143 9Q142 8 141 8T139 8Q137 8 135 8T131 8Q124 8 119 9T109 14Q105 17 103 24T99 42V42V42Z" />
<glyph unicode="t" glyph-name="t" d="M158 388Q157 388 156 388T153 388Q152 387 151 387T148 387Q147 387 146 387T143 387Q141 386 140 386T137 386Q136 386 135 386T133 386Q132 385 131 385T129 385Q128 385 127 385T125 385Q124 384 123 384T121 384Q120
384 120 384H119Q118 384 118 384T116 384Q115 384 114 384V384Q113 384 113 384T111 384Q103 384 96 385T82 389Q76 391 72 396T66 408V408Q66 409 66 410Q65 410 65 410V411V412Q65 413 65 414V414Q65 415 65 416Q65 417 65 417T65 419Q65 428 69 434T81 443Q89
446 98 448T117 451Q119 451 120 451T124 452Q125 452 127 452T130 452Q132 452 133 452T137 452Q138 452 140 452T143 452Q144 452 145 452T147 453Q148 453 149 453T151 453Q152 453 153 453T155 453H156Q157 453 158 453Q158 454 158 455T158 458Q157 459 157
460T157 463Q157 465 157 468T157 474Q157 476 157 477T157 480Q156 482 156 483T156 486Q156 488 156 489T156 493Q156 494 156 496T156 499V499V500V500V500V500Q156 501 156 502Q156 515 158 527T164 550Q169 561 178 566T200 572Q201 572 201 572T203 572Q204
572 204 572T206 572Q217 571 224 567T236 553Q239 544 241 534T243 512Q243 511 243 510T243 506Q243 505 243 504T243 500Q242 497 242 495T242 490Q242 488 242 486T242 482Q241 478 241 474T240 467Q240 464 240 461T240 456L463 468V468V468V468H464V468V468V468V468Q472
468 477 466T487 458Q492 453 494 448T496 436Q496 430 494 425T488 414Q484 410 479 407T466 404L241 392V141Q241 117 245 102T259 78Q268 70 280 66T307 62Q315 62 324 63T344 65Q354 67 364 69T385 73Q390 74 396 75T409 78Q416 80 423 82T437 86V86L438 87V87H439H440Q441
87 442 88Q450 90 458 92T476 97Q484 99 491 100T505 101H506Q506 101 507 101Q508 101 508 101T510 101Q512 100 514 99T519 97Q521 96 523 95T527 92Q531 88 533 84T535 74Q535 61 526 50T497 30Q478 22 458 16T414 5Q396 2 380 0T347 -3Q331 -5 320 -5T301 -7Q299
-7 297 -7T293 -7Q292 -7 291 -7H290Q289 -7 288 -7T286 -7Q243 -7 217 4T179 40Q169 64 164 95T158 166V388V388V388Z" />
<glyph unicode="u" glyph-name="u" d="M497 72Q499 72 500 72T505 73Q508 73 511 73T517 75Q520 75 523 75T529 77Q532 77 535 77T543 79Q544 79 545 79T547 79Q548 79 549 79T551 79V79H552V79V79V79Q553 79 554 79V79V79V79Q555 79 556 79Q561 79 566 79T576
76Q581 75 584 73T589 66Q590 65 590 64T591 60Q591 59 591 59T592 57Q592 56 592 56T592 54Q592 49 590 45T584 36Q582 34 580 33T576 30Q573 29 571 28T567 26H566V26Q565 25 564 25V25Q563 25 562 25V25Q560 24 556 23T543 20Q539 19 535 18T527 17Q523 16 519
15T510 13Q509 12 508 12V12Q507 12 506 12V12Q496 9 487 7T470 3Q461 2 457 1T450 0Q442 1 437 4T429 12Q427 17 426 23T425 36Q425 38 425 39T425 42Q425 43 425 44T425 46L426 47Q426 48 426 49Q426 50 426 50T426 52V52Q426 53 426 54Q426 56 426 57T426 60Q406
48 385 37T340 16Q318 6 295 2T247 -2Q243 -2 240 -2T233 -1Q229 -1 226 -1T218 0Q211 0 204 1T190 6Q165 15 148 30T120 67Q110 89 106 112T101 160Q101 161 101 161T101 163V164Q101 164 101 165Q101 166 101 166T101 168V168Q101 169 101 170L108 385Q105 384
102 384T96 381Q95 380 93 380T90 379Q88 378 87 378T83 376Q81 375 79 374T74 372Q72 371 70 371T66 370Q62 369 59 368T53 367Q52 367 51 367T48 366Q46 366 45 366T42 366Q38 366 35 366T29 368Q26 369 24 370T19 375Q17 377 16 379T13 385Q12 387 12 389T12
395Q12 399 13 403T16 411Q18 415 21 418T29 423L34 424Q38 426 48 430Q57 433 67 437T89 445Q100 449 110 452T129 459Q138 462 143 464T149 467H150Q150 467 151 468H152Q152 468 153 468Q155 468 155 468T157 468Q162 468 167 466T176 460Q180 456 182 452T184
441Q184 439 184 437T184 432Q184 431 184 430T185 428Q185 426 185 425T185 423Q185 420 185 418T185 413Q185 412 185 411T186 408Q186 406 186 405T186 402Q186 397 186 392T186 381Q185 375 185 370T185 358Q185 352 185 346T184 335Q183 329 183 323T183 311Q183
310 183 309T183 307Q182 306 182 305T182 303Q182 302 182 301V300Q182 299 182 298T182 296Q181 286 181 276T180 256Q180 246 180 236T180 217Q180 203 180 190T182 166Q183 154 184 145T188 128Q193 110 201 98T222 77Q233 70 246 67T273 63Q278 63 284 63T296
65Q299 65 302 65T308 67Q310 68 313 68T319 70Q330 73 341 77T363 86Q374 91 383 96T402 107Q404 108 406 109T410 111Q411 112 412 112T414 114H415Q416 115 417 116V385Q415 384 413 384T408 381Q407 380 406 380T403 379Q401 378 400 378T397 376Q395 375 393
375T389 373Q387 372 385 371T380 370Q377 369 375 368T370 367Q367 366 365 366T360 366Q359 366 358 366V366V366V366H357V366Q354 366 351 366T345 368Q342 369 340 370T336 375Q334 377 333 379T330 385Q329 387 329 389T329 395Q329 399 330 403T333 411Q335
415 338 418T346 423L350 424Q355 426 365 430Q374 433 384 437T406 445Q417 449 427 452T447 460Q456 463 461 465Q465 467 466 467Q467 467 467 467T469 467H470Q470 467 471 467Q479 467 483 464T491 455Q494 449 495 443T497 430V72V72V72Z" />
<glyph unicode="v" glyph-name="v" d="M69 402Q68 402 67 402T65 402Q64 401 63 401T61 401Q59 401 57 401T52 401Q51 401 50 401T48 401Q47 400 46 400T44 400Q43 400 42 400H41Q40 400 39 400T37 400Q36 400 36 400T34 400Q33 400 33 400T31 400Q23 400 16 401T2
404Q-3 406 -7 410T-14 420V420Q-14 421 -15 422V422V423V424Q-15 424 -16 425V426Q-16 426 -16 427V428Q-16 429 -16 430Q-16 431 -16 431T-16 433Q-16 440 -14 446T-6 457Q-2 462 3 464T16 468H191Q199 467 205 465T217 458Q222 454 224 449T227 435Q227 434
227 434T227 431Q227 430 227 430V429Q226 428 226 428V427Q225 419 221 414T211 406Q205 404 199 403T186 402V402V402H185V402Q184 402 184 402H183Q180 402 177 402T172 402Q169 402 167 402T162 402Q164 397 165 392T169 381Q170 375 172 370T176 359Q178 354
179 349T183 338Q185 332 187 327T191 316Q202 286 214 256T239 196Q252 166 266 138T296 82Q313 121 329 160T359 240Q373 280 385 320T408 402Q407 402 406 402T404 402Q402 401 401 401T399 401Q397 401 395 401T389 401Q388 401 387 401T383 401Q382 400 381
400T377 400Q374 400 371 400T365 400Q364 400 363 400T361 400Q360 400 360 400T358 400Q350 400 343 401T327 405Q320 407 315 411T308 421Q308 422 308 423T307 425Q306 425 306 426T306 428Q305 430 305 432T305 436Q305 444 308 449T317 459Q323 464 330 466T346
468H525Q533 468 539 466T550 459Q555 455 558 449T561 436Q561 435 561 434V434Q561 433 561 433T561 431Q561 430 561 430V429Q560 428 560 428V427Q558 420 554 415T544 406Q538 403 532 402T520 401Q519 401 518 401V401Q517 401 516 401V401Q515 401 514 401H513Q512
401 511 401T509 401Q508 401 507 401T503 402Q502 402 501 402T497 402Q496 402 495 402T491 402Q488 395 486 388T481 372Q479 365 477 358T472 343Q468 332 465 321T458 298Q454 287 451 276T443 253Q436 231 428 209T411 166Q410 162 408 158T405 150Q403 146
402 141T398 131Q396 126 394 121T390 110Q388 104 386 99T382 88Q376 74 370 61T356 34Q349 21 342 12T326 -1Q322 -4 319 -6T311 -10Q307 -12 303 -12T293 -14V-14V-14H292V-14V-14V-14H291V-14Q290 -14 290 -14H289V-14V-14Q277 -14 266 -7T243 13Q233 27 223
43T205 76Q199 89 194 101T183 125Q179 137 175 145T169 160Q156 190 143 220T118 280Q105 310 93 340T69 402V402V402Z" />
<glyph unicode="w" glyph-name="w" d="M6 402Q5 402 4 402V402Q3 402 3 402T1 402Q0 402 -1 402T-3 402H-4Q-4 402 -5 402H-6Q-6 402 -7 402Q-9 402 -11 402T-17 403Q-19 403 -21 403T-26 405Q-31 407 -34 410T-39 419Q-40 421 -40 423T-42 428Q-42 429 -42 430T-43
433Q-43 434 -43 435T-43 437Q-42 445 -39 450T-29 460Q-22 464 -15 466T0 468H189Q197 468 204 466T216 460Q221 456 223 451T226 439V438Q226 438 226 437Q225 437 225 437T225 435Q225 434 225 433T225 431V430V430L224 429V429Q224 428 224 428V427Q223 421
221 417T214 410Q210 407 205 405T195 402Q193 402 191 402T187 401Q184 401 182 401T178 401Q174 401 170 401T162 401Q158 401 154 401T144 401Q140 401 136 401T126 402Q122 402 118 402T108 402Q106 402 104 402T100 402Q97 402 95 402T91 402L180 68L252 291V292Q252
292 253 293V294V294V294Q253 295 254 296V296Q254 297 254 298Q256 305 259 311T267 323Q272 328 278 331T292 334Q301 334 307 331T318 322Q321 316 324 310T330 295Q330 294 330 294T330 292V292Q330 291 331 291V290V290L398 68L483 402Q481 402 479 402T475
402Q472 402 470 402T466 402Q462 402 458 402T450 402Q448 402 446 402T442 401Q439 401 437 401T433 401Q429 401 425 401T417 401Q413 401 409 401T399 401Q395 401 391 401T382 402Q378 403 374 404T367 408Q363 410 361 413T357 420Q357 421 357 422T356 424Q355
424 355 425T355 427Q355 428 355 429T354 431V432Q354 433 354 434Q354 442 357 448T366 459Q372 464 379 466T394 468H570Q579 468 586 466T599 458Q604 453 607 448T611 436Q611 435 611 434V434V434V434V433V433Q611 427 608 422T599 411Q593 407 584 405T563
402L467 55Q463 39 456 26T440 4Q431 -4 422 -10T404 -17Q403 -17 403 -17T401 -17Q400 -17 400 -17H399Q391 -17 383 -14T367 -2Q360 4 354 16T342 44L288 225L226 28Q223 19 219 12T207 -2Q200 -9 192 -12T174 -16V-16V-16H173V-16V-16V-16V-16V-16H172V-16V-16V-16Q160
-15 151 -11T134 0Q127 8 122 17T113 37Q112 39 112 41T110 45Q109 47 109 49T108 53L6 402V402V402Z" />
<glyph unicode="x" glyph-name="x" d="M145 354Q135 365 127 372T114 384Q109 388 105 390T96 394Q95 394 94 394T90 394Q89 394 89 394T87 395Q86 395 86 395T84 395V395V395H83V395V395V395Q79 395 75 395T65 397Q60 398 53 400T38 406Q33 408 29 410T23 417Q21
421 20 425T19 434V434Q19 435 19 436Q19 437 19 437T19 439Q20 444 23 449T31 459Q36 464 43 466T61 468H228Q236 468 243 466T256 459Q261 455 264 449T267 435Q267 434 267 434T267 431Q267 430 267 430V429Q266 428 266 428V427Q265 420 261 415T252 407Q246
405 240 404T228 402Q227 402 227 402T225 402Q224 402 224 402T222 402Q219 402 217 402T212 402Q210 402 208 402T203 402L303 293L393 402Q392 402 391 402T387 402Q386 402 385 402H384Q383 402 382 402T380 402Q379 402 378 402L377 401Q376 401 375 401T373
401Q372 401 371 401H370Q369 401 368 401T366 401Q365 401 364 401V401Q363 401 362 401V401Q356 401 351 402T341 405Q336 407 332 410T326 419Q325 420 325 421T324 423Q323 424 323 425T323 427Q322 428 322 429T322 431Q322 432 322 433T322 435Q322 442 324
448T332 458Q337 463 344 465T359 468H520Q531 468 538 466T551 458Q556 454 558 449T561 437V437V437V436V436V436V436V435V435Q561 430 559 426T554 416Q551 412 547 409T537 403Q532 402 528 401T520 399Q517 399 514 399T509 399Q508 399 507 399T505 399Q504
399 503 399T501 399Q500 399 499 399T497 399Q496 399 496 399T494 399Q490 398 485 396T475 388Q470 384 462 376T443 354L349 243L473 111Q488 95 499 86T519 73Q527 70 535 69T550 68V68V68V68H551V68H552V68Q553 68 554 68Q558 68 562 68T570 66Q574 65 578
64T588 59Q592 57 595 54T599 48Q600 47 600 45T601 42Q602 40 602 39T602 35Q602 34 602 34V33V33V33V32V32Q601 26 598 21T590 10Q585 5 579 3T565 0H396Q387 0 380 1T366 7Q360 10 357 16T354 29V29V29V29V30V30V30V30V30V30V31V31V31Q354 33 354 35T355 39Q355
41 355 43T357 48Q359 53 362 56T370 61Q375 63 380 64T390 66Q391 66 391 66T393 66Q394 66 395 66T397 66Q399 66 401 66T406 66Q408 66 410 66T415 66L299 188L187 66Q189 66 190 66T194 66Q196 66 198 66T202 67Q203 67 204 67T206 67Q207 67 207 67T209 67H210Q210
67 211 67Q212 67 213 67T215 67Q216 67 217 67T219 67H220Q220 67 221 67H222Q222 67 223 67Q226 67 229 67T236 66Q239 65 242 65T248 63Q254 61 258 57T265 47Q266 45 266 43T267 39Q267 38 267 37T268 35Q268 34 268 33T268 31Q268 24 265 18T256 8Q250 4 243
2T227 0H68Q58 0 50 2T37 10Q33 15 31 20T28 33V34Q28 34 28 35V36Q28 36 28 37Q28 40 29 43T33 51Q35 54 38 57T46 61Q53 64 58 66T68 69Q73 70 76 70T84 72Q85 72 85 72T87 72H88Q88 72 89 73H90Q90 73 91 73Q95 73 99 75T109 81Q114 85 121 92T139 112L252 239L145
354V354V354Z" />
<glyph unicode="y" glyph-name="y" d="M92 402Q91 402 90 402V402Q89 402 89 402T87 402Q86 402 86 402H85Q84 402 84 402T82 402Q81 402 80 402L79 401Q78 401 77 401T75 401Q74 401 73 401T69 401Q68 401 68 401H67Q66 401 66 401H65Q59 401 54 402T44 405Q39
407 36 410T30 419Q29 421 29 423T28 427Q27 429 27 431T27 435Q27 443 29 449T37 459Q42 464 49 466T65 468H227Q235 468 242 466T254 458Q259 454 262 448T265 435Q265 434 265 434T265 432Q264 431 264 431T264 429Q264 428 264 428V427Q263 426 263 426T263
424Q262 423 262 422T260 418Q260 417 260 416H259Q258 415 258 415T257 413Q254 409 250 407T240 403Q237 402 234 402T229 401Q226 400 223 400T217 400Q216 400 215 400T212 400Q210 400 209 400T206 400Q205 400 204 400T201 401Q200 401 199 401T197 401Q194
401 192 401T188 401Q187 401 186 401T184 402Q183 402 183 402T181 402L317 141L431 402Q430 402 429 402T427 402Q425 401 424 401T422 401Q421 401 420 401T417 401Q415 401 414 401T411 401Q410 401 408 401T405 401Q403 400 402 400T398 400Q394 400 391 400T384
400Q374 400 365 401T348 403Q339 405 334 409T326 419Q326 420 326 421T325 423Q324 423 324 424T324 426Q323 428 323 430T323 434Q323 441 325 447T334 457Q339 462 346 464T361 468H530Q538 468 545 466T557 459Q562 455 565 450T568 436Q568 435 568 434V434Q568
433 568 433T568 431Q568 430 568 430V429Q567 428 567 428V427Q566 419 563 414T553 406Q547 404 541 403T529 402Q528 402 527 402T523 402Q522 402 522 402H521Q520 402 520 402T518 402Q517 402 516 402V402Q515 402 514 402V402L295 -61Q294 -62 293 -64T289
-69Q288 -71 288 -72T287 -75Q286 -77 286 -78T284 -81Q271 -107 256 -130T223 -176Q205 -198 180 -209T123 -220Q122 -220 122 -220T120 -220Q119 -220 118 -220V-220Q117 -220 117 -220T115 -220Q114 -220 114 -220H113Q100 -219 88 -214T65 -200Q55 -190 50
-179T44 -155Q44 -154 44 -153T44 -151Q44 -150 44 -149T45 -147Q45 -146 45 -145T45 -143Q45 -142 45 -141T47 -139Q49 -132 53 -125T65 -113Q71 -108 78 -106T93 -103H94Q94 -103 95 -103H96Q96 -103 97 -103H98Q98 -103 99 -103V-103L100 -104V-104H101Q103
-104 104 -105T108 -106Q109 -107 111 -108T114 -110Q116 -111 117 -112T120 -114Q121 -115 122 -116T125 -119Q126 -119 126 -119T128 -121V-122Q129 -122 130 -123Q131 -124 132 -125T135 -127Q136 -127 137 -128T140 -130Q142 -132 145 -132T151 -134H152Q152
-134 153 -134V-134L154 -135V-135H155H156Q156 -135 157 -135H158Q158 -135 159 -135Q167 -135 173 -132T184 -122Q189 -115 194 -108T203 -93Q205 -89 207 -85T211 -75Q212 -73 213 -71T215 -67Q215 -65 216 -64T218 -60L275 53L92 402V402V402Z" />
<glyph unicode="z" glyph-name="z" d="M461 468Q472 467 480 464T493 456Q498 451 501 444T504 429Q504 426 504 423T503 417Q502 413 501 410T498 404Q497 401 495 398T491 392Q488 388 486 385T481 379L185 64H349Q372 64 388 68T414 79Q424 87 431 101T444
137V137V138V138V138V138L445 139V140V140Q447 146 450 151T458 162Q463 167 467 169T478 172V172Q479 172 480 172Q480 171 480 171T482 171V171Q483 171 484 171Q485 170 485 170T487 170Q488 170 489 170T491 168Q492 167 493 167T495 165Q498 162 500 159T504
151Q505 147 505 142T506 131Q506 130 506 129T506 125Q505 124 505 123T505 119Q505 118 505 117T505 113Q504 112 504 111T504 107Q503 103 503 100T501 93Q500 89 500 86T498 79Q497 75 496 71T494 63Q493 59 492 56T491 51Q490 39 487 30T478 13Q473 6 464
3T443 0H146Q132 0 122 2T106 8Q100 13 98 20T95 40Q95 41 95 41T95 43Q95 44 95 45T96 47V48Q96 49 96 50Q96 51 96 52T96 54Q97 65 98 73T102 87Q104 92 107 97T115 106Q118 109 121 112T129 119Q133 122 137 126T148 137L403 403H237Q218 403 206 399T186 386Q179
378 174 369T166 351Q165 349 165 347T164 343Q163 341 163 339T162 335Q160 328 158 321T152 309Q149 303 144 301T131 298Q130 298 130 298H129Q128 298 128 298T126 298Q119 299 114 302T106 312Q104 318 103 324T102 338Q102 339 102 339T102 341Q102 342 102
343T102 345Q102 347 102 349T102 354Q102 356 102 358T104 364Q104 365 104 366T104 369Q104 370 104 370T105 372V372Q105 373 105 374Q105 375 105 375T105 377V378Q105 378 105 379Q105 380 105 380T106 382Q106 383 106 383T106 385Q106 386 106 387T106 390Q106
391 106 391T107 393Q107 394 107 394T107 396Q107 397 107 398T107 400Q107 401 107 402T108 404Q108 416 110 426T117 447Q122 457 131 462T156 468H461V468V468Z" />
<glyph unicode="{" glyph-name="braceleft" d="M357 484Q357 482 357 480T357 475Q357 473 357 471T357 467Q357 466 357 465T357 461Q357 460 357 459T357 455Q357 425 355 397T347 341Q342 314 323 295T268 264Q298 253 317 236T343 196Q351 173 354 148T358
97Q358 94 358 91T358 85Q358 84 358 83T358 80Q358 78 358 77T358 74Q358 73 358 72T358 68Q358 67 358 66T358 62Q357 58 357 54T357 44Q357 40 357 36T357 28Q357 27 357 26T357 24Q357 23 357 23T357 21Q357 20 357 19T357 17Q357 16 357 16T357 14Q357 -4
361 -16T375 -35Q383 -41 392 -45T412 -51Q413 -51 414 -51T416 -51Q418 -51 419 -51T422 -53Q431 -55 438 -57T453 -62Q460 -65 463 -72T467 -92V-92V-92V-92V-93V-93V-93V-93V-93V-93V-94V-94V-94Q467 -102 465 -108T457 -120Q452 -126 446 -129T431 -132V-132V-132H430V-132V-132V-132V-132V-132H429V-132V-132V-132Q407
-132 386 -128T345 -116Q326 -109 312 -94T289 -55Q285 -44 283 -33T278 -9Q277 1 276 13T275 37Q275 40 275 43T275 51Q275 54 275 57T276 65Q276 68 276 71T276 79Q276 82 276 85T276 93Q276 97 276 100T276 108Q276 110 276 112T276 116Q275 118 275 120T275
124Q274 127 274 131T273 139Q273 143 273 146T271 154Q267 172 260 184T243 202Q234 207 223 211T197 218Q196 218 194 218T191 220Q189 220 188 220T184 221Q180 221 177 222T170 224Q163 226 158 229T150 238Q146 243 145 249T143 262Q143 268 144 274T149 286Q152
292 157 296T169 302Q174 304 179 305T190 308Q192 309 194 309T200 311Q202 311 204 311T209 313Q221 315 231 319T251 330Q259 336 264 349T272 384Q272 389 272 393T273 403Q274 407 274 412T274 421Q274 430 274 439T274 459Q274 462 274 465T274 471Q274 473
274 474T274 478Q274 479 274 481T274 484Q274 492 274 499T275 514Q275 521 276 528T278 543Q280 558 284 572T296 600Q301 611 309 619T329 635Q340 643 352 648T377 657Q379 658 381 658T387 659Q389 660 391 660T396 661Q398 661 400 661T406 662Q408 663 410
663T415 663V663H416V663V663V663Q417 663 418 663Q429 663 437 661T453 655Q461 651 464 645T468 629V629V629V628V628V628V628V628V628V627V627V627V627Q468 626 468 625T468 623Q467 621 467 620T467 618Q467 617 467 616T466 613Q465 611 465 610T464 607Q461
600 457 595T447 588Q441 587 435 586T423 584Q422 584 422 584T420 584Q419 583 419 583T417 583Q416 583 415 583T413 583Q403 582 393 577T374 563Q365 555 361 536T357 484V484V484Z" />
<glyph unicode="|" glyph-name="bar" d="M342 -235Q341 -240 337 -244T326 -252Q320 -255 314 -256T300 -258Q293 -258 287 -257T274 -252Q268 -249 265 -244T260 -233V764Q262 770 265 775T275 783Q281 786 287 787T301 789H302Q302 789 303 789V789H304V789V789Q310
788 316 786T328 781Q333 778 337 774T342 764V-235V-235V-235Z" />
<glyph unicode="}" glyph-name="braceright" d="M254 484V484Q254 485 254 486V486Q254 487 254 488Q254 503 252 517T247 545Q243 559 233 568T205 581Q204 581 203 581T201 582Q200 582 199 582T197 582Q195 582 193 582T188 584V584V584H187V584Q186 584 186
584T185 585Q178 586 172 587T160 591Q154 593 151 598T145 612Q144 614 144 616T143 620Q143 621 143 622T143 624V625Q143 626 143 627Q143 637 146 644T157 655Q164 660 172 662T191 664Q196 664 200 664T210 662Q215 661 220 661T231 658Q244 654 256 648T280
634Q292 627 300 618T315 600Q322 587 326 573T333 545Q335 531 336 517T337 488Q337 484 337 481T337 473Q337 469 337 466T337 458Q336 454 336 451T336 443Q336 439 336 436T336 428Q336 422 336 417T336 406Q336 400 336 395T338 384Q340 363 345 350T359 330Q367
324 378 320T402 313Q404 312 406 312T411 311Q413 310 415 310T421 308Q426 307 431 306T442 302Q447 300 451 296T460 286Q462 283 463 280T465 275Q466 272 467 269T468 263Q468 262 468 262V261Q468 260 468 260V259Q468 255 467 251T464 242Q462 238 459 235T452
229Q449 228 446 227T440 223Q437 222 434 221T428 220Q426 219 424 219T419 218Q418 218 417 218T414 218Q413 217 412 217T410 217Q401 216 393 214T376 209Q368 206 361 198T348 178Q344 169 341 159T336 137Q335 125 335 113T334 89Q334 87 334 85T334 81Q334
78 334 76T334 72Q334 68 334 64T335 56Q335 52 335 48T335 40Q335 36 335 33T335 25Q335 19 335 14T335 4Q335 2 335 -1T334 -7Q334 -8 334 -10T333 -13Q328 -45 317 -67T288 -102Q270 -115 247 -122T193 -132V-132V-132H192V-132V-132V-132H191V-132Q190 -132
190 -132H189V-132V-132Q188 -132 188 -132H187H186V-132Q179 -131 172 -129T159 -124Q153 -121 150 -116T144 -102Q143 -101 143 -100T143 -96Q143 -95 143 -94T143 -91Q143 -80 146 -73T157 -62Q164 -58 172 -56T189 -52H190Q190 -52 191 -52Q191 -51 191 -51T193
-51Q194 -51 194 -51T196 -51Q196 -50 196 -50T198 -50Q206 -49 214 -46T230 -38Q238 -34 243 -26T251 -5Q253 0 253 6T255 19Q255 22 255 25T256 33Q256 36 256 39T256 46Q256 48 256 50T256 55Q255 57 255 59T255 65Q255 70 255 75T255 85Q255 87 255 89T255
94Q254 96 254 98T254 104Q254 106 254 108T254 114Q254 116 254 118T254 123Q254 145 258 165T269 205Q277 225 295 239T342 264Q308 276 288 295T263 342Q258 369 256 397T254 457V457V458V458V459V459V459Q254 462 254 465T254 471Q254 473 254 474T254 478Q254
479 254 481T254 484V484V484Z" />
<glyph unicode="~" glyph-name="asciitilde" />
</font>
</defs>
</svg>
